<svg xmlns="http://www.w3.org/2000/svg" version="1.1" xmlns:xlink="http://www.w3.org/1999/xlink" xmlns:svgjs="http://svgjs.dev/svgjs" viewBox="0 0 800 800"><defs><linearGradient x1="50%" y1="0%" x2="50%" y2="100%" id="vvvortex-grad"><stop stop-color="hsl(1.4, 100%, 67%)" stop-opacity="1" offset="0%"></stop><stop stop-color="hsl(167, 52%, 78%)" stop-opacity="1" offset="100%"></stop></linearGradient></defs><g stroke="url(#vvvortex-grad)" fill="none" stroke-linecap="round"><circle r="363" cx="400" cy="400" stroke-width="11" stroke-dasharray="19 21" stroke-dashoffset="25" transform="rotate(233, 400, 400)" opacity="0.55"></circle><circle r="346.5" cx="400" cy="400" stroke-width="11" stroke-dasharray="10 42" stroke-dashoffset="25" transform="rotate(41, 400, 400)" opacity="0.28"></circle><circle r="330" cx="400" cy="400" stroke-width="10" stroke-dasharray="37 52" stroke-dashoffset="25" transform="rotate(214, 400, 400)" opacity="0.52"></circle><circle r="313.5" cx="400" cy="400" stroke-width="10" stroke-dasharray="22 40" stroke-dashoffset="25" transform="rotate(158, 400, 400)" opacity="0.61"></circle><circle r="297" cx="400" cy="400" stroke-width="10" stroke-dasharray="30 30" stroke-dashoffset="25" transform="rotate(193, 400, 400)" opacity="0.70"></circle><circle r="280.5" cx="400" cy="400" stroke-width="10" stroke-dasharray="27 28" stroke-dashoffset="25" transform="rotate(98, 400, 400)" opacity="0.49"></circle><circle r="264" cx="400" cy="400" stroke-width="9" stroke-dasharray="37 49" stroke-dashoffset="25" transform="rotate(84, 400, 400)" opacity="0.23"></circle><circle r="247.5" cx="400" cy="400" stroke-width="9" stroke-dasharray="19 48" stroke-dashoffset="25" transform="rotate(85, 400, 400)" opacity="0.58"></circle><circle r="231" cx="400" cy="400" stroke-width="9" stroke-dasharray="39 42" stroke-dashoffset="25" transform="rotate(321, 400, 400)" opacity="0.92"></circle><circle r="214.5" cx="400" cy="400" stroke-width="8" stroke-dasharray="33 31" stroke-dashoffset="25" transform="rotate(1, 400, 400)" opacity="0.23"></circle><circle r="198" cx="400" cy="400" stroke-width="8" stroke-dasharray="23 22" stroke-dashoffset="25" transform="rotate(178, 400, 400)" opacity="0.63"></circle><circle r="181.5" cx="400" cy="400" stroke-width="8" stroke-dasharray="39 14" stroke-dashoffset="25" transform="rotate(64, 400, 400)" opacity="0.15"></circle><circle r="165" cx="400" cy="400" stroke-width="8" stroke-dasharray="47 19" stroke-dashoffset="25" transform="rotate(55, 400, 400)" opacity="0.48"></circle><circle r="148.5" cx="400" cy="400" stroke-width="7" stroke-dasharray="47 49" stroke-dashoffset="25" transform="rotate(344, 400, 400)" opacity="0.15"></circle><circle r="132" cx="400" cy="400" stroke-width="7" stroke-dasharray="32 55" stroke-dashoffset="25" transform="rotate(68, 400, 400)" opacity="0.50"></circle><circle r="115.5" cx="400" cy="400" stroke-width="7" stroke-dasharray="20 14" stroke-dashoffset="25" transform="rotate(227, 400, 400)" opacity="0.24"></circle><circle r="99" cx="400" cy="400" stroke-width="6" stroke-dasharray="42 54" stroke-dashoffset="25" transform="rotate(214, 400, 400)" opacity="0.26"></circle><circle r="82.5" cx="400" cy="400" stroke-width="6" stroke-dasharray="46 32" stroke-dashoffset="25" transform="rotate(227, 400, 400)" opacity="0.18"></circle><circle r="66" cx="400" cy="400" stroke-width="6" stroke-dasharray="40 25" stroke-dashoffset="25" transform="rotate(212, 400, 400)" opacity="0.57"></circle><circle r="49.5" cx="400" cy="400" stroke-width="6" stroke-dasharray="27 30" stroke-dashoffset="25" transform="rotate(121, 400, 400)" opacity="0.25"></circle><circle r="33" cx="400" cy="400" stroke-width="5" stroke-dasharray="47 29" stroke-dashoffset="25" transform="rotate(174, 400, 400)" opacity="0.25"></circle><circle r="16.5" cx="400" cy="400" stroke-width="5" stroke-dasharray="20 49" stroke-dashoffset="25" transform="rotate(33, 400, 400)" opacity="0.34"></circle></g></svg>