<svg xmlns="http://www.w3.org/2000/svg" version="1.1" xmlns:xlink="http://www.w3.org/1999/xlink" xmlns:svgjs="http://svgjs.dev/svgjs" viewBox="0 0 800 800"><defs><linearGradient x1="50%" y1="0%" x2="50%" y2="100%" id="wwwhirl-grad"><stop stop-color="hsl(206, 75%, 49%)" stop-opacity="1" offset="45%"></stop><stop stop-color="hsl(331, 90%, 56%)" stop-opacity="1" offset="100%"></stop></linearGradient></defs><g stroke-width="2" stroke="url(#wwwhirl-grad)" fill="none" stroke-linecap="round"><path d="M37.00000251770027 416.41829478634145C50.75000289917 406.10579450023914 75.50000358581553 364.6495433501079 103.000004348755 366.9182934130504C130.50000511169446 369.1870434759929 141.5000054168703 432.6707952372387 169.00000617980973 427.30829508846546C196.5000069427492 421.9457949396923 207.50000724792503 336.64079257305406 235.00000801086446 341.17829269893906C262.500008773804 345.71579282482406 273.5000090789798 442.90079552105215 301.0000098419193 449.08829569271353C328.50001060485874 455.2757958643749 339.5000109100345 373.3532935915782 367.000011672974 370.8782935229137C394.50001243591345 368.40329345424914 405.5000127410893 439.8895454375103 433.0000135040287 437.2082953631237C460.5000142669682 434.5270452887371 471.50001457214404 353.470793039973 499.0000153350834 358.008293165858C526.5000160980228 362.54579329174305 537.5000164031987 460.01954599598196 565.0000171661382 458.98829596737176C592.5000179290777 457.95704593876155 603.5000182342535 356.5645431258037 631.000018997193 353.0582930285289C658.5000197601325 349.5520429312541 669.5000200653083 439.8895454375103 697.0000208282477 442.1582955004528C724.5000215911871 444.42704556339527 749.2500222778326 380.24204378269457 763.0000226593024 363.9482933306529 " transform="rotate(99, 400, 400)"></path><path d="M48.00000244140632 415.92078861942434C61.33333614464971 405.9207883419918 85.3333368104878 365.720787226713 112.00000421697456 367.92078728774817C138.6666716234613 370.1207873487833 149.33333858605602 431.680789056658 176.00000599254278 426.4807889123931C202.66667339902952 421.28078876812816 213.33334036162427 338.56078647320624 240.000007768111 342.96078659527655C266.6666751745978 347.36078671734685 277.3333421371925 441.60078933187106 304.00000954367925 447.6007894983306C330.66667695016605 453.6007896647901 341.3333439127607 374.16078746086606 368.00001131924745 371.76078739428226C394.66667872573424 369.3607873276984 405.33334568832896 438.6807892508608 432.00001309481576 436.0807891787283C458.66668050130244 433.48078910659586 469.3333474638972 354.8807869259761 496.0000148703839 359.2807870480464C522.6666822768707 363.68078717011673 533.3333492394653 458.20078979240907 560.0000166459522 457.20078976466584C586.666684052439 456.20078973692256 597.3333510150337 357.8807870092059 624.0000184215204 354.4807869148788C650.6666858280073 351.0807868205518 661.3333527906019 438.6807892508608 688.0000201970887 440.8807893118959C714.6666876035754 443.08078937293106 738.6666882694134 380.84078764619096 752.0000219726569 365.0407872078476 " transform="rotate(96, 400, 400)"></path><path d="M59.00000236511238 415.4232595643236C71.9166693901294 405.7357592955608 95.16667003516005 366.7920082151345 121.00000408519412 368.9232582742623C146.83333813522813 371.0545083333901 157.1666717552418 430.6907599878937 183.0000058052758 425.65325984813705C208.83333985530987 420.61575970838044 219.1666734753235 340.4807574851748 245.00000752535757 344.74325760343044C270.8333415753916 349.00575772168605 281.1666751954052 440.3007602545064 307.0000092454393 446.11326041576405C332.83334329547336 451.9257605770217 343.16667691548696 374.96825844197025 369.00001096552097 372.6432583774672C394.83334501555504 370.31825831296413 405.1666786355687 437.47201017602765 431.0000126856027 434.95326010614934C456.8333467356368 432.43451003627104 467.16668035565044 356.29075792379564 493.0000144056845 360.55325804205125C518.8333484557185 364.81575816030687 529.1666820757321 456.3820107006526 555.0000161257661 455.41326067377634C580.8333501758003 454.4445106469 591.1666837958139 359.1970080044245 617.000017845848 355.90325791304514C642.8333518958821 352.60950782166583 653.1666855158957 437.47201017602765 679.0000195659296 439.60326023515546C704.8333536159636 441.73451029428327 728.0833542609943 381.4395086215038 741.0000212860114 366.1332581968586 " transform="rotate(93, 400, 400)"></path><path d="M70.00000228881842 414.9257266945256C82.50000263560909 405.5507264344326 105.00000325983231 367.8632253888587 130.00000395341365 369.9257254460792C155.00000464699497 371.98822550329965 165.00000492442751 429.7007271044322 190.00000561800886 424.82572696918385C215.0000063115902 419.95072683393545 225.00000658902275 342.40072468244614 250.00000728260406 346.52572479688706C275.00000797618543 350.650724911328 285.000008253618 439.0007273624444 310.0000089471993 444.62572751850024C335.00000964078066 450.25072767455606 345.00000991821315 375.77572560837723 370.0000106117945 373.5257255459549C395.00001130537584 371.2757254835326 405.0000115828084 436.2632272864973 430.0000122763897 433.8257272188731C455.000012969971 431.3882271512489 465.0000132474036 357.7007251069179 490.00001394098496 361.8257252213588C515.0000146345662 365.95072533579975 525.0000149119987 454.56322779419884 550.0000156055801 453.6257277681895C575.0000162991615 452.68822774218023 585.000016576594 360.51322518494584 610.0000172701755 357.3257250965142C635.0000179637568 354.1382250080826 645.0000182411893 436.2632272864973 670.0000189347705 438.32572734371774C695.0000196283519 440.3882274009382 717.5000202525752 382.03822578211935 730.0000205993658 367.2257253711724 " transform="rotate(90, 400, 400)"></path><path d="M81.00000221252448 414.42819001003033C93.08333588108879 405.3656897586071 114.83333648450457 368.93443874788574 139.0000038216332 370.92818880319885C163.1666711587618 372.92193885851196 172.83333809361326 428.7106904062734 197.0000054307419 423.99819027553326C221.16667276787052 419.2856901447932 230.833339702722 344.3206880650202 255.00000703985063 348.3081881756464C279.16667437697924 352.29568828627265 288.83334131183074 437.7006906556852 313.00000864895935 443.13819080653917C337.16667598608797 448.57569095739314 346.8333429209394 376.58318896008694 371.000010258068 374.40818889974537C395.16667759519663 372.2331888394038 404.8333445300481 435.05444058226965 429.00001186717674 432.6981905168996C453.16667920430535 430.3419404515296 462.8333461391569 359.11068847534295 487.00001347628546 363.0981885859691C511.1666808134141 367.08568869659535 520.8333477482655 452.7444410730478 545.0000150853941 451.83819104790547C569.1666824225229 450.9319410227631 578.8333493573742 361.8294385507699 603.000016694503 358.748188465286C627.1666840316316 355.6669383798021 636.8333509664831 435.05444058226965 661.0000183036116 437.04819063758276C685.1666856407402 439.0419406928959 706.9166862441559 382.6369391280376 719.0000199127203 368.31818873078896 " transform="rotate(87, 400, 400)"></path><path d="M92.00000213623053 413.93066095492964C103.6666691265685 405.1806607121762 124.66666970917683 370.0056597363072 148.00000368985275 371.930659789713C171.33333767052864 373.85565984311876 180.666671262799 427.7206613375091 204.00000524347493 423.1706612112773C227.33333922415085 418.6206610850455 236.66667281642125 346.2406590769888 260.00000679709717 350.0906591838003C283.33334077777306 353.94065929061185 292.66667437004344 436.4006615783205 316.0000083507193 441.65066172397263C339.3333423313953 446.9006618696247 348.66667592366565 377.39065994119113 372.00000990434154 375.2906598829303C395.3333438850174 373.19065982466947 404.6666774772878 433.84566150743655 428.00001145796375 431.57066144432065C451.3333454386397 429.2956613812047 460.6666790309101 360.5206594731625 484.000013011586 364.37065957997396C507.33334699226185 368.2206596867855 516.6666805845323 450.9256619812913 540.0000145652082 450.05066195701596C563.3333485458841 449.1756619327406 572.6666821381544 363.1456595459885 596.0000161188304 360.1706594634523C619.3333500995063 357.19565938091614 628.6666836917767 433.84566150743655 652.0000176724526 435.7706615608423C675.3333516531285 437.695661614248 696.3333522357368 383.2356601033505 708.0000192260748 369.4106597198 " transform="rotate(84, 400, 400)"></path><path d="M103.00000205993659 413.43313952922347C114.25000237204819 404.9956392951397 134.5000029338491 371.07688835412324 157.00000355807228 372.93313840562166C179.50000418229547 374.7893884571201 188.5000044319848 426.7306398981393 211.00000505620795 422.3431397764158C233.50000568043117 417.9556396546923 242.50000593012047 348.1606377183519 265.0000065543437 351.87313782134873C287.5000071785669 355.5856379243456 296.5000074282562 435.10064013035037 319.0000080524794 440.1631402708006C341.5000086767026 445.2256404112508 350.50000892639184 378.1981385516899 373.00000955061506 376.1731384955098C395.5000101748383 374.1481384393297 404.5000104245276 432.636890061998 427.00001104875076 430.44314000113616C449.500011672974 428.2493899402744 458.5000119226633 361.93063810037654 481.00001254688647 365.6431382033733C503.50001317110963 369.35563830637017 512.5000134207988 449.10689051892933 535.0000140450221 448.26314049552093C557.5000146692455 447.4193904721126 566.5000149189347 364.46188817060164 589.0000155431579 361.5931380910132C611.5000161673811 358.7243880114247 620.5000164170704 432.636890061998 643.0000170412935 434.49314011349634C665.5000176655168 436.34939016499476 685.7500182273176 383.8343887080578 697.0000185394292 370.50313833820553 " transform="rotate(81, 400, 400)"></path><path d="M114.00000198364263 412.93562954760904C124.83333561752788 404.8106293221951 144.33333615852135 372.1481284160311 166.0000034262918 373.93562846562213C187.6666706940623 375.7231285152132 196.3333376011705 425.7406299028614 218.000004868941 421.5156297856462C239.6666721367115 417.29062966843094 248.3333390438197 350.0806278038068 270.0000063115902 353.65562790298895C291.6666735793607 357.2306280021711 300.33334048646896 433.800630126472 322.0000077542394 438.67563026172036C343.6666750220099 443.55063039696876 352.3333419291181 379.0056286062804 374.0000091968886 377.0556285521811C395.6666764646591 375.1056284980818 404.3333433717673 431.42813006065114 426.0000106395378 429.3156300020435C447.66667790730827 427.2031299434359 456.3333448144165 363.3406281716824 478.00001208218697 366.9156282708645C499.66667934995746 370.49062837004664 508.33334625706556 447.2881305006591 530.0000135248362 446.47563047811775C551.6666807926067 445.6631304555764 560.3333476997147 365.77812823930657 582.0000149674854 363.01562816266585C603.6666822352558 360.2531280860251 612.3333491423641 431.42813006065114 634.0000164101345 433.2156301102422C655.666683677905 435.0031301598333 675.1666842188985 384.43312875685695 686.0000178527837 371.59562840070294 " transform="rotate(78, 400, 400)"></path><path d="M125.00000190734869 412.43810812190287C135.41666886300757 404.6256079051587 154.1666693831936 373.21935703384713 175.00000329451137 374.93810708153086C195.83333720582914 376.6568571292146 204.16667077035626 424.75060846349163 225.00000468167406 420.68810835078466C245.83333859299182 416.62560823807775 254.16667215751897 352.00060644517 275.00000606883674 355.4381065405374C295.8333399801545 358.87560663590483 304.16667354468166 432.50060867850186 325.0000074559994 437.18810880854835C345.8333413673172 441.8756089385949 354.16667493184434 379.8131072167792 375.00000884316205 377.9381071647606C395.8333427544799 376.063107112742 404.166676319007 430.21935861521257 425.0000102303248 428.1881085588591C445.83334414164256 426.1568585025056 454.1666777061697 364.75060679889646 475.0000116174875 368.1881068942639C495.83334552880524 371.6256069896313 504.1666790933323 445.46935903829717 525.0000130046501 444.6881090166228C545.8333469159679 443.9068589949484 554.166680480495 367.0943568639197 575.0000143918128 364.4381067902267C595.8333483031306 361.78185671653364 604.1666818676579 430.21935861521257 625.0000157789755 431.9381086628963C645.8333496902933 433.65685871057997 664.5833502104794 385.0318573615643 675.0000171661382 372.68810701910854 " transform="rotate(75, 400, 400)"></path><path d="M136.00000183105476 411.9405828814994C146.00000210848728 404.44058267342496 164.00000260786584 374.2905818369659 184.00000316273093 375.94058188274226C204.00000371759597 377.59058192851865 212.000003939542 423.7605832094247 232.00000449440708 419.860583101226C252.00000504927215 415.9605829930273 260.0000052712182 353.92058127183583 280.0000058260833 357.22058136338853C300.0000063809483 360.5205814549413 308.00000660289436 431.20058341583444 328.00000715775946 435.7005835406791C348.00000771262455 440.2005836655237 356.00000793457053 380.6205820125807 376.0000084894356 378.82058196264285C396.00000904430067 377.020581912705 404.0000092662467 429.01058335507673 424.0000098211118 427.0605833009774C444.0000103759769 425.11058324687804 452.0000105979229 366.16058161141325 472.000011152788 369.460581702966C492.000011707653 372.7605817945187 500.00001192959905 443.65058376123795 520.0000124844642 442.90058374043053C540.0000130393292 442.15058371962306 548.0000132612753 368.41058167383557 568.0000138161404 365.8605816030903C588.0000143710055 363.310581532345 596.0000145929514 429.01058335507673 616.0000151478165 430.6605834008531C636.0000157026815 432.3105834466295 654.00001620206 385.6305821515744 664.0000164794926 373.7805818228168 " transform="rotate(72, 400, 400)"></path><path d="M146.9999864959717 411.4430385676096C156.5833200951779 404.25553836820495 173.83332057374906 375.3617875665983 192.9999877721614 376.94303761046734C212.16665497057375 378.5242876543364 219.8333218499387 422.7705388818713 238.99998904835104 419.0330387781809C258.1666562467634 415.2955386744905 265.8333231261284 355.84053702501535 284.9999903245407 359.0030371127534C304.1666575229531 362.1655372004914 311.83332440231806 429.9005390796807 330.9999916007304 434.2130391993235C350.1666587991428 438.52553931896625 357.83332567850766 381.42803773489584 376.99999287692003 379.7030376870387C396.1666600753324 377.97803763918165 403.8333269546974 427.80178902145457 422.99999415310975 425.93303896960936C442.1666613515221 424.06428891776415 449.83332823088705 367.5705373504437 468.9999954292994 370.7330374381818C488.16666262771173 373.8955375259198 495.83332950707666 441.8317894106924 514.9999967054891 441.11303939075196C534.1666639039015 440.39428937081146 541.8333307832664 369.7267874102651 560.9999979816788 367.28303734246754C580.1666651800912 364.83928727466997 587.8333320594561 427.80178902145457 606.9999992578685 429.3830390653236C626.1666664562807 430.9642891091926 643.4166669348518 386.22928786809814 653.000000534058 374.87303755303884 " transform="rotate(69, 400, 400)"></path><path d="M157.99998641967778 410.9455362153898C167.1666533406576 404.07053602465487 183.6666537984213 376.4330352579007 201.99998764038094 377.9455352998624C220.33332148234058 379.45803534182403 227.66665501912445 421.7805365159879 245.9999888610841 418.2055364168058C264.33332270304373 414.63053631762364 271.6666562398276 357.7605347398648 289.99999008178725 360.78553482378817C308.3333239237469 363.8105349077115 315.6666574605308 428.6005367051969 333.99999130249046 432.7255368196378C352.3333251444501 436.8505369340787 359.6666586812339 382.23553541888094 377.99999252319355 380.58553537310456C396.3333263651532 378.9355353273282 403.6666599019371 426.5930366495023 421.99999374389677 424.80553659991125C440.3333275858564 423.0180365503202 447.6666611226403 368.9805350511441 465.9999949645999 372.0055351350675C484.3333288065595 375.0305352189908 491.6666623433434 440.0130370218168 509.9999961853031 439.32553700274326C528.3333300272627 438.6380369836698 535.6666635640465 371.04303510836456 553.9999974060063 368.7055350435147C572.3333312479659 366.36803497866487 579.6666647847499 426.5930366495023 597.9999986267094 428.10553669146395C616.3333324686689 429.61803673342564 632.8333329264326 386.8280355462918 641.9999998474125 375.9655352449307 " transform="rotate(66, 400, 400)"></path><path d="M168.99998634338385 410.448007160289C177.7499865861373 403.88550697822393 193.49998702309355 377.5042562463222 210.9999875086005 378.94800628637654C228.4999879941074 380.3917563264309 235.49998818831023 420.7905074472236 252.99998867381714 417.3780073525498C270.49998915932406 413.9655072578759 277.49998935352687 359.6805057518334 294.9999898390338 362.56800583194206C312.4999903245407 365.4555059120507 319.4999905187435 427.3005076278322 336.99999100425043 431.23800773707126C354.49999148975735 435.1755078463103 361.49999168396016 383.04300639998513 378.9999921694671 381.46800635628955C396.49999265497405 379.8930063125939 403.4999928491768 425.3842575746692 420.9999933346837 423.6780075273323C438.4999938201907 421.97175747999535 445.4999940143935 370.39050604896363 462.9999944999004 373.2780061290723C480.4999949854073 376.16550620918093 487.4999951796101 438.1942579300603 504.99999566511707 437.53800791185375C522.4999961506239 436.88175789364726 529.4999963448267 372.35925610358316 546.9999968303338 370.12800604168103C564.4999973158407 367.8967559797789 571.4999975100434 425.3842575746692 588.9999979955503 426.8280076147235C606.4999984810572 428.27175765477784 622.2499989180135 387.42675652160466 630.999999160767 377.0580062339418 " transform="rotate(63, 400, 400)"></path><path d="M179.9999862670899 409.95048191988553C188.33331983161702 403.7004817464902 203.3333202477658 378.575481049441 219.99998737682003 379.95048108758795C236.66665450587425 381.32548112573494 243.33332135749595 419.8004821931566 259.9999884865502 416.55048210299105C276.6666556156044 413.30048201282546 283.33332246722614 361.60048057849923 299.99998959628033 364.3504806547932C316.6666567253345 367.10048073108715 323.3333235769563 426.00048236516477 339.9999907060105 429.750482469202C356.6666578350647 433.5004825732392 363.3333246866864 383.85048119578664 379.9999918157406 382.35048115417175C396.6666589447948 380.8504811125569 403.33332579641655 424.1754823145333 419.9999929254708 422.5504822694505C436.666660054525 420.9254822243678 443.3333269061467 371.8004808614804 459.9999940352009 374.5504809377744C476.6666611642551 377.30048101406834 483.33332801587676 436.37548265300103 499.99999514493106 435.7504826356615C516.6666622739854 435.12548261832194 523.333329125607 373.67548091349903 539.9999962546613 371.5504808545446C556.6666633837156 369.4254807955902 563.3333302353371 424.1754823145333 579.9999973643913 425.5504823526803C596.6666644934455 426.92548239082726 611.6666649095944 388.0254813116147 619.9999984741214 378.1504810376501 " transform="rotate(60, 400, 400)"></path><path d="M190.99998619079594 409.4529681235739C198.9166530770967 403.5154679588483 213.16665347243807 379.64671729665156 228.99998724503956 380.95296733289115C244.83332101764108 382.2592173691308 251.1666545266817 418.8104683831814 266.99998829928325 415.7229682975241C282.8333220718847 412.6354682118668 289.16665558092535 363.5204668492569 304.99998935352687 366.13296692173617C320.83332312612833 368.7454669942154 327.166656635169 424.70046854658915 342.9999904077705 428.2629686454245C358.833324180372 431.82546874425987 365.1666576894126 384.65796743567995 380.9999914620141 383.2329673961458C396.8333252346156 381.80796735661164 403.1666587436563 422.9667184984893 418.99999251625775 421.4229684556606C434.83332628885927 419.87921841283196 441.1666597978999 373.210467118089 456.99999357050143 375.8229671905683C472.8333273431029 378.43546726304754 479.1666608521435 434.5567188200336 494.99999462474506 433.962968803561C510.8333283973466 433.36921878708847 517.1666619063872 374.9917171675067 532.9999956789886 372.9729671115C548.8333294515903 370.9542170554933 555.1666629606309 422.9667184984893 570.9999967332324 424.27296853472893C586.8333305058338 425.5792185709685 601.0833309011753 388.6242175457166 608.9999977874759 379.2429672854502 " transform="rotate(57, 400, 400)"></path><path d="M201.999986114502 408.9554276243814C209.49998632257638 403.3304274683256 222.99998669711033 380.71792684098125 237.99998711325912 381.95542687531355C252.99998752940792 383.1929269096458 258.99998769586745 417.8204278703253 273.99998811201624 414.8954277891763C288.9999885281651 411.9704277080273 294.99998869462456 365.4404264171337 309.9999891107734 367.91542648579826C324.9999895269222 370.3904265544628 330.99998969338174 423.40042802513267 345.99999010953053 426.7754281187662C360.9999905256793 430.1504282123996 366.9999906921388 385.46542697269234 381.99999110828765 384.115426935239C396.99999152443644 382.7654268977856 402.99999169089597 421.7579279795644 417.99999210704476 420.29542793898986C432.99999252319355 418.83292789841533 438.99999268965314 374.62042667181674 453.99999310580193 377.09542674048134C468.9999935219507 379.5704268091459 474.9999936884102 432.7379282841853 489.99999410455905 432.1754282685797C504.9999945207079 431.61292825297414 510.9999946871674 376.3079267186335 525.9999951033162 374.3954266655745C540.9999955194651 372.48292661251554 546.9999956859245 421.7579279795644 561.9999961020733 422.9954280138967C576.9999965182221 424.2329280482289 590.499996892756 389.22292707693765 597.9999971008303 380.33542683036944 " transform="rotate(54, 400, 400)"></path><path d="M212.99998603820805 408.45792336481287C220.08331956805608 403.14542321742687 232.8333199217826 381.78917262493496 246.99998698147868 382.9579226573599C261.16665404117475 384.12667268978487 266.8333208650532 416.8304235970933 280.9999879247493 414.06792352045255C295.16665498444536 411.3054234438118 300.83332180832383 367.36042222463453 314.99998886801995 369.6979222894844C329.166655927716 372.03542235433423 334.83332275159444 422.1004237433002 348.99998981129056 425.28792383173186C363.1666568709866 428.47542392016345 368.83332369486504 386.2729227493288 382.99999075456117 384.99792271395614C397.16665781425723 383.72292267858353 402.8333246381357 420.5491737002635 416.9999916978318 419.1679236619431C431.1666587575279 417.78667362362273 436.8333255814063 376.0304224651685 450.99999264110244 378.3679225300184C465.1666597007985 380.70542259486825 470.8333265246769 430.919173987961 484.99999358437304 430.3879239732224C499.16666064406917 429.85667395848384 504.8333274679476 377.6241725093843 518.9999945276437 375.81792245927306C533.1666615873398 374.01167240916186 538.8333284112182 420.5491737002635 552.9999954709143 421.7179237326884C567.1666625306103 422.88667376511336 579.9166628843368 389.8216728477827 586.9999964141849 381.42792261491275 " transform="rotate(51, 400, 400)"></path><path d="M223.9999859619141 407.9603885876663C230.6666528135358 402.96038844894997 242.66665314645485 382.8603878913106 255.99998684969822 383.96038792182816C269.3333205529416 385.06038795234576 274.66665403423895 415.8403888062831 287.99998773748234 413.24038873415066C301.3333214407257 410.64038866201815 306.6666549220231 369.2803875145572 319.99998862526644 371.4803875755924C333.33332232850984 373.68038763662753 338.6666558098072 420.80038894388963 351.99998951305054 423.8003890271194C365.33332321629393 426.80038911034916 370.6666566975913 387.0803880083871 383.9999904008347 385.88038797509523C397.3333241040781 384.6803879418033 402.66665758537545 419.3403889033845 415.99999128861884 418.04038886731826C429.3333249918621 416.740388831252 434.66665847315954 377.4403877409422 447.9999921764029 379.64038780197734C461.3333258796463 381.8403878630125 466.6666593609436 429.10038917415864 479.99999306418704 428.600389160287C493.33332676743044 428.1003891464154 498.6666602487278 378.940387782557 511.99999395197113 377.2403877353935C525.3333276552146 375.54038768823 530.666661136512 419.3403889033845 543.9999948397553 420.44038893390206C557.3333285429986 421.54038896441966 569.3333288759177 390.4203881010496 575.9999957275394 382.5203878818779 " transform="rotate(48, 400, 400)"></path><path d="M234.99998588562016 407.4628652546114C241.2499860590155 402.7753651245649 252.49998637112708 383.931614601778 264.99998671791775 384.96286463038825C277.4999870647084 385.99411465899846 282.49998720342467 414.8503654595647 294.99998755021534 412.41286539194056C307.499987897006 409.9753653243164 312.4999880357223 371.2003642485717 324.999988382513 373.26286430579216C337.49998872930365 375.3253643630126 342.49998886801995 419.50036558857084 354.9999892148106 422.3128656665988C367.4999895616013 425.12536574462666 372.49998970031754 387.88786471153725 384.9999900471082 386.76286468032606C397.4999903938989 385.63786464911493 402.49999053261513 418.1316155505973 414.9999908794058 416.9128655167852C427.49999122619647 415.6941154829731 432.4999913649127 378.8503644608076 444.9999917117034 380.9128645180281C457.49999205849406 382.97536457524853 462.4999921972103 427.28161580444805 474.999992544001 426.8128657914434C487.4999928907917 426.3441157784387 492.49999302950795 380.2566144998215 504.9999933762987 378.66286445560576C517.4999937230893 377.06911441138993 522.4999938618056 418.1316155505973 534.9999942085963 419.1628655792075C547.4999945553868 420.1941156078177 558.7499948674986 391.0191147984083 564.9999950408939 383.61286459293484 " transform="rotate(45, 400, 400)"></path><path d="M245.9999858093262 406.96534382890525C251.83331930449518 402.5903437075285 262.33331959579937 385.002843219594 273.9999865861373 385.9653432462969C285.66665357647526 386.9278432729998 290.33332037261044 413.860344020195 301.9999873629484 411.5853439570791C313.6666543532864 409.3103438939632 318.3333211494216 373.1203428899348 329.9999881397595 375.0453429433406C341.66665513009747 376.97034299674635 346.33332192623266 418.2003441406007 357.9999889165706 420.8253442134267C369.66665590690855 423.4503442862528 374.3333227030438 388.695343322036 385.99998969338174 387.6453432929056C397.6666566837197 386.5953432637752 402.3333234798548 416.9228441051587 413.9999904701928 415.78534407360075C425.6666574605308 414.6478440420428 430.33332425666595 380.26034308802167 441.99999124700395 382.18534314142744C453.66665823734184 384.1103431948332 458.3333250334771 425.4628443420861 469.999992023815 425.0253443299484C481.66665901415297 424.5878443178107 486.33332581028816 381.57284312443466 497.99999280062616 380.0853430831666C509.6666597909641 378.5978430418985 514.3333265870992 416.9228441051587 525.9999935774372 417.8853441318616C537.6666605677751 418.84784415856444 548.1666608590793 391.61784340311567 553.9999943542483 384.7053432113404 " transform="rotate(42, 400, 400)"></path><path d="M256.99998573303225 406.4678128664559C262.41665254997486 402.40531275374894 272.1666528204716 386.0740623006669 282.9999864543569 386.96781232546243C293.8333200882421 387.861562350258 298.1666535417962 412.8703130440821 308.99998717568144 410.75781298547446C319.83332080956666 408.64531292686684 324.1666542631208 375.04031199455477 334.999987897006 376.82781204414584C345.8333215308913 378.6153120937369 350.1666549844454 416.9003131558874 360.99998861833063 419.33781322351155C371.8333222522159 421.7753132911357 376.16665570577 389.5028123957916 386.99998933965526 388.52781236874193C397.8333229735405 387.55281234169223 402.1666564270946 415.71406312297694 412.9999900609798 414.65781309367316C423.83332369486504 413.6015630643693 428.1666571484192 381.67031217849257 438.9999907823044 383.45781222808364C449.83332441618967 385.24531227767466 454.16665786974374 423.6440633429809 464.999991503629 423.23781333171024C475.8333251375143 422.83156332043956 480.1666585910683 382.8890622123047 490.99999222495364 381.5078121739843C501.83332585883886 380.1265621356639 506.166659312393 415.71406312297694 516.9999929462782 416.6078131477725C527.8333265801634 417.501563172568 537.5833268506601 392.21656247107984 542.9999936676028 385.79781229300283 " transform="rotate(39, 400, 400)"></path><path d="M267.9999856567383 405.97028953340106C272.99998579545456 402.22028942936385 281.9999860451438 387.1452890111343 291.99998632257643 387.97028903402247C301.9999866000089 388.7952890569107 305.99998671098194 411.8802896973637 315.9999869884145 409.93028964326436C325.99998726584704 407.980289589165 329.99998737682006 376.96028872856925 339.99998765425255 378.61028877434563C349.9999879316851 380.260288820122 353.9999880426581 415.6002898005686 363.99998832009067 417.8502898629909C373.9999885975232 420.1002899254132 377.9999887084962 390.3102890989417 387.9999889859287 389.41028907397276C397.9999892633613 388.51028904900386 401.9999893743343 414.50528977018973 411.99998965176684 413.5302897431401C421.9999899291994 412.5552897160904 425.9999900401724 383.080288898358 435.9999903176049 384.7302889441344C445.99999059503745 386.3802889899107 449.99999070601046 421.82528997327034 459.999990983443 421.45028996286663C469.99999126087556 421.0752899524629 473.9999913718486 384.2052889295692 483.9999916492811 382.9302888941965C493.9999919267137 381.65528885882384 497.99999203768664 414.50528977018973 507.9999923151192 415.3302897930779C517.9999925925517 416.1552898159661 526.999992842241 392.81528916843854 531.9999929809572 386.8902890040598 " transform="rotate(36, 400, 400)"></path><path d="M279.0000008392334 405.472762385649C283.58333429972333 402.03526229028154 291.8333345286052 388.21651190690443 301.000001449585 388.9727619278853C310.1666683705648 389.7290119488661 313.8333351389567 410.89026253594807 323.0000020599366 409.102762486357C332.16666898091637 407.3152624367659 335.83333574930833 378.8802616478865 345.00000267028815 380.39276168984816C354.166669591268 381.90526173180984 357.83333635965994 414.30026263055254 367.00000328063976 416.362762687773C376.1666702016196 418.42526274499346 379.8333369700115 391.1177619873946 389.0000038909913 390.2927619645064C398.16667081197113 389.4677619416182 401.8333375803631 413.29651260270526 411.0000045013429 412.4027625779097C420.16667142232274 411.5090125531142 423.8333381907147 384.49026180352615 433.00000511169446 386.00276184548784C442.1666720326743 387.51526188744947 445.83333880106625 420.0065127888625 455.00000572204607 419.66276277932576C464.1666726430259 419.31901276978897 467.8333394114178 385.5215118321364 477.0000063323977 384.35276179971146C486.1666732533775 383.1840117672865 489.83334002176946 413.29651260270526 499.0000069427492 414.0527626236861C508.166673863729 414.80901264466695 516.4166740926108 393.41401205110003 521.0000075531008 387.98276190041946 " transform="rotate(33, 400, 400)"></path><path d="M290.00000076293946 404.97524095994277C294.16666754520304 401.8502408732451 301.66666775327747 389.2877405247205 310.00000131780456 389.975240543794C318.33333488233166 390.66274056286744 321.6666683081425 409.90024109657827 330.0000018726696 408.2752410514955C338.33333543719675 406.6502410064127 341.6666688630076 380.80024028924964 350.0000024275347 382.1752403273966C358.3333359920618 383.5502403655436 361.66666941787264 413.0002411825824 370.0000029823998 414.875241234601C378.3333365469269 416.7502412866196 381.66666997273774 391.9252405978933 390.00000353726483 391.1752405770859C398.3333371017919 390.4252405562784 401.66667052760283 412.0877411572667 410.0000040921299 411.27524113472526C418.333337656657 410.4627411121839 421.6666710824679 385.9002404307402 430.00000464699497 387.2752404688872C438.3333382115221 388.65024050703414 441.6666716373329 418.1877413265005 450.00000520186006 417.8752413178307C458.3333387663872 417.56274130916097 461.666672192198 386.83774045674954 470.00000575672516 385.7752404272723C478.3333393212523 384.71274039779513 481.6666727470631 412.0877411572667 490.0000063115902 412.77524117634016C498.3333398761173 413.4627411954136 505.8333400841917 394.01274065580736 510.00000686645524 389.07524051882507 " transform="rotate(30, 400, 400)"></path><path d="M301.00000068664554 404.47771190484207C304.75000079068275 401.66521182681413 311.5000009779497 390.358961513142 319.00000118602406 390.9777115303081C326.5000013940985 391.5964615474743 329.5000014773283 408.91021202781405 337.00000168540265 407.44771198723953C344.5000018934771 405.985211946665 347.5000019767068 382.7202113012182 355.00000218478124 383.95771133555047C362.50000239285566 385.19521136988277 365.5000024760854 411.7002121052177 373.00000268415977 413.38771215203445C380.5000028922342 415.0752121988512 383.50000297546393 392.73271157899757 391.00000318353835 392.05771156027083C398.5000033916127 391.38271154154415 401.5000034748425 410.87896208243353 409.00000368291694 410.1477120621463C416.5000038909913 409.41646204185906 419.5000039742211 387.31021142855974 427.00000418229547 388.54771146289204C434.5000043903699 389.7852114972243 437.50000447359963 416.368962234744 445.00000468167406 416.0877122269412C452.5000048897485 415.80646221913844 455.5000049729782 388.15396145196814 463.00000518105264 387.1977114254386C470.50000538912707 386.24146139890917 473.5000054723568 410.87896208243353 481.0000056804312 411.4977120995997C488.5000058885056 412.11646211676583 495.25000607577255 394.61146163112016 499.0000061798097 390.1677115078361 " transform="rotate(27, 400, 400)"></path><path d="M312.00000061035155 403.98019047913584C315.33333403616246 401.4801904097777 321.3333342026219 391.430190130958 328.0000010542436 391.98019014621684C334.6666679058653 392.5301901614756 337.333334646514 407.92019058844426 344.0000014981357 406.62019055237806C350.6666683497574 405.3201905163118 353.3333350904061 384.64018994258134 360.0000019420278 385.74018997309895C366.6666687936495 386.8401900036165 369.33333553429816 410.40019065724755 376.0000023859198 411.90019069886245C382.6666692375415 413.40019074047734 385.3333359781902 393.5401901894963 392.0000028298119 392.94019017285035C398.6666696814336 392.3401901562044 401.33333642208225 409.67019063699496 408.00000327370395 409.02019061896186C414.6666701253256 408.37019060092877 417.3333368659743 388.7201900557738 424.000003717596 389.8201900862914C430.6666705692177 390.92019011680895 433.33333730986635 414.55019077238205 440.00000416148805 414.30019076544625C446.66667101310975 414.05019075851044 449.3333377537584 389.4701900765813 456.0000046053801 388.6201900529995C462.6666714570018 387.77019002941773 465.3333381976505 409.67019063699496 472.0000050492722 410.2201906522538C478.66667190089385 410.77019066751257 484.6666720673534 395.21019023582755 488.0000054931642 391.2601901262417 " transform="rotate(24, 400, 400)"></path><path d="M323.0000005340576 403.4826757291499C325.9166672816421 401.2951756684615 331.1666674272942 392.5014254244943 337.0000009224632 392.9826754378457C342.83333441763216 393.46392545119716 345.1666678156997 406.93017582479473 351.0000013108687 405.7926757932368C356.8333348060377 404.65517576167883 359.16666820410535 386.5601752596647 365.0000016992743 387.52267528636753C370.8333351944433 388.48517531307044 373.16666859251086 409.1001758849976 379.00000208767983 410.41267592141065C384.8333355828488 411.72517595782364 387.1666689809164 394.3476754757153 393.0000024760854 393.8226754611501C398.83333597125437 393.29767544658483 401.16666936932194 408.4614258672766 407.00000286449097 407.89267585149764C412.83333635965994 407.3239258357187 415.1666697577275 390.1301753587081 421.0000032528965 391.092675385411C426.83333674806545 392.05517541211384 429.1666701461331 412.7314259857403 435.00000364130204 412.5126759796715C440.833337136471 412.29392597360265 443.16667053453864 390.7864253769146 449.0000040297076 390.04267535628054C454.8333375248766 389.2989253356465 457.16667092294415 408.4614258672766 463.0000044181131 408.94267588062803C468.8333379132821 409.4239258939795 474.0833380589342 395.8089255162551 477.0000048065187 392.35267542036746 " transform="rotate(21, 400, 400)"></path><path d="M334.0000004577637 402.98514190567755C336.5000005271218 401.110141853659 341.00000065196645 393.5726416445442 346.00000079068275 393.9851416559883C351.000000929399 394.39764166743237 353.0000009848855 405.9401419876589 358.0000011236018 404.96514196060923C363.00000126231805 403.9901419335595 365.00000131780456 388.4801415032617 370.0000014565208 389.3051415261499C375.0000015952371 390.13014154903806 377.00000165072356 407.80014203926135 382.00000178943986 408.92514207047253C387.00000192815617 410.05014210168366 389.0000019836426 395.1551416884479 394.00000212235886 394.70514167596343C399.00000226107517 394.255141663479 401.0000023165617 407.2526420240719 406.0000024552779 406.7651420105471C411.0000025939942 406.2776419970222 413.00000264948073 391.5401415881561 418.000002788197 392.36514161104424C423.0000029269132 393.1901416339324 425.0000029823998 410.91264212561225 430.00000312111604 410.7251421204104C435.0000032598323 410.5376421152085 437.00000331531885 392.10264160376164 442.0000034540351 391.46514158607533C447.00000359275134 390.82764156838897 449.00000364823785 407.2526420240719 454.00000378695415 407.665142035516C459.0000039256704 408.0776420469601 463.50000405051503 396.4076417231963 466.00000411987315 393.44514164100696 " transform="rotate(18, 400, 400)"></path><path d="M344.99999656677244 402.48762238732C347.08332995790425 400.92512234397117 350.83333006194147 394.64387216970886 354.99999684420504 394.9876221792456C359.16666362646856 395.3313721887824 360.833330339374 404.95012245563777 364.99999712163753 404.1376224330964C369.1666639039011 403.32512241055497 370.8333306168065 390.4001220519734 374.9999973990701 391.08762207104695C379.16666418133366 391.7751220901204 380.83333089423905 406.5001224986398 384.99999767650263 407.4376225246491C389.16666445876615 408.37512255065843 390.8333311716716 395.9626222062953 394.9999979539351 395.5876221958916C399.1666647361987 395.2126221854879 400.83333144910415 406.043872485982 404.9999982313677 405.6376224747113C409.16666501363125 405.23137246344055 410.8333317265367 392.95012212271877 414.9999985088002 393.63762214179224C419.1666652910638 394.3251221608657 420.8333320039692 409.0938725705989 424.99999878623277 408.937622566264C429.16666556849634 408.7813725619291 430.83333228140174 393.4188721357234 434.9999990636653 392.8876221209848C439.1666658459289 392.35637210624617 440.8333325588343 406.043872485982 444.9999993410978 406.3876224955187C449.1666661233614 406.73137250505545 452.9166662273986 397.00637223525234 454.99999961853035 394.53762216676114 " transform="rotate(15, 400, 400)"></path><path d="M355.9999964904785 401.99009523956795C357.66666320338396 400.74009520488886 360.6666632866137 395.71509506547903 363.99999671242455 395.9900950731084C367.3333301382354 396.2650950807378 368.66666350855974 403.9600952942221 371.9999969343706 403.31009527618903C375.33333036018144 402.66009525815593 376.6666637305058 392.3200949712907 379.9999971563166 392.8700949865495C383.3333305821275 393.42009500180825 384.6666639524518 405.2000953286238 387.9999973782626 405.9500953494312C391.3333308040735 406.70009537023867 392.66666417439785 396.77009509474817 395.99999760020864 396.4700950864252C399.33333102601955 396.1700950781022 400.6666643963439 404.8350953184975 403.9999978221547 404.5100953094809C407.33333124796553 404.18509530046435 408.6666646182899 394.3600950278869 411.9999980441007 394.9100950431457C415.33333146991157 395.4600950584045 416.6666648402359 407.275095386191 419.99999826604676 407.1500953827231C423.3333316918576 407.0250953792552 424.66666506218195 394.73509503829064 427.9999984879928 394.31009502649977C431.33333191380365 393.88509501470884 432.666665284128 404.8350953184975 435.99999870993884 405.1100953261269C439.33333213574963 405.3850953337563 442.3333322189794 397.6050951179138 443.9999989318849 395.63009506312085 " transform="rotate(12, 400, 400)"></path><path d="M366.9999964141846 401.4925719065131C368.2499964488636 400.5550718805038 370.499996511286 396.7863217759464 372.9999965806441 396.99257178166846C375.49999665000223 397.1988217873905 376.49999667774546 402.97007194750375 378.99999674710364 402.48257193397893C381.49999681646176 401.9950719204541 382.49999684420504 394.2400717053052 384.9999969135631 394.65257171674926C387.4999969829213 395.06507172819335 388.4999970106645 403.900071973305 390.9999970800227 404.46257198891055C393.4999971493808 405.0250720045161 394.49999717712404 397.57757179789826 396.99999724648217 397.35257179165603C399.49999731584035 397.1275717854138 400.4999973435836 403.6263219657103 402.9999974129417 403.38257195894784C405.4999974822998 403.1388219521854 406.4999975100431 395.77007174775235 408.9999975794012 396.18257175919643C411.49999764875935 396.5950717706405 412.49999767650263 405.45632201648044 414.99999774586075 405.3625720138795C417.4999978152189 405.2688220112786 418.49999784296216 396.05132175555514 420.9999979123203 395.732571746712C423.4999979816784 395.41382173786883 424.4999980094217 403.6263219657103 426.9999980787798 403.83257197143234C429.49999814813793 404.0388219771544 431.74999821056025 398.2038218152725 432.99999824523934 396.72257177417777 " transform="rotate(9, 400, 400)"></path><path d="M378.0000001525879 400.9950485734583C378.8333335090406 400.3700485561187 380.3333335506555 397.8575484864138 382.0000002635609 397.9950484902285C383.66666697646633 398.13254849404325 384.3333336616285 401.9800486007854 386.0000003745339 401.65504859176883C387.66666708743935 401.3300485827523 388.3333337726015 396.16004843931967 390.0000004855069 396.43504844694905C391.66666719841237 396.71004845457844 392.33333388357454 402.6000486179862 394.00000059647994 402.9750486283899C395.6666673093854 403.3500486387936 396.33333399454756 398.3850485010484 398.00000070745295 398.2350484968869C399.6666674203584 398.08504849272543 400.3333341055206 402.41754861292304 402.000000818426 402.25504860841477C403.6666675313314 402.0925486039065 404.33333421649354 397.1800484676178 406.000000929399 397.45504847524717C407.66666764230445 397.73004848287655 408.33333432746656 403.6375486467698 410.000001040372 403.57504864503585C411.66666775327747 403.5125486433019 412.3333344384396 397.36754847281964 414.00000115134503 397.1550484669242C415.6666678642505 396.94254846102876 416.3333345494126 402.41754861292304 418.00000126231805 402.55504861673774C419.66666797522345 402.69254862055243 421.16666801683834 398.8025485126312 422.00000137329107 397.81504848523474 " transform="rotate(6, 400, 400)"></path><path d="M389.00000007629393 400.49752524040343C389.4166667545203 400.1850252317337 390.1666667753277 398.92877519688125 391.00000013178044 398.9975251987886C391.83333348823317 399.06627520069594 392.1666668308143 400.990025254067 393.00000018726695 400.82752524955873C393.8333335437197 400.66502524505046 394.16666688630073 398.08002517333415 395.00000024275346 398.21752517714884C395.8333335992062 398.35502518096354 396.1666669417873 401.3000252626674 397.00000029823997 401.4875252678693C397.8333336546927 401.6750252730711 398.16666699727375 399.1925252041985 399.0000003537265 399.11752520211775C399.8333337101792 399.042525200037 400.16666705276026 401.20877526013584 401.000000409213 401.1275252578817C401.8333337656657 401.04627525562756 402.16666710824677 398.5900251874832 403.0000004646995 398.7275251912979C403.8333338211522 398.8650251951126 404.1666671637333 401.8187752770592 405.000000520186 401.78752527619224C405.83333387663873 401.75627527532527 406.1666672192198 398.68377519008413 407.0000005756725 398.5775251871364C407.83333393212524 398.4712751841887 408.1666672747063 401.20877526013584 409.000000631159 401.2775252620432C409.8333339876117 401.34627526395053 410.5833340084192 399.40127520998993 411.00000068664554 398.90752519629166 " transform="rotate(3, 400, 400)"></path></g></svg>