<svg xmlns="http://www.w3.org/2000/svg" version="1.1" xmlns:xlink="http://www.w3.org/1999/xlink" xmlns:svgjs="http://svgjs.dev/svgjs" viewBox="0 0 800 800"><g fill="none" stroke-width="3" stroke="hsl(305, 77%, 40%)" stroke-linecap="round"><line x1="228" y1="400" x2="572" y2="400" transform="rotate(0, 400, 400)" opacity="0.64"></line><line x1="722.5" y1="400" x2="77.5" y2="400" transform="rotate(4, 400, 400)" opacity="0.56"></line><line x1="237.5" y1="400" x2="562.5" y2="400" transform="rotate(8, 400, 400)" opacity="0.08"></line><line x1="492.5" y1="400" x2="307.5" y2="400" transform="rotate(12, 400, 400)" opacity="0.14"></line><line x1="557.5" y1="400" x2="242.5" y2="400" transform="rotate(16, 400, 400)" opacity="0.88"></line><line x1="134.5" y1="400" x2="665.5" y2="400" transform="rotate(20, 400, 400)" opacity="0.87"></line><line x1="285" y1="400" x2="515" y2="400" transform="rotate(24, 400, 400)" opacity="0.49"></line><line x1="497" y1="400" x2="303" y2="400" transform="rotate(28, 400, 400)" opacity="0.29"></line><line x1="393" y1="400" x2="407" y2="400" transform="rotate(32, 400, 400)" opacity="0.47"></line><line x1="22.5" y1="400" x2="777.5" y2="400" transform="rotate(36, 400, 400)" opacity="0.37"></line><line x1="495.5" y1="400" x2="304.5" y2="400" transform="rotate(40, 400, 400)" opacity="0.11"></line><line x1="310.5" y1="400" x2="489.5" y2="400" transform="rotate(44, 400, 400)" opacity="0.35"></line><line x1="503" y1="400" x2="297" y2="400" transform="rotate(48, 400, 400)" opacity="0.56"></line><line x1="86.5" y1="400" x2="713.5" y2="400" transform="rotate(52, 400, 400)" opacity="0.70"></line><line x1="130" y1="400" x2="670" y2="400" transform="rotate(56, 400, 400)" opacity="0.29"></line><line x1="459.5" y1="400" x2="340.5" y2="400" transform="rotate(60, 400, 400)" opacity="0.28"></line><line x1="443.5" y1="400" x2="356.5" y2="400" transform="rotate(64, 400, 400)" opacity="0.33"></line><line x1="83" y1="400" x2="717" y2="400" transform="rotate(68, 400, 400)" opacity="0.73"></line><line x1="405.5" y1="400" x2="394.5" y2="400" transform="rotate(72, 400, 400)" opacity="0.61"></line><line x1="640" y1="400" x2="160" y2="400" transform="rotate(76, 400, 400)" opacity="0.94"></line><line x1="577" y1="400" x2="223" y2="400" transform="rotate(80, 400, 400)" opacity="0.41"></line><line x1="163.5" y1="400" x2="636.5" y2="400" transform="rotate(84, 400, 400)" opacity="1.00"></line><line x1="168.5" y1="400" x2="631.5" y2="400" transform="rotate(88, 400, 400)" opacity="0.63"></line><line x1="713" y1="400" x2="87" y2="400" transform="rotate(92, 400, 400)" opacity="0.61"></line><line x1="605.5" y1="400" x2="194.5" y2="400" transform="rotate(96, 400, 400)" opacity="0.38"></line><line x1="662" y1="400" x2="138" y2="400" transform="rotate(100, 400, 400)" opacity="0.84"></line><line x1="165.5" y1="400" x2="634.5" y2="400" transform="rotate(104, 400, 400)" opacity="0.99"></line><line x1="94.5" y1="400" x2="705.5" y2="400" transform="rotate(108, 400, 400)" opacity="0.42"></line><line x1="524.5" y1="400" x2="275.5" y2="400" transform="rotate(112, 400, 400)" opacity="0.12"></line><line x1="696" y1="400" x2="104" y2="400" transform="rotate(116, 400, 400)" opacity="0.42"></line><line x1="326" y1="400" x2="474" y2="400" transform="rotate(120, 400, 400)" opacity="0.62"></line><line x1="290" y1="400" x2="510" y2="400" transform="rotate(124, 400, 400)" opacity="0.78"></line><line x1="729" y1="400" x2="71" y2="400" transform="rotate(128, 400, 400)" opacity="0.75"></line><line x1="275.5" y1="400" x2="524.5" y2="400" transform="rotate(132, 400, 400)" opacity="0.24"></line><line x1="739.5" y1="400" x2="60.5" y2="400" transform="rotate(136, 400, 400)" opacity="0.80"></line><line x1="167.5" y1="400" x2="632.5" y2="400" transform="rotate(140, 400, 400)" opacity="0.29"></line><line x1="634.5" y1="400" x2="165.5" y2="400" transform="rotate(144, 400, 400)" opacity="0.72"></line><line x1="642.5" y1="400" x2="157.5" y2="400" transform="rotate(148, 400, 400)" opacity="0.59"></line><line x1="224" y1="400" x2="576" y2="400" transform="rotate(152, 400, 400)" opacity="0.62"></line><line x1="279.5" y1="400" x2="520.5" y2="400" transform="rotate(156, 400, 400)" opacity="0.14"></line><line x1="239.5" y1="400" x2="560.5" y2="400" transform="rotate(160, 400, 400)" opacity="0.95"></line><line x1="691.5" y1="400" x2="108.5" y2="400" transform="rotate(164, 400, 400)" opacity="0.38"></line><line x1="127" y1="400" x2="673" y2="400" transform="rotate(168, 400, 400)" opacity="0.45"></line><line x1="455" y1="400" x2="345" y2="400" transform="rotate(172, 400, 400)" opacity="0.49"></line><line x1="81.5" y1="400" x2="718.5" y2="400" transform="rotate(176, 400, 400)" opacity="0.58"></line><line x1="108" y1="400" x2="692" y2="400" transform="rotate(180, 400, 400)" opacity="0.32"></line><line x1="515" y1="400" x2="285" y2="400" transform="rotate(184, 400, 400)" opacity="0.75"></line><line x1="610" y1="400" x2="190" y2="400" transform="rotate(188, 400, 400)" opacity="0.41"></line><line x1="591" y1="400" x2="209" y2="400" transform="rotate(192, 400, 400)" opacity="0.74"></line><line x1="690" y1="400" x2="110" y2="400" transform="rotate(196, 400, 400)" opacity="0.25"></line><line x1="376" y1="400" x2="424" y2="400" transform="rotate(200, 400, 400)" opacity="0.20"></line><line x1="212" y1="400" x2="588" y2="400" transform="rotate(204, 400, 400)" opacity="0.72"></line><line x1="350" y1="400" x2="450" y2="400" transform="rotate(208, 400, 400)" opacity="0.39"></line><line x1="135.5" y1="400" x2="664.5" y2="400" transform="rotate(212, 400, 400)" opacity="0.62"></line><line x1="707" y1="400" x2="93" y2="400" transform="rotate(216, 400, 400)" opacity="0.84"></line><line x1="665.5" y1="400" x2="134.5" y2="400" transform="rotate(220, 400, 400)" opacity="0.29"></line><line x1="277" y1="400" x2="523" y2="400" transform="rotate(224, 400, 400)" opacity="0.57"></line><line x1="215.5" y1="400" x2="584.5" y2="400" transform="rotate(228, 400, 400)" opacity="0.53"></line><line x1="374.5" y1="400" x2="425.5" y2="400" transform="rotate(232, 400, 400)" opacity="0.87"></line><line x1="362.5" y1="400" x2="437.5" y2="400" transform="rotate(236, 400, 400)" opacity="0.51"></line><line x1="272.5" y1="400" x2="527.5" y2="400" transform="rotate(240, 400, 400)" opacity="0.74"></line><line x1="162.5" y1="400" x2="637.5" y2="400" transform="rotate(244, 400, 400)" opacity="0.85"></line><line x1="152.5" y1="400" x2="647.5" y2="400" transform="rotate(248, 400, 400)" opacity="0.59"></line><line x1="100.5" y1="400" x2="699.5" y2="400" transform="rotate(252, 400, 400)" opacity="0.87"></line><line x1="662.5" y1="400" x2="137.5" y2="400" transform="rotate(256, 400, 400)" opacity="0.17"></line><line x1="567.5" y1="400" x2="232.5" y2="400" transform="rotate(260, 400, 400)" opacity="0.87"></line><line x1="447.5" y1="400" x2="352.5" y2="400" transform="rotate(264, 400, 400)" opacity="0.40"></line><line x1="714.5" y1="400" x2="85.5" y2="400" transform="rotate(268, 400, 400)" opacity="0.84"></line><line x1="49.5" y1="400" x2="750.5" y2="400" transform="rotate(272, 400, 400)" opacity="0.36"></line><line x1="583.5" y1="400" x2="216.5" y2="400" transform="rotate(276, 400, 400)" opacity="0.99"></line><line x1="368" y1="400" x2="432" y2="400" transform="rotate(280, 400, 400)" opacity="0.12"></line><line x1="451" y1="400" x2="349" y2="400" transform="rotate(284, 400, 400)" opacity="0.98"></line><line x1="481.5" y1="400" x2="318.5" y2="400" transform="rotate(288, 400, 400)" opacity="0.49"></line><line x1="441" y1="400" x2="359" y2="400" transform="rotate(292, 400, 400)" opacity="0.74"></line><line x1="532" y1="400" x2="268" y2="400" transform="rotate(296, 400, 400)" opacity="0.79"></line><line x1="510.5" y1="400" x2="289.5" y2="400" transform="rotate(300, 400, 400)" opacity="0.13"></line><line x1="193" y1="400" x2="607" y2="400" transform="rotate(304, 400, 400)" opacity="0.24"></line><line x1="656.5" y1="400" x2="143.5" y2="400" transform="rotate(308, 400, 400)" opacity="0.96"></line><line x1="732.5" y1="400" x2="67.5" y2="400" transform="rotate(312, 400, 400)" opacity="0.63"></line><line x1="301.5" y1="400" x2="498.5" y2="400" transform="rotate(316, 400, 400)" opacity="0.45"></line><line x1="733.5" y1="400" x2="66.5" y2="400" transform="rotate(320, 400, 400)" opacity="0.81"></line><line x1="521" y1="400" x2="279" y2="400" transform="rotate(324, 400, 400)" opacity="0.14"></line><line x1="508" y1="400" x2="292" y2="400" transform="rotate(328, 400, 400)" opacity="0.21"></line><line x1="373.5" y1="400" x2="426.5" y2="400" transform="rotate(332, 400, 400)" opacity="0.40"></line><line x1="255.5" y1="400" x2="544.5" y2="400" transform="rotate(336, 400, 400)" opacity="1.00"></line><line x1="695.5" y1="400" x2="104.5" y2="400" transform="rotate(340, 400, 400)" opacity="0.99"></line><line x1="233.5" y1="400" x2="566.5" y2="400" transform="rotate(344, 400, 400)" opacity="0.11"></line><line x1="215" y1="400" x2="585" y2="400" transform="rotate(348, 400, 400)" opacity="0.10"></line></g></svg>