<svg xmlns="http://www.w3.org/2000/svg" version="1.1" xmlns:xlink="http://www.w3.org/1999/xlink" xmlns:svgjs="http://svgjs.dev/svgjs" viewBox="0 0 800 800"><g fill="none" stroke-width="3" stroke="hsl(231, 100%, 64%)" stroke-linecap="round"><line x1="302.5" y1="400" x2="497.5" y2="400" transform="rotate(0, 400, 400)" opacity="0.96"></line><line x1="441" y1="400" x2="359" y2="400" transform="rotate(4, 400, 400)" opacity="0.37"></line><line x1="604" y1="400" x2="196" y2="400" transform="rotate(8, 400, 400)" opacity="0.61"></line><line x1="424" y1="400" x2="376" y2="400" transform="rotate(12, 400, 400)" opacity="0.15"></line><line x1="116" y1="400" x2="684" y2="400" transform="rotate(16, 400, 400)" opacity="0.48"></line><line x1="412.5" y1="400" x2="387.5" y2="400" transform="rotate(20, 400, 400)" opacity="0.53"></line><line x1="317" y1="400" x2="483" y2="400" transform="rotate(24, 400, 400)" opacity="0.96"></line><line x1="419" y1="400" x2="381" y2="400" transform="rotate(28, 400, 400)" opacity="0.22"></line><line x1="422.5" y1="400" x2="377.5" y2="400" transform="rotate(32, 400, 400)" opacity="0.27"></line><line x1="111" y1="400" x2="689" y2="400" transform="rotate(36, 400, 400)" opacity="0.21"></line><line x1="139" y1="400" x2="661" y2="400" transform="rotate(40, 400, 400)" opacity="0.82"></line><line x1="283" y1="400" x2="517" y2="400" transform="rotate(44, 400, 400)" opacity="0.96"></line><line x1="261" y1="400" x2="539" y2="400" transform="rotate(48, 400, 400)" opacity="0.91"></line><line x1="722.5" y1="400" x2="77.5" y2="400" transform="rotate(52, 400, 400)" opacity="0.55"></line><line x1="319" y1="400" x2="481" y2="400" transform="rotate(56, 400, 400)" opacity="0.68"></line><line x1="80" y1="400" x2="720" y2="400" transform="rotate(60, 400, 400)" opacity="0.58"></line><line x1="611" y1="400" x2="189" y2="400" transform="rotate(64, 400, 400)" opacity="0.54"></line><line x1="380.5" y1="400" x2="419.5" y2="400" transform="rotate(68, 400, 400)" opacity="0.57"></line><line x1="289.5" y1="400" x2="510.5" y2="400" transform="rotate(72, 400, 400)" opacity="0.29"></line><line x1="95.5" y1="400" x2="704.5" y2="400" transform="rotate(76, 400, 400)" opacity="0.49"></line><line x1="36.5" y1="400" x2="763.5" y2="400" transform="rotate(80, 400, 400)" opacity="0.77"></line><line x1="512.5" y1="400" x2="287.5" y2="400" transform="rotate(84, 400, 400)" opacity="0.90"></line><line x1="98" y1="400" x2="702" y2="400" transform="rotate(88, 400, 400)" opacity="0.96"></line><line x1="78.5" y1="400" x2="721.5" y2="400" transform="rotate(92, 400, 400)" opacity="0.82"></line><line x1="28" y1="400" x2="772" y2="400" transform="rotate(96, 400, 400)" opacity="0.13"></line><line x1="364" y1="400" x2="436" y2="400" transform="rotate(100, 400, 400)" opacity="0.09"></line><line x1="133" y1="400" x2="667" y2="400" transform="rotate(104, 400, 400)" opacity="0.51"></line><line x1="210.5" y1="400" x2="589.5" y2="400" transform="rotate(108, 400, 400)" opacity="0.95"></line><line x1="512" y1="400" x2="288" y2="400" transform="rotate(112, 400, 400)" opacity="0.50"></line><line x1="154.5" y1="400" x2="645.5" y2="400" transform="rotate(116, 400, 400)" opacity="0.41"></line><line x1="277" y1="400" x2="523" y2="400" transform="rotate(120, 400, 400)" opacity="0.68"></line><line x1="407.5" y1="400" x2="392.5" y2="400" transform="rotate(124, 400, 400)" opacity="0.42"></line><line x1="247" y1="400" x2="553" y2="400" transform="rotate(128, 400, 400)" opacity="0.47"></line><line x1="154" y1="400" x2="646" y2="400" transform="rotate(132, 400, 400)" opacity="0.35"></line><line x1="223.5" y1="400" x2="576.5" y2="400" transform="rotate(136, 400, 400)" opacity="0.15"></line><line x1="86" y1="400" x2="714" y2="400" transform="rotate(140, 400, 400)" opacity="0.12"></line><line x1="261" y1="400" x2="539" y2="400" transform="rotate(144, 400, 400)" opacity="0.10"></line><line x1="636.5" y1="400" x2="163.5" y2="400" transform="rotate(148, 400, 400)" opacity="0.75"></line><line x1="105" y1="400" x2="695" y2="400" transform="rotate(152, 400, 400)" opacity="0.19"></line><line x1="541.5" y1="400" x2="258.5" y2="400" transform="rotate(156, 400, 400)" opacity="0.93"></line><line x1="550.5" y1="400" x2="249.5" y2="400" transform="rotate(160, 400, 400)" opacity="0.95"></line><line x1="131.5" y1="400" x2="668.5" y2="400" transform="rotate(164, 400, 400)" opacity="0.12"></line><line x1="587" y1="400" x2="213" y2="400" transform="rotate(168, 400, 400)" opacity="0.10"></line><line x1="379" y1="400" x2="421" y2="400" transform="rotate(172, 400, 400)" opacity="0.19"></line><line x1="581.5" y1="400" x2="218.5" y2="400" transform="rotate(176, 400, 400)" opacity="0.65"></line><line x1="502.5" y1="400" x2="297.5" y2="400" transform="rotate(180, 400, 400)" opacity="0.21"></line><line x1="731" y1="400" x2="69" y2="400" transform="rotate(184, 400, 400)" opacity="0.43"></line><line x1="248" y1="400" x2="552" y2="400" transform="rotate(188, 400, 400)" opacity="0.57"></line><line x1="431" y1="400" x2="369" y2="400" transform="rotate(192, 400, 400)" opacity="0.30"></line><line x1="352.5" y1="400" x2="447.5" y2="400" transform="rotate(196, 400, 400)" opacity="0.32"></line><line x1="599" y1="400" x2="201" y2="400" transform="rotate(200, 400, 400)" opacity="0.68"></line><line x1="598" y1="400" x2="202" y2="400" transform="rotate(204, 400, 400)" opacity="0.43"></line><line x1="227.5" y1="400" x2="572.5" y2="400" transform="rotate(208, 400, 400)" opacity="0.32"></line><line x1="327.5" y1="400" x2="472.5" y2="400" transform="rotate(212, 400, 400)" opacity="0.69"></line><line x1="646" y1="400" x2="154" y2="400" transform="rotate(216, 400, 400)" opacity="0.60"></line><line x1="567.5" y1="400" x2="232.5" y2="400" transform="rotate(220, 400, 400)" opacity="0.17"></line><line x1="563.5" y1="400" x2="236.5" y2="400" transform="rotate(224, 400, 400)" opacity="0.43"></line><line x1="229.5" y1="400" x2="570.5" y2="400" transform="rotate(228, 400, 400)" opacity="0.09"></line><line x1="728" y1="400" x2="72" y2="400" transform="rotate(232, 400, 400)" opacity="0.44"></line><line x1="537.5" y1="400" x2="262.5" y2="400" transform="rotate(236, 400, 400)" opacity="0.25"></line><line x1="627.5" y1="400" x2="172.5" y2="400" transform="rotate(240, 400, 400)" opacity="0.66"></line><line x1="286.5" y1="400" x2="513.5" y2="400" transform="rotate(244, 400, 400)" opacity="0.50"></line><line x1="161" y1="400" x2="639" y2="400" transform="rotate(248, 400, 400)" opacity="0.71"></line><line x1="651.5" y1="400" x2="148.5" y2="400" transform="rotate(252, 400, 400)" opacity="0.78"></line><line x1="187.5" y1="400" x2="612.5" y2="400" transform="rotate(256, 400, 400)" opacity="0.68"></line><line x1="623" y1="400" x2="177" y2="400" transform="rotate(260, 400, 400)" opacity="0.28"></line><line x1="603.5" y1="400" x2="196.5" y2="400" transform="rotate(264, 400, 400)" opacity="0.51"></line><line x1="388" y1="400" x2="412" y2="400" transform="rotate(268, 400, 400)" opacity="0.80"></line><line x1="275" y1="400" x2="525" y2="400" transform="rotate(272, 400, 400)" opacity="0.34"></line><line x1="421" y1="400" x2="379" y2="400" transform="rotate(276, 400, 400)" opacity="0.31"></line><line x1="695.5" y1="400" x2="104.5" y2="400" transform="rotate(280, 400, 400)" opacity="0.59"></line><line x1="272" y1="400" x2="528" y2="400" transform="rotate(284, 400, 400)" opacity="0.99"></line><line x1="505" y1="400" x2="295" y2="400" transform="rotate(288, 400, 400)" opacity="0.67"></line><line x1="385.5" y1="400" x2="414.5" y2="400" transform="rotate(292, 400, 400)" opacity="0.68"></line><line x1="665" y1="400" x2="135" y2="400" transform="rotate(296, 400, 400)" opacity="0.66"></line><line x1="193.5" y1="400" x2="606.5" y2="400" transform="rotate(300, 400, 400)" opacity="0.82"></line><line x1="570.5" y1="400" x2="229.5" y2="400" transform="rotate(304, 400, 400)" opacity="0.62"></line><line x1="398" y1="400" x2="402" y2="400" transform="rotate(308, 400, 400)" opacity="0.84"></line><line x1="176" y1="400" x2="624" y2="400" transform="rotate(312, 400, 400)" opacity="0.14"></line><line x1="280.5" y1="400" x2="519.5" y2="400" transform="rotate(316, 400, 400)" opacity="0.63"></line><line x1="450" y1="400" x2="350" y2="400" transform="rotate(320, 400, 400)" opacity="0.69"></line><line x1="178.5" y1="400" x2="621.5" y2="400" transform="rotate(324, 400, 400)" opacity="0.08"></line><line x1="300" y1="400" x2="500" y2="400" transform="rotate(328, 400, 400)" opacity="0.22"></line><line x1="542" y1="400" x2="258" y2="400" transform="rotate(332, 400, 400)" opacity="0.53"></line><line x1="389" y1="400" x2="411" y2="400" transform="rotate(336, 400, 400)" opacity="0.45"></line><line x1="193.5" y1="400" x2="606.5" y2="400" transform="rotate(340, 400, 400)" opacity="0.49"></line><line x1="457.5" y1="400" x2="342.5" y2="400" transform="rotate(344, 400, 400)" opacity="0.73"></line><line x1="156" y1="400" x2="644" y2="400" transform="rotate(348, 400, 400)" opacity="0.46"></line></g></svg>