<svg xmlns="http://www.w3.org/2000/svg" version="1.1" xmlns:xlink="http://www.w3.org/1999/xlink" xmlns:svgjs="http://svgjs.dev/svgjs" viewBox="0 0 800 800"><defs><linearGradient x1="50%" y1="0%" x2="50%" y2="100%" id="uundulate-grad"><stop stop-color="hsl(105, 69%, 40%)" stop-opacity="1" offset="45%"></stop><stop stop-color="hsl(105, 69%, 60%)" stop-opacity="1" offset="100%"></stop></linearGradient></defs><g stroke-width="2" stroke="url(#uundulate-grad)" fill="none"><path d="M558.1088172073862 178.4935866495232C609.0669057595537 294.5014543336639 712.4624703195325 501.4488277015928 661.0294353632784 617.2469065660558C609.5964004070242 733.0449854305189 413.24642664943076 775.9976920142567 311.2302494173666 734.3243651989455C209.21407218530237 692.6510383836342 209.25370400536877 520.6915588547524 171.3517846493712 417.2149378525612C133.44986529337365 313.73831685037 116.30678099486954 306.7211990660551 129.301036508579 237.63658438842765C142.29529202228844 168.55196971080022 173.9055499059479 122.53117129708477 233.72421111517616 85.60878739995007C293.54287232440436 48.68640350281538 348.8504840436631 41.05814183851959 416.4306103128737 60.40914168218086C484.0107365820843 79.76014152584213 507.1507286552185 62.48571896538243 558.1088172073862 178.4935866495232C609.0669057595537 294.5014543336639 712.4624703195325 501.4488277015928 661.0294353632784 617.2469065660558 "></path><path d="M550.9220541760312 188.56210992149084C599.5638659758275 299.29689271089796 698.2596321467163 496.83756728937533 649.1644624157465 607.3720971145447C600.0692926847767 717.9066269397139 412.6443177343465 758.9069377696455 315.2652394673762 719.127853082303C217.8861612004058 679.3487683949603 217.92399157410557 515.2056288446643 181.7448867342897 416.4324906152999C145.56578189447384 317.65935238593545 129.20192870044724 310.9611945009076 141.60553623626078 245.01678958135426C154.00914377207437 179.0723846618008 184.1825717519311 135.14344072143604 241.2822029061944 99.8993470014438C298.3818340604578 64.65525328145162 351.175463428841 57.373730783714734 415.68376577672393 75.84513972539139C480.19206812460675 94.31654866706805 502.2802423762348 77.82732713208378 550.9220541760312 188.56210992149084C599.5638659758275 299.29689271089796 698.2596321467163 496.83756728937533 649.1644624157465 607.3720971145447 "></path><path d="M543.7353216622544 198.63054164072418C590.0608567096795 304.09223953539754 684.0568244914783 492.2262153244237 637.2995199857928 597.4971961102992C590.5422154801072 702.7681768961747 412.04223933684045 741.8160919723 319.3002600349639 703.9312494129263C226.55828073308737 666.0464068535523 226.5943096604205 509.7196072818417 192.13801933678633 415.64995182530424C157.68172901315216 321.58029636876677 142.097106923603 315.20109838302585 153.9100664815207 252.39690322154638C165.72302603943837 189.59270806006697 194.45962411549243 147.75561859305287 248.8402252147908 114.18981505020321C303.2208263140892 80.62401150735349 353.50047333159705 73.6892281761755 414.9369517581522 91.28104621586755C476.37343018470733 108.87286425555959 497.4097866148293 93.16884374605075 543.7353216622544 198.63054164072418C590.0608567096795 304.09223953539754 684.0568244914783 492.2262153244237 637.2995199857928 597.4971961102992 "></path><path d="M536.5485281133214 208.69900387753563C580.5577864083753 308.88761687747535 669.8539558010841 487.61489387705024 625.4345165206828 587.6223256236319C581.0150772402816 687.6297573702137 411.44009990417817 724.7252766925328 323.33521956739537 688.7346762611276C235.23033923061269 652.7440758297224 235.26456671157916 504.2336162365973 202.5310909041267 414.8674435528867C169.79761509667424 325.5012708691761 154.99222411160252 319.44103278272223 166.21453569162435 259.77704737931685C177.43684727164612 200.1130619759113 204.7366154438975 160.36782698224795 256.398186488231 128.48031361654068C308.0597575325644 96.59280025083348 355.82542219919696 90.0047560862144 414.1900767044243 106.71698322392183C472.55473120965166 123.42921036162932 492.5392698182675 108.51039087759591 536.5485281133214 208.69900387753563C580.5577864083753 308.88761687747535 669.8539558010841 487.61489387705024 625.4345165206828 587.6223256236319 "></path><path d="M529.3617650819665 218.7674966319252C571.054746624649 313.6830247371313 655.651117628268 483.0036029472549 613.569543573151 577.7474856545427C571.487969518034 672.4913683618307 410.8379909890939 707.6344919303435 327.37020961740507 673.538133626907C243.90242824571612 639.4417753234704 243.9348542803159 498.7476557089309 212.9241929890452 414.08496579804716C181.91353169777443 329.42227588716344 167.88737181718022 323.68099769999674 178.51903541930614 267.1572220546652C189.15069902143205 210.63344640933371 215.0136372898807 172.98006588902103 263.95617827924923 142.77084270045629C312.89871926861775 112.56161951189154 358.1504015843749 106.32031451383136 413.44323216827445 122.15295074955424C468.7360627521741 137.9855869852771 487.6687835392838 123.85196852671913 529.3617650819665 218.7674966319252C571.054746624649 313.6830247371313 655.651117628268 483.0036029472549 613.569543573151 577.7474856545427 "></path><path d="M522.1749867918224 228.83595886873667C561.5516915821338 318.4784020792091 641.4482641966629 478.3922814998813 601.7045553668302 567.8726151678754C561.9608465369975 657.3529488358697 410.2358668152207 690.5436766505762 331.4051844086256 658.3415604751084C252.57450200203056 626.1394442996406 252.60512659026364 493.2616646636866 223.31727981517463 413.30245752562973C194.02943304008562 333.34325038757277 180.7825042639688 327.9209320996931 190.82351988819886 274.5373662124356C200.86453551242886 221.15380032517805 225.29064387707479 185.59227427821605 271.5141548114784 157.06134126679382C317.73766574588205 128.53040825537153 360.47536571076375 122.63584242387026 412.69637237333563 137.58888775760852C464.9173790359075 152.54193309134678 482.7982820015112 139.19351565826423 522.1749867918224 228.83595886873667C561.5516915821338 318.4784020792091 641.4482641966629 478.3922814998813 601.7045553668302 567.8726151678754 "></path><path d="M514.9882390192566 238.90443636433713C552.0486670571968 323.27379468007587 627.2454412826359 473.78097531129686 589.8395976780873 557.9977599399972C552.4337540735389 642.2145445686976 409.63377315892546 673.4528766295979 335.44018971742423 643.1450025820988C261.24660627592306 612.8371285345996 261.2754294177895 487.77568887723123 233.7103971588822 412.51996451200114C206.14536489997488 337.26424014677116 193.6776672283355 332.16088175817856 203.12803487466965 281.91752562899495C212.5784025210038 231.6741694998114 235.56768098184705 198.20449792620013 279.0721618612858 171.35185509192036C322.5766427407245 144.49921225764058 362.80036035473086 138.95138559269822 411.94954309597483 153.02484002445186C461.09872583721904 167.0982944562055 477.9278109813166 154.53507804859845 514.9882390192566 238.90443636433713C552.0486670571968 323.27379468007587 627.2454412826359 473.78097531129686 589.8395976780873 557.9977599399972 "></path><path d="M507.80147598790177 248.9728986011486C542.5456272734705 328.0691720221537 613.0426031098198 469.16965386392326 577.9746247305555 548.1228894533299C542.9066463512913 627.0761250427365 409.0316642438413 656.3620613498306 339.4751797674339 627.9484294303002C269.9186952910265 599.5347975107697 269.9457169865263 482.2896978319868 244.10349924380068 411.7374562395836C218.26128150107508 341.1852146471805 206.5728149339132 336.40081615787494 215.43253460235144 289.2976697867653C224.29225427078973 242.19452341565568 245.84470282783025 210.81670631539515 286.63015365230405 185.6423536582579C327.41560447677784 160.46800100112057 365.1253397399088 155.2669135027371 411.2026985598251 168.46077703250614C457.2800573797415 181.65464056227518 473.05732470233295 169.87662518014355 507.80147598790177 248.9728986011486C542.5456272734705 328.0691720221537 613.0426031098198 469.16965386392326 577.9746247305555 548.1228894533299 "></path><path d="M500.6147129565468 259.04139135553817C533.0425874897444 332.8645798818095 598.8397649370036 464.5583629341279 566.1096517830238 538.2480494842407C533.3795386290439 611.9377360343535 408.42955532875703 639.2712765876413 343.5101698174435 612.7518867960796C278.59078430612993 586.2324970045179 278.6160045552631 476.8037373043205 254.49660132871918 410.9549784847442C230.37719810217527 345.10621966516794 219.46796263949085 340.64078107514933 227.73703433003323 296.67784446211374C236.0061060205756 252.71490784907814 256.12172467381345 223.4289452221683 294.1881454433223 199.9328827421735C332.25456621283115 176.43682026217868 367.4503191250867 171.58247193035407 410.45585402367533 183.89674455813855C453.46138892226395 196.21101718592297 468.1868384233493 185.21820282926677 500.6147129565468 259.04139135553817C533.0425874897444 332.8645798818095 598.8397649370036 464.5583629341279 566.1096517830238 538.2480494842407 "></path><path d="M493.42793466640285 269.1098535923496C523.5395324472292 337.6599572238873 584.6369115053985 459.9470414867544 554.2446635767028 528.3731789975734C523.8524156480072 596.7993165083924 407.8274311548838 622.1804613078739 347.54514460866403 597.5553136442809C287.2628580624443 572.9301659806879 287.2862768652108 471.317746259076 264.8896881548486 410.17247021232663C242.4930994444864 349.02719416557727 232.36309508627943 344.8807154748457 240.04151879892595 304.0579886198841C247.71994251157247 263.2352617649224 266.3987312610076 236.0411536113633 301.74612197555155 214.22338130851097C337.09351269009545 192.40560900565868 369.77528325147557 187.89799984039297 409.7089942287364 199.33268156619283C449.64270520599723 210.76736329199264 463.31633688557656 200.55974996081193 493.42793466640285 269.1098535923496C523.5395324472292 337.6599572238873 584.6369115053985 459.9470414867544 554.2446635767028 528.3731789975734 "></path><path d="M486.241171635048 279.1783158291611C514.0364926635029 342.45533456596513 570.4340733325823 455.3357200393808 542.379690629171 518.4983085109061C514.3253079257597 581.6608969824315 407.22532223979965 605.0896460281067 351.58013465867367 582.3587404924824C295.93494707754775 559.6278349568579 295.9565644339476 465.83175521383157 275.2827902397671 409.3899619399091C254.6090160455866 352.9481686659866 245.25824279185713 349.1206498745421 252.34601852660774 311.43813277765446C259.43379426135834 273.75561568076677 276.6757531069908 248.65336200055833 309.3041137665698 228.5138798748485C341.9324744261488 208.37439774913867 372.10026263665355 204.21352775043187 408.96214969258665 214.7686185742471C445.8240367485197 225.3237093980623 458.4458506065929 215.90129709235703 486.241171635048 279.1783158291611C514.0364926635029 342.45533456596513 570.4340733325823 455.3357200393808 542.379690629171 518.4983085109061 "></path><path d="M479.0544086036931 289.24680858355066C504.53345287977686 347.250742425621 556.2312351597662 450.72442910958546 530.5147176816392 508.6234685418169C504.7982002035121 566.5225079740485 406.6232133247154 587.9988612659174 355.6151247086833 567.1621978582618C304.6070360926512 546.3255344506061 304.62685200268436 460.3457946861653 285.6758923246856 408.60748418506967C266.7249326466868 356.86917368397405 258.15339049743477 353.3606147918166 264.6505182542895 318.8183074530029C271.1476460111442 284.2760001141892 286.952774952974 261.2656009073314 316.86210555758805 242.8044089587641C346.7714361622022 224.34321701019672 374.42524202183154 220.52908617804889 408.2153051564369 230.20458609987952C442.00536829104215 239.88008602171016 453.57536432760924 231.24287474148025 479.0544086036931 289.24680858355066C504.53345287977686 347.250742425621 556.2312351597662 450.72442910958546 530.5147176816392 508.6234685418169 "></path><path d="M471.8676455723381 299.3152708203621C495.03041309605067 352.04611976769877 542.0283969869502 446.11310766221186 518.6497447341073 498.7485980551496C495.27109248126453 551.3840884480874 406.02110440963116 570.90804598615 359.6501147586929 551.9656247064631C313.2791251077546 533.0232034267761 313.29713957142116 454.85980364092086 296.0689944096041 407.8249759126521C278.84084924778705 360.7901481843834 271.04853820301247 357.6005491915129 276.9550179819713 326.1984516107732C282.86149776093015 294.7963540300335 297.2297967989572 273.87780929652644 324.42009734860636 257.0949075251016C351.61039789825554 240.31200575367671 376.75022140700946 236.84461408808772 407.46846062028703 245.6405231079338C438.1866998335646 254.43643212777982 448.7048780486256 246.5844218730254 471.8676455723381 299.3152708203621C495.03041309605067 352.04611976769877 542.0283969869502 446.11310766221186 518.6497447341073 498.7485980551496 "></path><path d="M464.68088254098325 309.3837635747517C485.52737331232447 356.8415276273547 527.825558814134 441.5018167324165 506.78477178657545 488.87375808606043C485.74398475901694 536.2456994397044 405.41899549454695 553.8172612239608 363.68510480870253 536.7690820722426C321.95121412285806 519.7209029205243 321.96742714015795 449.37384311325445 306.4620964945226 407.0424981578126C290.95676584888724 364.7111532023708 283.9436859085901 361.84051410878743 289.25951770965304 333.5786262861217C294.575349510716 305.3167384634559 307.5068186449403 286.4900482032996 331.9780891396246 271.38543660901723C356.44935963430885 256.28082501473483 379.07520079218745 253.16017251570474 406.7216160841372 261.0764906335662C434.36803137608706 268.9928087514276 443.8343917696419 261.92599952214863 464.68088254098325 309.3837635747517C485.52737331232447 356.8415276273547 527.825558814134 441.5018167324165 506.78477178657545 488.87375808606043 "></path><path d="M457.49411950962826 319.4522258115631C476.0243335285984 361.63690496943246 513.622720641318 436.890495285043 494.91979883904366 478.99888759939313C476.21687703676946 521.1072799137434 404.81688657946273 536.7264459441935 367.7200948587121 521.5725089204439C330.6233031379615 506.4185718966944 330.63771470889475 443.88785206801015 316.8551985794411 406.2599898853951C303.07268244998744 368.6321277027801 296.83883361416775 366.0804485084838 301.5640174373348 340.95877044389204C306.2892012605019 315.8370923793002 317.7838404909235 299.1022565924946 339.53608093064287 285.6759351753547C361.28832137036227 272.2496137582148 381.4001801773654 269.47570042574364 405.9747715479874 276.51242764162043C430.5493629186095 283.5491548574973 438.9639054906583 277.2675466536937 457.49411950962826 319.4522258115631C476.0243335285984 361.63690496943246 513.622720641318 436.890495285043 494.91979883904366 478.99888759939313 "></path><path d="M450.30734121948433 329.52068804837455C466.52127848608313 366.4322823115102 499.4198672097127 432.2791738376694 483.0548106327228 469.1240171127258C466.6897540557329 505.96886038778223 404.21476240558945 519.6356306644261 371.7550696499327 506.37593576864526C339.29537689427593 493.1162408728644 339.3079870188425 438.40186102276573 327.2482854055705 405.47748161297756C315.1885837922986 372.55310220318944 309.7339660609564 370.32038290818014 313.86850190622755 348.33891460166234C318.00303775149877 326.35744629514454 328.06084707811766 311.7144649816896 347.0940574628721 299.9664337416922C366.1272678476265 288.2184025016948 383.7251443037543 285.79122833578253 405.2279117530486 291.9483646496747C426.7306792023429 298.10550096356695 434.0934039528856 292.6090937852389 450.30734121948433 329.52068804837455C466.52127848608313 366.4322823115102 499.4198672097127 432.2791738376694 483.0548106327228 469.1240171127258 "></path><path d="M443.12057818812946 339.58913502639695C457.01823870235694 371.227644394799 485.21702903689663 427.6678371315068 471.1898376851909 459.24913136726946C457.1626463334853 490.83042560303215 403.6126534905053 502.54480012586976 375.7900596999423 491.1793473580576C347.96746590937937 479.81389459024535 347.9782745875793 432.9158547187322 337.641387490489 404.69495808177095C327.30450039339877 376.4740614448097 322.62911376653403 374.56030204908745 326.17300163390934 355.71904350064364C329.71688950128464 336.87778495219976 338.33786892410086 324.3266581120956 354.65204925389037 314.25691704924066C370.9662295836799 304.18717598638574 386.0501236889323 302.1067409870323 404.4810672168988 307.38428639893993C422.9120107448653 312.66183181084756 429.2229176739019 307.9506256579949 443.12057818812946 339.58913502639695C457.01823870235694 371.227644394799 485.21702903689663 427.6678371315068 471.1898376851909 459.24913136726946 "></path><path d="M435.93381515677453 349.6576277807865C447.5151989186308 376.02305225445485 471.01419086408055 423.0565462017114 459.32486473765914 449.3742913981803C447.63553861123773 475.69203659464915 403.010544575421 485.45401536368047 379.8250497499519 475.98280472383703C356.6395549244828 466.5115940839935 356.6485621563161 427.4298941910659 348.0344895754075 403.91248032693153C339.42041699449896 380.39506646279716 335.5242614721117 378.80026696636196 338.4775013615911 363.09921817599206C341.4307412510705 347.3981693856222 348.61489077008406 336.9388970188687 362.2100410449086 328.54744613315626C375.80519131973324 320.15599524744385 388.3751030741102 318.42229941464933 403.734222680749 322.82025392457234C419.09334228738777 327.21820843449535 424.35243139491826 323.29220330711814 435.93381515677453 349.6576277807865C447.5151989186308 376.02305225445485 471.01419086408055 423.0565462017114 459.32486473765914 449.3742913981803 "></path><path d="M428.7470521254196 359.72610527638705C438.01215913490466 380.81844485532173 456.81135269126446 418.445240013127 447.4598917901273 439.49943617030203C438.1084308889902 460.55363232747715 402.40843566033686 468.36321534270223 383.86003979996156 460.7862468308274C365.31164393958625 453.20927831895267 365.31884972505287 421.94391840461054 358.427591660326 403.129987313303C351.53633359559916 384.3160562219955 348.4194091776894 383.04021662484735 350.7820010892729 370.4793775925515C353.14459300085645 357.91853856025557 358.89191261606726 349.55112066685274 369.76803283592693 342.83795995828285C380.6441530557866 336.1247992497129 390.7000824592882 334.7378425834773 402.9873781445992 338.2562061914157C415.2746738299102 341.7745697993541 419.48194511593465 338.63376569745236 428.7470521254196 359.72610527638705C438.01215913490466 380.81844485532173 456.81135269126446 418.445240013127 447.4598917901273 439.49943617030203 "></path><path d="M421.5603043528538 369.7945827719875C428.50913460996753 385.61383745618855 442.6085297772374 413.83393382454244 435.5949341013845 429.6245809424238C428.5813384255317 445.41522806030514 401.8063420040417 451.27241532172394 387.8950451087602 445.58968893781787C373.98374821347875 439.90696255391174 373.9891525525787 416.45794261815513 368.8207090040336 402.3474942996745C363.6522654554885 388.2370459811939 361.3145721420561 387.2801662833328 363.0865160757437 377.85953700911085C364.8584600094314 368.43890773488897 369.16894972083946 362.1633443148368 377.32603988573425 357.1284737834094C385.48313005062903 352.0936032519819 393.02507710325517 351.05338575230525 402.24054886723843 353.69215845825903C411.4560206312217 356.33093116421287 414.61147409574005 353.9753280877865 421.5603043528538 369.7945827719875C428.50913460996753 385.61383745618855 442.6085297772374 413.83393382454244 435.5949341013845 429.6245809424238 "></path><path d="M414.3735260627098 379.86304500879896C419.00607956745233 390.4092147982663 428.40567634563223 409.22261237716896 423.7299458950637 419.7497104557565C419.05421544449507 430.276808534344 401.20421783016843 434.1816000419566 391.9300198999808 430.39311578601917C382.6558219697931 426.6046315300818 382.6594248625264 410.9719515729107 379.213795830163 401.56498602725696C375.7681667977996 392.1580204816032 374.20970458884466 391.52010068302917 375.3910005446364 385.2396811668812C376.5722965004282 378.95926165073325 379.4459563080336 374.77555270403184 384.88401641796344 371.41897234974687C390.3220765278933 368.0623919954619 395.3500412296441 367.3689136623441 401.4936890722996 369.1280954663133C407.6373369149551 370.88727727028254 409.7409725579673 369.3168752193316 414.3735260627098 379.86304500879896C419.00607956745233 390.4092147982663 428.40567634563223 409.22261237716896 423.7299458950637 419.7497104557565 "></path><path d="M407.18676303135493 389.9315225043995C409.50303978372614 395.2046073991332 414.2028381728161 404.6113061885845 411.86497294753184 409.87485522787824C409.52710772224754 415.138404267172 400.6021089150842 417.0908000209783 395.96500994999036 415.1965578930096C391.32791098489656 413.3023157650409 391.3297124312632 405.48597578645536 389.6068979150815 400.7824930136285C387.8840833988998 396.0790102408016 387.10485229442236 395.76005034151456 387.6955002723182 392.6198405834406C388.2861482502141 389.47963082536666 389.7229781540168 387.3877763520159 392.44200820898175 385.70948617487346C395.16103826394664 384.03119599773095 397.675020614822 383.68445683117204 400.7468445361498 384.56404773315666C403.81866845747754 385.44363863514127 404.87048627898366 384.65843760966584 407.18676303135493 389.9315225043995C409.50303978372614 395.2046073991332 414.2028381728161 404.6113061885845 411.86497294753184 409.87485522787824 "></path></g></svg>