<svg xmlns="http://www.w3.org/2000/svg" version="1.1" xmlns:xlink="http://www.w3.org/1999/xlink" xmlns:svgjs="http://svgjs.dev/svgjs" viewBox="0 0 800 800"><defs><linearGradient x1="50%" y1="0%" x2="50%" y2="100%" id="uundulate-grad"><stop stop-color="hsl(230, 55%, 50%)" stop-opacity="1" offset="45%"></stop><stop stop-color="hsl(230, 55%, 70%)" stop-opacity="1" offset="100%"></stop></linearGradient></defs><g stroke-width="2" stroke="url(#uundulate-grad)" fill="none"><path d="M641.1713545269024 79.43226341855399C728.1189236364654 178.74017961285142 627.9222127545631 591.5185183564573 559.5258779911675 704.4073281820964C491.1295432277718 817.2961380077354 399.8165167721654 720.6064667759189 312.8689476626025 621.2985505816214C225.92137855303946 521.990634387324 73.78121150187002 340.6181402751081 142.17754626526568 227.72933044946888C210.57388102866128 114.84052062382978 554.2237854173394 -19.875652775743447 641.1713545269024 79.43226341855399C728.1189236364654 178.74017961285142 627.9222127545631 591.5185183564573 559.5258779911675 704.4073281820964 "></path><path d="M630.209020230225 94.00351723644286C713.2044271075351 188.7974372400904 617.5621121748102 582.8131242226233 552.2747017188417 690.5706245107334C486.9872912628731 798.3281247988434 399.8248569188852 706.0334386230185 316.8294500415751 611.2395186193709C233.83404316426493 516.4455986157234 88.60933825178506 343.3173087813353 153.8967487077536 235.55980849322532C219.18415916372214 127.8023082051152 547.2136133529149 -0.7904027672046823 630.209020230225 94.00351723644286C713.2044271075351 188.7974372400904 617.5621121748102 582.8131242226233 552.2747017188417 690.5706245107334 "></path><path d="M619.2467164511257 108.57480157190986C698.289961096183 198.8547253849075 607.2020421126355 574.1077606063675 545.0235559640939 676.7339513569484C482.8450698155525 779.3601421075296 399.8332275831831 691.4604409876961 320.78998293812583 601.1805171746985C241.74673829306857 510.90059336170077 103.43749551927817 346.0165078051408 165.61598166781965 243.39031705455977C227.79446781636113 140.76412630397874 540.2034718060685 18.294877758912207 619.2467164511257 108.57480157190986C698.289961096183 198.8547253849075 607.2020421126355 574.1077606063675 545.0235559640939 676.7339513569484 "></path><path d="M608.2843821544484 123.14602487222061C683.3754645672527 208.91195249456842 596.8419415328826 565.4023359549553 537.7723796917683 662.8972171680073C478.7028178506537 760.3920983810592 399.84156772990286 676.8873823172175 324.7504853170984 591.1214546948697C249.65940290429404 505.3555270725219 118.26562226919316 348.71564579379003 177.33518411030758 251.22076458073803C236.404745951422 153.72588336768604 533.193299741644 37.38009724987285 608.2843821544484 123.14602487222061C683.3754645672527 208.91195249456842 596.8419415328826 565.4023359549553 537.7723796917683 662.8972171680073 "></path><path d="M597.3220325989819 137.71727869010954C668.4609527795335 218.9692101218074 586.4818256943406 556.6969418211213 530.5211881606533 649.0605134966443C474.560550626966 741.4240851721672 399.8498926178336 662.3143541643171 328.71097243728195 581.0624227326193C257.57205225673044 499.8104913009213 133.09373376031908 351.4148143000174 189.05437129400644 259.0512426244944C245.0150088276938 166.68767094897152 526.1831124184304 56.46534725841161 597.3220325989819 137.71727869010954C668.4609527795335 218.9692101218074 586.4818256943406 556.6969418211213 530.5211881606533 649.0605134966443 "></path><path d="M586.3596830435155 152.28856302557654C653.5464409918142 229.02649826662457 576.1217098557987 547.9915782048655 523.2699966295386 635.2238403428594C470.4182834032782 722.4561024808532 399.8582175057643 647.7413565289949 332.67145955746554 571.0034212879468C265.48470160916685 494.2654860468988 147.921845251445 354.11401332382286 200.7735584777053 266.88175118582893C253.62527170396555 179.64948904783506 519.1729250952168 75.5506277845285 586.3596830435155 152.28856302557654C653.5464409918142 229.02649826662457 576.1217098557987 547.9915782048655 523.2699966295386 635.2238403428594 "></path><path d="M575.3973487468381 166.8598168434654C638.6319444628839 239.08375589386355 565.7616092760459 539.2861840710315 516.0188203572127 621.3871366714963C466.2760314383795 703.4880892719611 399.86655765248395 633.1683283760945 336.6319619364382 560.9443893256962C273.3973662203923 488.72045027529816 162.74997200136 356.8131818300501 212.49276092019323 274.7122292295853C262.2355498390264 192.61127662912048 512.1627530307923 94.63587779306727 575.3973487468381 166.8598168434654C638.6319444628839 239.08375589386355 565.7616092760459 539.2861840710315 516.0188203572127 621.3871366714963 "></path><path d="M564.4350297089497 181.4311011789324C623.7174631927428 249.14104403868066 555.401523955082 530.5808204547756 508.76765934367586 607.5504635177113C462.13379473226985 684.5201065806472 399.8749130579928 618.5953307407722 340.59247957419984 550.8853878810239C281.3100460904069 483.17544502127566 177.5781140100641 359.5123808538556 224.21197862147022 282.54273779091983C270.84584323287635 205.57309472798403 505.1525962251568 113.72115831918416 564.4350297089497 181.4311011789324C623.7174631927428 249.14104403868066 555.401523955082 530.5808204547756 508.76765934367586 607.5504635177113 "></path><path d="M553.4727106710615 196.00237025561034C608.8029819226015 259.1983169247087 545.0414386341183 521.8754415797307 501.51649833013926 593.7137751051373C457.9915580261602 665.5521086305441 399.8832684635016 604.0223178466608 344.5529972119615 540.8263711775624C289.2227259604214 477.630424508464 192.40625601876815 362.211564618872 235.9311963227472 290.3732310934653C279.4561366267262 218.53489756805857 498.14243941952145 132.80642358651198 553.4727106710615 196.00237025561034C608.8029819226015 259.1983169247087 545.0414386341183 521.8754415797307 501.51649833013926 593.7137751051373 "></path><path d="M542.510345856806 210.57360881471016C593.8884548760932 269.2555592931586 534.6813075367872 513.1700321871076 494.26529154023524 579.8770561749852C453.84927554368335 646.5840801628628 399.8915780926433 589.4492744349712 348.513469073356 530.7673239565227C297.13536005406877 472.0853734780742 207.234352251105 364.9107178663103 247.650368247657 298.2036938784326C288.06638424420896 231.49666989055493 491.1322368375187 151.89165833626168 542.510345856806 210.57360881471016C593.8884548760932 269.2555592931586 534.6813075367872 513.1700321871076 494.26529154023524 579.8770561749852 "></path><path d="M531.5480115601285 225.14486263259903C578.973958347163 279.31281692039767 524.3212069570344 504.4646380532736 487.01411526790946 566.0403525036222C449.70702357878463 627.6160669539709 399.899918239363 574.8762462820707 352.4739714523286 520.7082919942723C305.04802466529424 466.54033770647357 222.06247900102 367.60988637253763 259.36957069014494 306.034171922189C296.6766623792698 244.45845747184035 484.1220647730943 170.97690834480045 531.5480115601285 225.14486263259903C578.973958347163 279.31281692039767 524.3212069570344 504.4646380532736 487.01411526790946 566.0403525036222 "></path><path d="M520.5856772634512 239.7161164504879C564.0594618182326 289.37007454763665 513.9611063772816 495.75924391943954 479.7629389955837 552.2036488322592C445.5647716138859 608.6480537450786 399.9082583860827 560.3032181291703 356.43447383130126 510.64926003202163C312.9606892765197 460.99530193487294 236.89060575093504 370.309054878765 271.0887731326328 313.8646499659454C305.28694051433064 257.4202450531258 477.11189270866976 190.0621583533392 520.5856772634512 239.7161164504879C564.0594618182326 289.37007454763665 513.9611063772816 495.75924391943954 479.7629389955837 552.2036488322592 "></path><path d="M509.62334296677386 254.28737026837683C549.1449652893025 299.42733217487563 503.6010057975286 487.0538497856056 472.5117627232579 538.3669451608961C441.4225196489872 589.6800405361867 399.9165985328025 545.7301899762699 360.39497621027385 500.5902280697711C320.8733538877452 455.4502661632723 251.71873250085002 373.0082233849923 282.80797557512074 321.69512800970176C313.8972186493915 270.38203263441125 470.10172064424523 209.14740836187798 509.62334296677386 254.28737026837683C549.1449652893025 299.42733217487563 503.6010057975286 487.0538497856056 472.5117627232579 538.3669451608961 "></path><path d="M498.66102392888547 268.8586698626329C534.2304840191613 309.48463557848186 493.24092047656484 478.3485014281388 465.2606017097212 524.5302872659003C437.28028294287753 570.7120731036617 399.9249539383113 531.1572075997367 364.3554938480355 490.5312418838878C328.78603375775975 449.90527616803877 266.5468745095541 375.7074376675868 294.5271932763977 329.52565182982534C322.50751204324143 283.34386599206385 463.0915638386098 228.23270414678393 498.66102392888547 268.8586698626329C534.2304840191613 309.48463557848186 493.24092047656484 478.3485014281388 465.2606017097212 524.5302872659003 "></path><path d="M487.69867437341907 283.42992368052177C519.315972231442 319.54189320572084 482.88080463802294 469.64310729430485 458.00941017860634 510.69358359453713C433.13801571918975 551.7440598947696 399.933278826242 516.5841794468363 368.3159809682191 480.47220992163716C336.69868311019616 444.36024039643814 281.37498600068 378.4066061738141 306.2463804600966 337.3561298735817C331.1177749195132 296.30565357334933 456.08137651539613 247.3179541553227 487.69867437341907 283.42992368052177C519.315972231442 319.54189320572084 482.88080463802294 469.64310729430485 458.00941017860634 510.69358359453713 "></path><path d="M476.7363400767417 298.00117749841064C504.4014757025117 329.5991508329598 472.5207040582701 460.9377131604708 450.75823390628057 496.8568799231741C428.99576375429103 532.7760466858775 399.94161897296175 502.0111512939359 372.2764833471917 470.41317795938664C344.6113477214216 438.81520462483746 296.203112750595 381.10577468004146 317.9655829025845 345.1866079173381C339.72805305457405 309.26744115463475 449.07120445097166 266.40320416386146 476.7363400767417 298.00117749841064C504.4014757025117 329.5991508329598 472.5207040582701 460.9377131604708 450.75823390628057 496.8568799231741 "></path><path d="M465.7740057800643 312.5724313162995C489.4869791735815 339.6564084601988 462.1606034785172 452.2323190266368 443.50705763395473 483.0201762518111C424.8535117893923 513.8080334769854 399.94995911968147 487.43812314103536 376.23698572616433 460.35414599713613C352.52401233264715 433.2701688532368 311.03123950051 383.8049431862688 329.68478534507244 353.0170859610945C348.3383311896349 322.2292287359202 442.06103238654714 285.4884541724002 465.7740057800643 312.5724313162995C489.4869791735815 339.6564084601988 462.1606034785172 452.2323190266368 443.50705763395473 483.0201762518111 "></path><path d="M454.81165622459787 327.1436851341884C474.5724673858622 349.71366608743784 451.80048763997524 443.5269248928028 436.2558661028399 469.18347258044804C420.71124456570453 494.8400202680933 399.9582840076122 472.86509498813496 380.19747284634786 450.29511403488556C360.43666168508355 427.72513308163616 325.85935099163595 386.50411169249617 341.4039725287713 360.8475640048509C356.9485940659067 335.1910163172056 435.05084506333355 304.573704180939 454.81165622459787 327.1436851341884C474.5724673858622 349.71366608743784 451.80048763997524 443.5269248928028 436.2558661028399 469.18347258044804 "></path><path d="M443.84933718670953 341.7149542108663C459.657986115721 359.7709389734659 441.44040231901147 434.8215460177579 429.0047050893032 455.34678416787403C416.5690078595949 475.8720223179903 399.966639413121 458.2920820940236 384.1579904841095 440.23609733142405C368.3493415550981 422.18011256882454 340.68749300034 389.2032954575125 353.1231902300483 368.67805730739633C365.5588874597566 348.15281915728013 428.0406882576981 323.6589694482668 443.84933718670953 341.7149542108663C459.657986115721 359.7709389734659 441.44040231901147 434.8215460177579 429.0047050893032 455.34678416787403 "></path><path d="M432.88700289003214 356.2862232875443C444.74348958679076 369.82821185949393 431.08030173925863 426.1161671427129 421.7535288169774 441.5100957553001C412.42675589469616 456.90402436788725 399.97497955984073 443.7190691999122 388.11849286308217 430.1770806279626C376.26200616632354 416.6350920560129 355.515619750255 391.90247922252894 364.8423926725362 376.5085506099418C374.16916559481746 361.1146219973546 421.03051619327357 342.74423471559464 432.88700289003214 356.2862232875443C444.74348958679076 369.82821185949393 431.08030173925863 426.1161671427129 421.7535288169774 441.5100957553001 "></path><path d="M421.92466859335474 370.8574771054332C429.8289930578605 379.8854694867329 420.72020115950573 417.41077300887895 414.50235254465156 427.673392083937C408.28450392979744 437.93601115899514 399.9833197065605 429.1460410470118 392.07899524205476 420.118048665712C384.17467077754907 411.09005628441224 370.34374650017 394.6016477287563 376.56159511502415 384.33902865369816C382.7794437298783 374.07640957864004 414.02034412884905 361.8294847241334 421.92466859335474 370.8574771054332C429.8289930578605 379.8854694867329 420.72020115950573 417.41077300887895 414.50235254465156 427.673392083937 "></path><path d="M410.9623342966774 385.4287461821111C414.9144965289303 389.942742372761 410.36010057975284 408.705394133834 407.2511762723258 413.83670367136307C404.1422519648987 418.9680132088921 399.9916598532802 414.5730281529004 396.0394976210274 410.0590319622506C392.08733538877453 405.5450357716007 385.171873250085 397.30083149377265 388.2807975575121 392.1695219562436C391.38972186493913 387.0382124187146 407.0101720644245 380.91474999146124 410.9623342966774 385.4287461821111C414.9144965289303 389.942742372761 410.36010057975284 408.705394133834 407.2511762723258 413.83670367136307 "></path></g></svg>