<svg xmlns="http://www.w3.org/2000/svg" version="1.1" xmlns:xlink="http://www.w3.org/1999/xlink" xmlns:svgjs="http://svgjs.dev/svgjs" viewBox="0 0 800 800"><defs><linearGradient x1="50%" y1="0%" x2="50%" y2="100%" id="vvvortex-grad"><stop stop-color="hsl(1.4, 100%, 67%)" stop-opacity="1" offset="0%"></stop><stop stop-color="hsl(167, 52%, 78%)" stop-opacity="1" offset="100%"></stop></linearGradient></defs><g stroke="url(#vvvortex-grad)" fill="none" stroke-linecap="round"><circle r="363" cx="400" cy="400" stroke-width="11" stroke-dasharray="19 47" stroke-dashoffset="25" transform="rotate(239, 400, 400)" opacity="0.97"></circle><circle r="346.5" cx="400" cy="400" stroke-width="11" stroke-dasharray="38 36" stroke-dashoffset="25" transform="rotate(28, 400, 400)" opacity="0.56"></circle><circle r="330" cx="400" cy="400" stroke-width="10" stroke-dasharray="26 45" stroke-dashoffset="25" transform="rotate(54, 400, 400)" opacity="0.36"></circle><circle r="313.5" cx="400" cy="400" stroke-width="10" stroke-dasharray="35 44" stroke-dashoffset="25" transform="rotate(5, 400, 400)" opacity="0.18"></circle><circle r="297" cx="400" cy="400" stroke-width="10" stroke-dasharray="40 38" stroke-dashoffset="25" transform="rotate(219, 400, 400)" opacity="0.23"></circle><circle r="280.5" cx="400" cy="400" stroke-width="10" stroke-dasharray="29 41" stroke-dashoffset="25" transform="rotate(331, 400, 400)" opacity="0.74"></circle><circle r="264" cx="400" cy="400" stroke-width="9" stroke-dasharray="52 27" stroke-dashoffset="25" transform="rotate(254, 400, 400)" opacity="0.64"></circle><circle r="247.5" cx="400" cy="400" stroke-width="9" stroke-dasharray="38 54" stroke-dashoffset="25" transform="rotate(107, 400, 400)" opacity="0.47"></circle><circle r="231" cx="400" cy="400" stroke-width="9" stroke-dasharray="39 38" stroke-dashoffset="25" transform="rotate(165, 400, 400)" opacity="0.25"></circle><circle r="214.5" cx="400" cy="400" stroke-width="8" stroke-dasharray="19 54" stroke-dashoffset="25" transform="rotate(231, 400, 400)" opacity="0.42"></circle><circle r="198" cx="400" cy="400" stroke-width="8" stroke-dasharray="23 52" stroke-dashoffset="25" transform="rotate(303, 400, 400)" opacity="0.57"></circle><circle r="181.5" cx="400" cy="400" stroke-width="8" stroke-dasharray="54 54" stroke-dashoffset="25" transform="rotate(272, 400, 400)" opacity="0.17"></circle><circle r="165" cx="400" cy="400" stroke-width="8" stroke-dasharray="51 23" stroke-dashoffset="25" transform="rotate(111, 400, 400)" opacity="0.89"></circle><circle r="148.5" cx="400" cy="400" stroke-width="7" stroke-dasharray="28 53" stroke-dashoffset="25" transform="rotate(31, 400, 400)" opacity="0.99"></circle><circle r="132" cx="400" cy="400" stroke-width="7" stroke-dasharray="19 26" stroke-dashoffset="25" transform="rotate(321, 400, 400)" opacity="0.69"></circle><circle r="115.5" cx="400" cy="400" stroke-width="7" stroke-dasharray="44 30" stroke-dashoffset="25" transform="rotate(208, 400, 400)" opacity="0.64"></circle><circle r="99" cx="400" cy="400" stroke-width="6" stroke-dasharray="16 45" stroke-dashoffset="25" transform="rotate(25, 400, 400)" opacity="0.34"></circle><circle r="82.5" cx="400" cy="400" stroke-width="6" stroke-dasharray="27 30" stroke-dashoffset="25" transform="rotate(219, 400, 400)" opacity="0.27"></circle><circle r="66" cx="400" cy="400" stroke-width="6" stroke-dasharray="22 25" stroke-dashoffset="25" transform="rotate(94, 400, 400)" opacity="0.44"></circle><circle r="49.5" cx="400" cy="400" stroke-width="6" stroke-dasharray="55 14" stroke-dashoffset="25" transform="rotate(92, 400, 400)" opacity="0.08"></circle><circle r="33" cx="400" cy="400" stroke-width="5" stroke-dasharray="13 19" stroke-dashoffset="25" transform="rotate(271, 400, 400)" opacity="0.94"></circle><circle r="16.5" cx="400" cy="400" stroke-width="5" stroke-dasharray="49 29" stroke-dashoffset="25" transform="rotate(120, 400, 400)" opacity="0.41"></circle></g></svg>