<svg xmlns="http://www.w3.org/2000/svg" version="1.1" xmlns:xlink="http://www.w3.org/1999/xlink" xmlns:svgjs="http://svgjs.dev/svgjs" viewBox="0 0 800 800"><defs><linearGradient x1="50%" y1="0%" x2="50%" y2="100%" id="uundulate-grad"><stop stop-color="hsl(180, 69%, 40%)" stop-opacity="1" offset="45%"></stop><stop stop-color="hsl(180, 69%, 60%)" stop-opacity="1" offset="100%"></stop></linearGradient></defs><g stroke-width="2" stroke="url(#uundulate-grad)" fill="none"><path d="M635.5573496604621 432.1464997262615C618.5278727163529 516.9293734750066 616.5043031108944 539.5545878846458 574.8724512756085 576.9309502686588C533.2405994403223 614.3073126526717 519.4882717122025 605.8454282338696 435.7244608510889 611.5530391695231C351.9606499899753 617.2606501051765 230.29322463932067 665.5172705769324 172.80615914226223 604.3274827597961C115.31909364520385 543.1376949426597 108.08664941990236 383.9939546576637 159.78654646520914 317.84205764726875C211.48644351051593 251.6901606368737 317.4599578467926 317.6043982291885 420.9656649597349 286.7983771098997C524.4713720726774 255.99235599061092 611.9073396280144 139.6922973962732 656.6139406073327 169.97315627468186C701.320541586651 200.25401515309056 652.5868266045715 347.36362597751634 635.5573496604621 432.1464997262615C618.5278727163529 516.9293734750066 616.5043031108944 539.5545878846458 574.8724512756085 576.9309502686588 "></path><path d="M624.8501946288432 430.6853243236651C608.594784818557 511.61443108383094 606.6631956497104 533.2112266566684 566.9237007160282 568.8886634777716C527.184205782346 604.5661002988749 514.0569838600499 596.4888469900183 434.10061894716864 601.9370210649603C354.14425403428754 607.3851951399022 238.0071661995717 653.4483328629419 183.13314913419777 595.0398990374936C128.25913206882382 536.6314652120452 121.35543530830881 384.72153130363995 170.70533703337435 321.5765387028084C220.05523875843988 258.4315461019768 321.2117751703403 321.34968198555 420.0126774145126 291.9439345535016C518.8135796586848 262.53818712145323 602.2751850524157 151.52449482685807 644.9496678054013 180.42895102897546C687.624150558387 209.33340723109285 641.1056044391294 349.75621756349926 624.8501946288432 430.6853243236651C608.594784818557 511.61443108383094 606.6631956497104 533.2112266566684 566.9237007160282 568.8886634777716 "></path><path d="M614.1430548560131 429.22405736833434C598.6617121795502 506.29939713992076 596.8221034473154 526.8677738759565 558.974965415237 560.8462851341501C521.1278273831588 594.8247963923436 508.62571126668627 587.1321741934325 432.47679230203744 592.3209114076631C356.3278733373887 597.5096486218935 245.72112301861182 641.379303596217 193.46015438492236 585.7522237624567C141.1991857512329 530.1251439286964 134.62423645550427 385.4490163968818 181.62414286032862 325.31092820561366C228.62404926515296 265.1728400143454 324.96360775267715 325.09487418917706 419.0597051280794 297.08940044436906C513.1558025034815 269.08392669956106 592.6430457356062 163.35660070470857 633.2854102622591 190.88465423053464C673.9277747889121 218.41270775636076 629.6243975324762 352.1487175967478 614.1430548560131 429.22405736833434C598.6617121795502 506.29939713992076 596.8221034473154 526.8677738759565 558.974965415237 560.8462851341501 "></path><path d="M603.4358998243941 427.7628209305817C588.7286242817543 500.9843937135888 586.9809959861311 520.5243516128228 551.0262148556569 552.8039373081066C515.0714337251825 585.0835230033904 503.1944234145335 577.775531914425 430.8529503981173 582.7048322679439C358.51147738170096 587.6341326214629 253.43506457886286 629.3103048470703 203.7871443768579 576.4645790049979C154.13922417485287 523.6188531629255 147.89302234391073 386.1765320077018 192.54293342849382 329.04534822599703C237.19284451307698 271.9141644442922 328.71542507622496 328.8400969103823 418.1067175828571 302.2348968528147C507.49801008948907 275.6296967952471 583.0108911600074 175.18873710013725 621.6211374603278 201.340387949672C660.2313837606481 227.49203879920674 618.143175367034 354.5412481475745 603.4358998243941 427.7628209305817C588.7286242817543 500.9843937135888 586.9809959861311 520.5243516128228 551.0262148556569 552.8039373081066 "></path><path d="M592.7287447927752 426.30167604556345C578.7955363839585 495.66948183999125 577.1398885249471 514.1810209024234 543.0774642960766 544.7616810347976C509.0150400672062 575.3423411671718 497.76313556238097 568.4189811881517 429.229108494197 573.0888446809593C360.6950814260131 577.7587081737665 261.1490061391139 617.2413976506579 214.11413436879343 567.1770258002734C167.0792625984729 517.1126539498891 161.16180823231713 386.90413917125613 203.46172399665903 332.7798597991148C245.76163976100094 278.6555804269734 332.4672423997727 332.58541118432186 417.15373003763466 307.38048481399466C501.84021767549666 282.17555844366746 573.3787365844088 187.02096504830024 609.9568646583964 211.79621322154367C646.5349927323841 236.57146139478715 606.6619532015919 356.93387025113555 592.7287447927752 426.30167604556345C578.7955363839585 495.66948183999125 577.1398885249471 514.1810209024234 543.0774642960766 544.7616810347976 "></path><path d="M582.0216202787342 424.84045486659977C568.8624790037406 490.35449367244837 567.2988115813409 507.83761389807864 535.1287442540745 536.7193484675431C502.95867692680804 565.6010830370076 492.3318782278063 559.0623541679333 427.605297107855 563.4727808000291C362.87871598790343 567.8832074321251 268.86297821694313 605.1724141603001 224.44115487830703 557.8893963016037C180.019331539671 510.6063784429075 174.4306246383017 387.6316700408652 214.38054508240236 336.5142950782872C254.33046552650308 285.39692011570924 336.2190902408986 336.3306491643161 416.2007730099905 312.52599648122936C496.1824557790824 288.7213437981426 563.7466125263882 198.85311670251792 598.2926223740433 222.25196219947009C632.8386322216983 245.65080769642225 595.1807615537278 359.3264160607513 582.0216202787342 424.84045486659977C568.8624790037406 490.35449367244837 567.2988115813409 507.83761389807864 535.1287442540745 536.7193484675431 "></path><path d="M571.3144652471152 423.37924894642526C558.9293911059449 485.03952076369444 557.4577041201569 501.494222152523 527.1799936944943 528.6770311590778C496.90228326883175 555.8598401656327 486.9005903756537 549.7057424065038 425.98145520393473 553.8567321778883C365.06232003221567 558.0077219492725 276.5769197771941 593.1034459287314 234.76814487024257 548.601782061723C192.959369963291 504.1001181947148 187.6994105267081 388.3592161692633 225.29933565056757 340.2487456162487C262.89926077442703 292.1382750632342 339.9709075644464 340.07590240309946 415.2477854647682 317.67152340725306C490.52466336508996 295.26714441140666 554.1144579507895 210.68528361552467 586.6283495721119 232.70772643618557C619.1422411934343 254.7301692568464 583.6995393882858 361.7189771291561 571.3144652471152 423.37924894642526C558.9293911059449 485.03952076369444 557.4577041201569 501.494222152523 527.1799936944943 528.6770311590778 "></path><path d="M560.6072796979181 421.9180735438289C548.9962726905708 479.72457837251875 547.6165661413947 495.15086092454544 519.2312126173359 520.6347443681907C490.8458590932772 546.1186278118357 481.4692720059229 540.3491611626525 424.35758278243634 544.2407140733254C367.2458935589498 548.1322669839982 284.2908308198671 581.034508214741 245.09510434459997 539.3141983394206C205.89937786933285 497.59388846410036 200.96816589753644 389.0867928152395 236.21809570115465 343.9832266717884C271.4680255047729 298.87966052833724 343.7226943704161 343.8211861594609 414.29476740196776 322.81708085085495C484.8668404335193 301.812975542249 544.4822728576128 222.51748104610954 574.9640462526024 243.16352119047912C605.4458196475923 263.8095613348487 572.2182867052654 364.111568715139 560.6072796979181 421.9180735438289C548.9962726905708 479.72457837251875 547.6165661413947 495.15086092454544 519.2312126173359 520.6347443681907 "></path><path d="M549.9001551838771 420.4568523648653C539.0632153103531 474.40959020497576 537.7754891977886 488.8074539202007 511.2824925753339 512.5924118009362C484.78949595287907 536.3773696816718 476.0380146713484 530.9925341424341 422.7337713960942 534.6246501923954C369.4295281208401 538.2567662423567 292.00480289769627 568.9655247243832 255.42212485411363 530.026568840751C218.839446810531 491.0876129571186 214.23698230352096 389.81432368484855 247.13691678689798 347.7176619509608C280.03685127027506 305.62100021707306 347.474542211542 347.5664241394552 413.3418103743235 327.9625925180896C479.20907853710503 308.358760896724 534.8501487995923 234.34963270032728 563.2998039682493 253.61927016840554C591.7494591369064 272.88890763648374 560.7370950574013 366.50411452475475 549.9001551838771 420.4568523648653C539.0632153103531 474.40959020497576 537.7754891977886 488.8074539202007 511.2824925753339 512.5924118009362 "></path><path d="M539.1930001522583 418.9956159271126C529.1301274125572 469.0945867786438 527.9343817366046 482.46403165706704 503.3337420157536 504.55006397489274C478.7331022949028 526.6360962927185 470.6067268191957 521.6358918634264 421.10992949217393 525.0085710526762C371.61313216515225 528.381250241926 299.7187444579473 556.8965259752363 265.74911484604917 520.7389240832921C231.77948523415097 484.5813221913479 227.50576819192742 390.5418392956685 258.0557073550632 351.45208197134417C288.605646518199 312.3623246470199 351.2263595350898 351.3116468606604 412.3888228291012 333.10808892653523C473.5512861231126 314.90453099241 525.2179942239936 246.1817690957559 551.6355311663181 264.07500388754283C578.0530681086425 281.9682386793298 549.2558728919591 368.89664507558143 539.1930001522583 418.9956159271126C529.1301274125572 469.0945867786438 527.9343817366046 482.46403165706704 503.3337420157536 504.55006397489274 "></path><path d="M528.485814603061 417.53444052451624C519.1970089971833 463.7796443874681 518.0932437578423 476.1206704290895 495.3849609385953 496.5077771840056C472.67667811934837 516.8948839389218 465.17540844946484 512.2793106195752 419.48605707067566 515.3925529481135C373.79670569188636 518.5057952766517 307.4326555006202 544.8275882612459 276.0760743204065 511.45134036098966C244.71949314019287 478.07509246073346 240.7745235627557 391.26941594164475 268.9744674056503 355.18656302688385C297.1744112485449 319.1037101121229 354.9781463410594 355.05693061702186 411.43580476630075 338.25364637013706C467.8934631915421 321.45036212325226 515.5858091308168 258.01396652634077 539.9712278468086 274.53079864183644C564.3566465628004 291.04763075733206 537.7746202089388 371.28923666156436 528.485814603061 417.53444052451624C519.1970089971833 463.7796443874681 518.0932437578423 476.1206704290895 495.3849609385953 496.5077771840056 "></path><path d="M517.7786900890201 416.0732346043417C509.2639516169655 458.4646714787143 508.25216681423626 469.77727868353384 487.4362408965933 488.4654598755403C466.6203149789502 507.1536410675468 459.7441511148903 502.92269885814574 417.8622456843335 505.7765043259725C375.9803402537767 508.63030979379914 315.1466275784494 532.7586200296771 286.4030948299202 502.163726121109C257.65956208139096 471.56883221254077 254.04333996874027 391.9969620700428 279.8932884913936 358.92101356484534C305.743237014047 325.8450650596478 358.72999418218535 358.8021838558052 410.4828477386565 343.3991732961608C462.2357012951277 327.9961627365164 505.95368507279625 269.8461334393475 528.3069855624553 284.98656287855187C550.6602860521145 300.1269923177562 526.2934285610747 373.6817977299691 517.7786900890201 416.0732346043417C509.2639516169655 458.4646714787143 508.25216681423626 469.77727868353384 487.4362408965933 488.4654598755403 "></path><path d="M507.0715350574011 414.6120134253781C499.33086371916966 453.1496833111713 498.4110593530522 463.4338716791892 479.487490337013 480.423127308286C460.5639213209739 497.41238293738274 454.31286326273766 493.5660718379272 416.23840378041325 496.16044044504247C378.1639442980889 498.7548090521577 322.86056913870044 520.6896365393195 296.7300848218557 492.87609662243926C270.599600505011 465.06255670555913 267.31212585714667 392.72449293965184 290.81207905955887 362.65544884401777C314.312032261971 332.58640474838364 362.4818115057331 362.54742183579947 409.5298601934342 348.54468496339547C456.5779088811353 334.54194809099147 496.3215304971976 281.67828509356525 516.6427127605241 295.4423118564783C536.9638950238506 309.2063386193913 514.8122063956326 376.07434353958485 507.0715350574011 414.6120134253781C499.33086371916966 453.1496833111713 498.4110593530522 463.4338716791892 479.487490337013 480.423127308286 "></path><path d="M496.3643800257821 413.1508380227817C489.3977758213738 447.8347409199956 488.5699518918681 457.0905104512117 471.53873977743285 472.38084051739884C454.50752766299763 487.6711705835859 448.881575410585 484.2094905940759 414.61456187649304 486.5444223404796C380.34754834240107 488.87935408688327 330.5745106989515 508.6206988253289 307.05707481379125 483.5885129001367C283.53963892863095 458.55632697494457 280.5809117455531 393.45206958562807 301.7308696277241 366.3899298995574C322.88082750989497 339.3277902134867 366.23362882928086 366.2927055921609 408.57687264821186 353.69024240699736C450.92011646714286 341.0877792218337 486.68937592159887 293.5104825241501 504.97843995859273 305.89810661077183C523.2675039955866 318.2857306973936 503.33098423019055 378.4669351255678 496.3643800257821 413.1508380227817C489.3977758213738 447.8347409199956 488.5699518918681 457.0905104512117 471.53873977743285 472.38084051739884 "></path><path d="M485.657224994163 411.6896473613962C479.4646879235779 442.5197832700308 478.7288444306839 450.7471339644451 463.58998921785263 464.3385384677225C448.45113400502134 477.92994297099995 443.4502875584323 474.8528940914355 412.99071997257283 476.9283889771277C382.5311523867133 479.00388386281986 338.28845225920253 496.5517458525493 317.3840648057268 474.3009139190451C296.479677352251 452.050081985541 293.8496976339595 394.17963097281523 312.6496601958893 370.12439569630794C331.449622757819 346.06916041980065 369.9854461528287 370.0379740897333 407.62388510298956 358.8357845918101C445.26232405315045 347.6335950938869 477.05722134600023 305.3426646959459 493.31416715666137 316.3538861062764C509.5711129673226 327.36510751660677 491.84976206474835 380.85951145276164 485.657224994163 411.6896473613962C479.4646879235779 442.5197832700308 478.7288444306839 450.7471339644451 463.58998921785263 464.3385384677225 "></path><path d="M474.95006996254403 410.2284414412217C469.53160002578204 437.20481036127694 468.88773696949977 444.4037422188894 455.6412386582724 456.2962211592572C442.394740347045 468.18870009962495 438.01899970627966 465.4962823300061 411.36687806865257 467.31234035498676C384.71475643102553 469.1283983799674 346.0023938194536 484.48277762098064 327.71105479766226 465.01329967916456C309.41971577587094 445.54382173734837 307.118483522366 394.90717710121334 323.5684507640545 373.85884623426944C340.018418005743 352.8105153673256 373.7372634763765 373.78322732851666 406.6708975577672 363.9813115178339C439.604531639158 354.17939570715106 467.4250667704016 317.1748316089527 481.6498943547301 326.8096503429918C495.87472193905865 336.44446907703093 480.36853989930614 383.25207252116644 474.95006996254403 410.2284414412217C469.53160002578204 437.20481036127694 468.88773696949977 444.4037422188894 455.6412386582724 456.2962211592572 "></path><path d="M464.24291493092505 408.7672202622581C459.59851212798617 431.88982219373406 459.0466295083157 438.06033521454475 447.6924880986922 448.2538885920028C436.3383466890687 458.4474419694609 432.58771185412695 456.1396553097876 409.74303616473236 457.69627647405673C386.8983604753377 459.25289763832586 353.7163353797046 472.41379413062293 338.0380447895978 455.72567018049483C322.35975419949096 439.03754623036673 320.3872694107724 395.6347079708224 334.4872413322197 377.5932815134419C348.58721325366696 359.55185505606147 377.48908079992424 377.52846530851093 405.7179100125449 369.12682318506853C433.9467392251656 360.72518106162613 457.7929121948029 329.0069832631704 469.9856215527988 337.2653993209182C482.1783309107947 345.52381537866603 468.88731773386394 385.6446183307822 464.24291493092505 408.7672202622581C459.59851212798617 431.88982219373406 459.0466295083157 438.06033521454475 447.6924880986922 448.2538885920028 "></path><path d="M453.5357751580951 407.3060143420836C449.66543948897936 426.5748492849802 449.20553730592064 431.71694346898914 439.74375279790104 440.2115712835375C430.2819682898815 448.7061990980859 427.15643926076336 446.78304354835814 408.11920951960116 448.08022785191577C389.08197977843895 449.3774121554734 361.4302921987447 460.3448258990543 348.3650500403224 446.43805594061416C335.2998078819 432.5312859821741 333.6560705579679 396.3622540992205 345.40604715917397 381.3277320514034C357.15602376038004 366.29321000358635 381.2409133822611 381.27371854729427 404.7649377261116 374.2723501110923C428.28896206996217 367.27098167489027 448.16077287799334 340.83915017617716 458.3213640096566 347.72116355763364C468.4819551413198 354.6031769390902 457.40611082721085 388.037179399187 453.5357751580951 407.3060143420836C449.66543948897936 426.5748492849802 449.20553730592064 431.71694346898914 439.74375279790104 440.2115712835375 "></path><path d="M442.828604867687 405.8448084219091C439.7323363323944 421.2598763762263 439.36441458594743 425.3735517234335 431.7949869795318 432.1692539750722C424.22555937311614 438.9649562267109 421.72513614982165 437.4264317869287 406.4953523568919 438.4641792297748C391.2655685639621 439.50192667262087 369.14421850020676 448.2758576674856 358.69202477346886 437.1504417007335C348.23983104673096 426.02502573398147 346.92484118758523 397.0898002276185 356.3248224685501 385.0621825893649C365.724803749515 373.0345649511113 384.9927154470198 385.0189717860776 403.81193492210025 379.417877037116C422.6311543971807 373.8167822881544 438.5286030436056 352.6713170891839 446.65707594893615 358.1769277943491C454.7855488542668 363.68253849951435 445.92487340297964 390.4297404675917 442.828604867687 405.8448084219091C439.7323363323944 421.2598763762263 439.36441458594743 425.3735517234335 431.7949869795318 432.1692539750722 "></path><path d="M432.12146509485706 404.3836177605236C429.7992636933876 415.94491872626156 429.52332238355234 419.03017523666693 423.8462516787406 424.12695192539593C418.16918097392886 429.223728614125 416.293863556458 428.06983528428833 404.8715257117607 428.8481458664229C393.4491878670634 429.62645644855746 376.85817531924687 436.206904694706 369.01903002419346 427.86284271964195C361.17988472914 419.5187807445779 360.19364233478075 397.8173616148057 367.2436282955044 388.79664838611546C374.293614256228 379.77593515742524 388.7445480293567 388.76424028365 402.85896263566696 384.5634192219288C416.9733772419773 380.3625981602076 428.896463726796 364.5034992609797 434.99281840579397 368.6327072898536C441.0891730847919 372.7619153187276 434.4436664963265 392.8223167947856 432.12146509485706 404.3836177605236C429.7992636933876 415.94491872626156 429.52332238355234 419.03017523666693 423.8462516787406 424.12695192539593 "></path><path d="M421.414310063238 402.92241184034907C419.86617579559174 410.6299458175077 419.68221492236825 412.68678349111127 415.89750111916044 416.08463461693066C412.1127873159526 419.48248574275 410.86257570430536 418.71322352285887 403.2476838078405 419.23209724428193C395.6327919113756 419.75097096570494 384.5721168794979 424.1379364631373 379.34602001612893 418.5752284797613C374.11992315276 413.01252049638526 373.46242822318715 398.5449077432038 378.1624188636696 392.531098924077C382.862409504152 386.5172901049502 392.49636535290443 392.50949352243333 401.90597509044466 389.70894614795253C411.3155848279849 386.90839877347173 419.2643091511973 376.3356661739865 423.3285456038626 379.0884715265691C427.39278205652795 381.8412768791517 422.96244433088435 395.2148778631904 421.414310063238 402.92241184034907C419.86617579559174 410.6299458175077 419.68221492236825 412.68678349111127 415.89750111916044 416.08463461693066 "></path><path d="M410.70715503161904 401.4612059201745C409.9330878977959 405.3149729087539 409.84110746118415 406.34339174555566 407.9487505595802 408.04231730846533C406.0563936579763 409.741242871375 405.43128785215265 409.35661176142946 401.6238419039202 409.61604862214097C397.8163959556878 409.87548548285247 392.28605843974896 412.06896823156865 389.67301000806447 409.28761423988067C387.05996157638 406.50626024819263 386.7312141115936 399.2724538716019 389.0812094318348 396.2655494620385C391.431204752076 393.25864505247506 396.2481826764522 396.25474676121667 400.9529875452223 394.8544730739763C405.6577924139924 393.45419938673587 409.6321545755987 388.16783308699326 411.6642728019313 389.5442357632845C413.696391028264 390.92063843957584 411.48122216544215 397.6074389315952 410.70715503161904 401.4612059201745C409.9330878977959 405.3149729087539 409.84110746118415 406.34339174555566 407.9487505595802 408.04231730846533 "></path></g></svg>