<svg xmlns="http://www.w3.org/2000/svg" version="1.1" xmlns:xlink="http://www.w3.org/1999/xlink" xmlns:svgjs="http://svgjs.dev/svgjs" viewBox="0 0 800 800"><defs><linearGradient x1="50%" y1="0%" x2="50%" y2="100%" id="uundulate-grad"><stop stop-color="hsl(37, 99%, 67%)" stop-opacity="1" offset="45%"></stop><stop stop-color="hsl(316, 73%, 52%)" stop-opacity="1" offset="100%"></stop></linearGradient></defs><g stroke-width="2" stroke="url(#uundulate-grad)" fill="none"><path d="M662.0324224184262 180.82746982368775C696.9687552767338 262.6607223517428 657.9154710471115 494.88500929870884 585.5513020981957 587.9268127202092C513.1871331492799 680.9686161417095 410.60670937932616 660.3392076207377 314.6844114636302 627.4281262468896C218.76211354793423 594.5170448730416 129.49504061486698 508.0149002797432 125.12427210285546 429.95362212573843C120.75350359084393 351.89234397173357 232.71875754858667 301.6561622618733 293.704722605975 252.73399110766638C354.6906876633634 203.81181995345946 341.12196691739166 210.1077258530405 417.856904378319 195.1272005855451C494.5918418392462 180.14667531804963 627.0960895601186 98.99421729563272 662.0324224184262 180.82746982368775C696.9687552767338 262.6607223517428 657.9154710471115 494.88500929870884 585.5513020981957 587.9268127202092 "></path><path d="M650.121889667784 190.7898638012066C683.4702073961685 268.9034230325318 646.1920724497108 490.5720605728177 577.1171839075639 579.3846911115224C508.0422953654171 668.1973216502273 410.12461813046116 648.5056135165726 318.5624246654787 617.0904903869903C227.00023120049616 585.675367257408 141.79075249165925 503.1051383274414 137.61865527564828 428.59210008952766C133.44655805963725 354.0790618516139 240.32248229202804 306.12634294674734 298.536358028626 259.4279068450044C356.75023376522404 212.72947074326134 343.7982730531601 218.7391991019524 417.04525881131804 204.4396068011613C490.2922445694759 190.14001450037017 616.7735719393994 112.67630456988132 650.121889667784 190.7898638012066C683.4702073961685 268.9034230325318 646.1920724497108 490.5720605728177 577.1171839075639 579.3846911115224 "></path><path d="M638.2113111407746 200.75227303751444C669.971613739236 275.14613897210995 634.4686280759429 486.2591271057155 568.6830199405649 570.842584761625C502.89741180518706 655.4260424175343 409.6424811052291 636.6720346711963 322.44039209096 606.7528697858797C235.23830307669095 576.8337049005634 154.08641859208433 498.19539163392847 150.11299267207386 427.23059331210595C146.1395667520634 356.2657949902833 247.92616125910223 310.59653889041044 303.36794767490983 266.12183784113137C358.8097340907175 221.64713679185235 346.4745334125613 227.37068760965332 416.2335674679498 213.75202827556654C485.9926015233382 200.13336894147977 606.451008542313 126.35840710291893 638.2113111407746 200.75227303751444C669.971613739236 275.14613897210995 634.4686280759429 486.2591271057155 568.6830199405649 570.842584761625 "></path><path d="M626.3007478725542 210.71462123866604C656.4730353410926 281.38879387653174 622.7451989609642 481.94613260345704 560.2488712323551 562.300417376571C497.752543503746 642.6547021496849 409.16035933878595 624.8383947906638 326.3183747752304 596.4151881496132C243.47639021167475 567.9919815085625 166.38209995129847 493.2855839052595 162.60734532728856 425.869025499528C158.83259070327858 358.4524670937965 255.52985548496548 315.06667379891724 308.1995525799827 272.81570780210217C360.8692496749999 230.5647418052871 349.1508090307516 236.00211508219797 415.4218913833706 223.06438871481555C481.69297373598965 210.12666234743313 596.1284604040158 140.04044860080035 626.3007478725542 210.71462123866604C656.4730353410926 281.38879387653174 622.7451989609642 481.94613260345704 560.2488712323551 562.300417376571 "></path><path d="M614.3901846043337 220.67699995739582C642.9744569429491 287.63147929853176 611.0217698459853 477.63316861877684 551.8147225241453 553.7582805090951C492.607675202305 629.8833923994137 408.6782375723428 613.0047854277095 330.19635745950075 586.0775370309248C251.71447734665855 559.1502886341399 178.67778131051261 488.37580669416843 175.1016979825032 424.50748820452816C171.52561465449378 360.6391697148879 263.13354971082873 319.5368392250022 313.0311574850556 279.50960828065104C362.9287652592824 239.48237733629992 351.8270846489419 244.63357307232081 414.61021529879145 232.37677967164274C477.3933459486411 220.1199862709646 585.8059122657185 153.72252061625989 614.3901846043337 220.67699995739582C642.9744569429491 287.63147929853176 611.0217698459853 477.63316861877684 551.8147225241453 553.7582805090951 "></path><path d="M602.4796213361135 230.63940919370367C629.4758785448057 293.8741952381098 599.2983407310066 473.3202351516745 543.3805738159353 545.2161741591975C487.46280690086405 617.1121131667205 408.1961158058998 601.1712065823333 334.0743401437711 575.7399164298142C259.95256448164236 550.3086262772953 190.97346266972676 483.4660600006557 187.59605063771784 423.14598142710645C184.21863860570897 362.8259028535573 270.737243936692 324.00703516866525 317.8627623901284 286.2035392767781C364.9882808435649 248.40004338489086 354.50336026713217 253.26506158002172 413.7985392142124 241.689201146048C473.0937181612926 230.1133407120742 575.4833641274212 167.40462314929755 602.4796213361135 230.63940919370367C629.4758785448057 293.8741952381098 599.2983407310066 473.3202351516745 543.3805738159353 545.2161741591975 "></path><path d="M590.569058067893 240.6018031712225C615.9773001466622 300.1168959188989 587.5749116160277 469.0072864257834 534.9464251077254 536.6740525505109C482.3179385994231 604.3408186752383 407.7139940394567 589.337612478168 337.9523228280415 565.4022805699149C268.19065161662616 541.4669486616617 203.2691440289409 478.5562980483537 200.09040329293254 421.7844593908957C196.91166255692417 365.01262073343764 278.34093816255523 328.4772158535393 322.6943672952013 292.8974550141161C367.0477964278474 257.3176941746928 357.17963588532245 261.89653482893357 412.9868631296333 251.00160736166418C468.7940903739441 240.10667989439474 565.1608159891239 181.0867104235461 590.569058067893 240.6018031712225C615.9773001466622 300.1168959188989 587.5749116160277 469.0072864257834 534.9464251077254 536.6740525505109 "></path><path d="M578.6584642820947 250.5641971487413C602.4786912309406 306.3595965996879 575.8514519834708 464.6943376998921 526.5122458819374 528.1319309418241C477.173039780404 591.5695241837561 407.2318417554354 577.5040183740027 341.83027499473366 555.0646447100153C276.4287082340319 532.625271046028 215.56479487057692 473.64653609605193 212.58472543056905 420.4229373546849C209.60465599056118 367.199338613318 285.94460187084036 332.9473965384133 327.52594168269604 299.591370751454C369.1072814945518 266.23534496449474 359.8558809859347 270.52800807784547 412.175156527476 260.3140135772804C464.4944320690173 250.10001907671528 554.8382373332485 194.7687976977947 578.6584642820947 250.5641971487413C602.4786912309406 306.3595965996879 575.8514519834708 464.6943376998921 526.5122458819374 528.1319309418241 "></path><path d="M566.7479315314523 260.5265911262601C588.9801433503753 312.60229728047693 564.1280533860702 460.38138897400086 518.0781276913057 519.5898093331374C472.02820199654104 578.7982296922739 406.74975050657054 565.6704242698374 345.70828819658215 544.7270088501159C284.6668258865938 523.7835934303944 227.8605067473692 468.7367741437499 225.07910860336187 419.06141531847413C222.2977104593545 369.38605649319834 293.54832661428173 337.4175772232873 332.35757710534705 306.28528648879194C371.16682759641236 275.1529957542966 362.5321871217031 279.1594813267573 411.36351096047497 269.62641979289657C460.1948347992469 260.0933582590358 544.5157197125293 208.4508849720433 566.7479315314523 260.5265911262601C588.9801433503753 312.60229728047693 564.1280533860702 460.38138897400086 518.0781276913057 519.5898093331374 "></path><path d="M554.8373377456539 270.4889545862008C575.4815344346538 318.84496744368784 552.4045937535134 456.06840973053147 509.6439484655177 511.0476572068726C466.88330317752195 566.0269046832136 406.2675982225493 553.836799648094 349.5862403632744 534.3893424726383C292.9048825039995 514.9418852971826 240.1561575890052 463.8269816738699 237.5734307409984 417.69986276468524C234.99070389299158 371.57274385550056 301.15199032256686 341.88772739058317 337.1891514928418 312.9791717085518C373.2263126631167 284.07061602652044 365.20843222231525 287.79092405809104 410.55180435831767 278.93879549093464C455.89517649432025 270.08666692377824 534.1931410566539 222.13294172871372 554.8373377456539 270.4889545862008C575.4815344346538 318.84496744368784 552.4045937535134 456.06840973053147 509.6439484655177 511.0476572068726 "></path><path d="M542.9267744774335 280.45136382250865C561.9829560365104 325.0876833832659 540.6811646385345 451.7554762634293 501.2097997573078 502.5055508569749C461.738434876081 553.2556254505205 405.78547645610615 542.0032208027178 353.46422304754475 524.0517218715279C301.1429696389833 506.1002229403381 252.45183894821935 458.9172349803571 250.0677833962131 416.33835598726364C247.68372784420677 373.75947699417003 308.75568454843005 346.35792333424627 342.0207563979146 319.67310270467885C375.2858282473992 292.9882820751114 367.88470784050554 296.422412565792 409.7401282737386 288.25121696533995C451.5955487069717 280.08002136488784 523.8705929183566 235.81504426175138 542.9267744774335 280.45136382250865C561.9829560365104 325.0876833832659 540.6811646385345 451.7554762634293 501.2097997573078 502.5055508569749 "></path><path d="M531.0162264680022 290.41374254123843C548.4843928971559 331.33036880526595 528.9577507823449 447.44251227874895 492.7756663078869 493.96341398949914C456.59358183342897 540.4843157002492 405.30336994845214 530.1696114397635 357.3422209906042 513.7140707528393C309.38107203275615 497.25853006591535 264.74753556622255 454.0074577692661 262.5621513102168 414.97681869226375C260.37676705421103 375.9461796152613 316.3593940330824 350.8280887603312 346.85237656177657 326.3670031832277C377.34535909047077 301.90591760612426 370.5609987174849 305.0538705559148 408.92846744794855 297.5636079221671C447.29593617841215 290.0733452884193 513.5480600388483 249.49711627721092 531.0162264680022 290.41374254123843C548.4843928971559 331.33036880526595 528.9577507823449 447.44251227874895 492.7756663078869 493.96341398949914 "></path><path d="M519.1056326822037 300.3761060011791C534.9857839814345 337.57303896847685 517.2342911497879 443.12953303527956 484.34148708209887 485.42126186323435C451.4486830144099 527.712990691189 404.82121766443095 518.33598681802 361.2201731572964 503.37640437536174C317.6191286501619 488.41682193270356 277.04318640785857 449.0976652993861 275.05647344785336 413.61526613847485C273.0697604878481 378.13286697756354 323.9630577413675 355.2982389276271 351.6839509492713 333.0608884029876C379.40484415717515 310.823537878348 373.23724381809706 313.68531328724856 408.1167608457913 306.87598362020515C442.9962778734855 300.0666539531618 503.22548138297293 263.17917303388134 519.1056326822037 300.3761060011791C534.9857839814345 337.57303896847685 517.2342911497879 443.12953303527956 484.34148708209887 485.42126186323435 "></path><path d="M507.1951151903504 310.33851523748694C521.4872513596581 343.81575490805494 505.51090781117625 438.8165995681775 475.90738415025623 476.8791555133366C446.3038604893361 514.9417114584959 404.339141674355 506.5024079726438 365.09820161793397 493.03878377425144C325.85726156151287 479.57515957585906 289.3389135434399 444.1879186058733 287.5508718794352 412.25375936105314C285.7628302154305 380.319600116233 331.56679774359793 359.7684348712902 356.5156016307114 339.7548193991146C381.4644055178248 319.741203926939 375.91356521265453 322.31680179494947 407.3051305375793 316.1884050946104C438.69669586250416 310.0600083942714 492.9029790210428 276.861275566919 507.1951151903504 310.33851523748694C521.4872513596581 343.81575490805494 505.51090781117625 438.8165995681775 475.90738415025623 476.8791555133366 "></path><path d="M495.2845214045519 320.3009092150058C507.98864244393656 350.05845558884397 493.78744817861934 434.5036508422862 467.4732049244682 468.33703390464996C441.158961670317 502.1704169670137 403.8569893903338 494.66881386847854 368.9761537846262 482.70114791435196C334.09531817891855 470.7334819602254 301.6345643850759 439.2781566535714 300.0451940170717 410.89223732484237C298.45582364906755 382.50631799611335 339.17046145188306 364.2386155561642 361.34717601820614 346.44873513645257C383.52389058452917 328.65885471674096 378.5898103132667 330.9482750438613 406.49342393542213 325.5008113102266C434.3970375575775 320.05334757659193 482.5804003651674 290.5433628411676 495.2845214045519 320.3009092150058C507.98864244393656 350.05845558884397 493.78744817861934 434.5036508422862 467.4732049244682 468.33703390464996 "></path><path d="M483.37395813633157 330.2632879337355C494.49006404579313 356.30114101084393 482.06401906364056 430.1906868576059 459.0390562162583 459.79489703717417C436.014093368876 489.39910721674244 403.37486762389074 482.8352045055242 372.85413646889657 472.3634967956634C342.33340531390235 461.89178908580266 313.93024574429006 434.36837944248043 312.5395466722864 409.53070002984254C311.14884760028275 384.69302061720464 346.7741556777463 368.7087809822491 366.17878092327896 353.14263561500144C385.5834061688116 337.5764902477538 381.26608593145704 339.57973303398416 405.68174785084295 334.8132022670538C430.0974097702289 330.0466715001234 472.2578522268701 304.2254348566271 483.37395813633157 330.2632879337355C494.49006404579313 356.30114101084393 482.06401906364056 430.1906868576059 459.0390562162583 459.79489703717417 "></path><path d="M471.46339486811127 340.22568191125436C480.9914856476497 362.54384169163296 470.3405899486618 425.87773813171464 450.6049075080484 451.25277542848744C430.869225067435 476.62781272526024 402.8927458574476 471.0016104013589 376.7321191531669 462.02586093576394C350.5714924488862 453.05011147016904 326.2259271035042 429.45861749017854 325.03389932750105 408.1691779936318C323.84187155149795 386.879738497085 354.37784990360956 373.17896166712313 371.01038582835184 359.8365513523394C387.64292175309413 346.4941410375557 383.94236154964733 348.211206282896 404.87007176626383 344.12560848267C425.7977819828804 340.04001068244395 461.9353040885728 317.9075221308757 471.46339486811127 340.22568191125436C480.9914856476497 362.54384169163296 470.3405899486618 425.87773813171464 450.6049075080484 451.25277542848744 "></path><path d="M459.5528315998909 350.1880606299841C467.4929072495063 368.7865271136329 458.617160833683 421.5647741470343 442.1707587998385 442.7106385610117C425.724356765994 463.85650297498904 402.41062409100454 459.16800103840455 380.61010183743724 451.6882098170754C358.80957958387 444.2084185957463 338.52160846271835 424.5488402790876 337.52825198271574 406.807640698632C336.5348955027131 389.06644111817633 361.9815441294728 377.64912709320805 375.8419907334247 366.5304518308883C389.70243733737664 355.41177656856854 386.6186371678376 356.8426642730188 404.0583956816847 353.4379994394971C421.4981541955318 350.0333346059754 451.6127559502755 331.58959414633523 459.5528315998909 350.1880606299841C467.4929072495063 368.7865271136329 458.617160833683 421.5647741470343 442.1707587998385 442.7106385610117 "></path><path d="M447.64225307288143 360.15045460750287C453.99431359257375 375.029227794422 446.89371645991514 417.2518254211431 433.73659483283956 434.168516952325C420.579473205764 451.08520848350685 401.9284870657724 447.33440693423927 384.48806926291854 441.350573957176C367.04765146006474 435.3667409801127 350.8172745631434 419.6390783267857 350.0225893791413 405.4461186624212C349.2279041951392 391.2531589980567 369.585223096547 382.1193077780821 380.67358037970854 373.2243675682263C391.76193766287 364.3294273583705 389.29489752723885 365.4741375219307 403.24670433831653 362.7504056551133C417.1985111493942 360.02667378829597 441.2901925531892 345.2716814205838 447.64225307288143 360.15045460750287C453.99431359257375 375.029227794422 446.89371645991514 417.2518254211431 433.73659483283956 434.168516952325 "></path><path d="M435.7316898046611 370.11283332623265C440.4957351944303 381.271913216422 435.17028734493636 412.9388614364628 425.3024461246297 425.6263800848492C415.43460490432295 438.3138987332356 401.4463652993293 435.5007975712849 388.3660519471889 431.01292283848744C375.28573859504854 426.52504810568996 363.11295592235757 414.72930111569474 362.516942034356 404.0845813674214C361.9209281463544 393.43986161914796 377.18891732241025 386.589473204167 385.5051852847814 379.91826804677515C393.82145324715253 373.2470628893833 391.97117314542913 374.10559551205347 402.4350282537374 372.0627966119404C412.89888336204564 370.01999771182744 430.9676444148919 358.9537534360433 435.7316898046611 370.11283332623265C440.4957351944303 381.271913216422 435.17028734493636 412.9388614364628 425.3024461246297 425.6263800848492 "></path><path d="M423.8211265364407 380.07522730375143C426.99715679628684 387.514613897211 423.44685822995757 408.6259127105715 416.86829741641975 417.0842584761625C410.289736602882 425.54260424175345 400.9642435328862 423.66720346711963 392.2440346314593 420.67528697858796C383.5238257300324 417.68337049005635 375.4086372815717 409.81953916339285 375.01129468957066 402.7230593312106C374.6139520975696 395.62657949902837 384.7926115482735 391.05965388904104 390.33679018985424 386.61218378411314C395.88096883143504 382.16471367918524 394.6474487636194 382.7370687609653 401.62335216915824 381.3752028275567C408.5992555746971 380.013336894148 420.6450962765946 372.6358407102919 423.8211265364407 380.07522730375143C426.99715679628684 387.514613897211 423.44685822995757 408.6259127105715 416.86829741641975 417.0842584761625 "></path><path d="M411.91056326822036 390.0376060224812C413.4985783981434 393.757299319211 411.7234291149788 404.31294872589126 408.4341487082099 408.5421216086867C405.14486830144097 412.7712944914822 400.4821217664431 411.8335941041653 396.12201731572964 410.3376358598995C391.7619128650162 408.8416776156336 387.70431864078586 404.9097619523019 387.50564734478536 401.3615220362108C387.3069760487848 397.81328212011965 392.39630577413675 395.52981931512596 395.1683950949271 393.306084262662C397.9404844157175 391.08234921019806 397.3237243818097 391.36852675108815 400.8116760845791 390.6875937843838C404.2996277873485 390.00666081767946 410.3225481382973 386.3179127257514 411.91056326822036 390.0376060224812C413.4985783981434 393.757299319211 411.7234291149788 404.31294872589126 408.4341487082099 408.5421216086867 "></path></g></svg>