<svg xmlns="http://www.w3.org/2000/svg" version="1.1" xmlns:xlink="http://www.w3.org/1999/xlink" xmlns:svgjs="http://svgjs.dev/svgjs" viewBox="0 0 800 800"><defs><linearGradient x1="50%" y1="0%" x2="50%" y2="100%" id="wwwhirl-grad"><stop stop-color="hsl(50, 98%, 60%)" stop-opacity="1" offset="45%"></stop><stop stop-color="hsl(50, 98%, 80%)" stop-opacity="1" offset="100%"></stop></linearGradient></defs><g stroke-width="2" stroke="url(#wwwhirl-grad)" fill="none" stroke-linecap="round"><path d="M37.00000251770027 438.46885472466283C50.75000289917 424.2376043298417 75.50000358581553 365.82760270935825 103.000004348755 370.1588528295212C130.50000511169446 374.49010294968417 141.5000054168703 465.44635547310645 169.00000617980973 459.25885530144507C196.5000069427492 453.0713551297837 207.50000724792503 342.1088520513229 235.00000801086446 340.45885200554653C262.500008773804 338.8088519597702 273.5000090789798 442.2638548299485 301.0000098419193 451.3388550817185C328.50001060485874 460.4138553334885 339.5000109100345 388.7626033456497 367.000011672974 384.0188532140427C394.50001243591345 379.27510308243563 405.5000127410893 425.887604375618 433.0000135040287 428.56885445000466C460.5000142669682 431.25010452439125 471.50001457214404 397.30135358254245 499.0000153350834 396.88885357109837C526.5000160980228 396.4763535596543 537.5000164031987 426.795104400795 565.0000171661382 426.588854395073C592.5000179290777 426.38260438935094 603.5000182342535 394.2488534978562 631.000018997193 395.8988535436325C658.5000197601325 397.5488535894089 669.5000200653083 434.3026046090775 697.0000208282477 434.5088546147996C724.5000215911871 434.71510462052163 749.2500222778326 404.72635378853613 763.0000226593024 396.88885357109837 " transform="rotate(99, 400, 400)"></path><path d="M48.00000244140632 437.3031259587773C61.33333614464971 423.5031255759204 85.3333368104878 366.8631240045425 112.00000421697456 371.06312412106416C138.6666716234613 375.2631242375858 149.33333858605602 463.46312668454084 176.00000599254278 457.46312651808125C202.66667339902952 451.4631263516218 213.33334036162427 343.86312336644767 240.000007768111 342.26312332205845C266.6666751745978 340.6631232776693 277.3333421371925 440.98312606087245 304.00000954367925 449.78312630501307C330.66667695016605 458.58312654915375 341.3333439127607 389.10312462155247 368.00001131924745 384.5031244939335C394.66667872573424 379.9031243663145 405.33334568832896 425.1031256203096 432.00001309481576 427.7031256924421C458.66668050130244 430.30312576457453 469.3333474638972 397.3831248512666 496.0000148703839 396.9831248401693C522.6666822768707 396.583124829072 533.3333492394653 425.98312564472366 560.0000166459522 425.783125639175C586.666684052439 425.58312563362637 597.3333510150337 394.42312476914657 624.0000184215204 396.0231248135358C650.6666858280073 397.623124857925 661.3333527906019 433.26312584669455 688.0000201970887 433.4631258522432C714.6666876035754 433.66312585779184 738.6666882694134 404.58312505101804 752.0000219726569 396.9831248401693 " transform="rotate(96, 400, 400)"></path><path d="M59.00000236511238 436.1374124516808C71.9166693901294 422.7686620807882 95.16667003516005 367.89866055851587 121.00000408519412 371.96741067139624C146.83333813522813 376.0361607842766 157.1666717552418 461.4799131547642 183.0000058052758 455.66741299350656C208.83333985530987 449.8549128322489 219.1666734753235 345.6174099403615 245.00000752535757 344.0674098973594C270.8333415753916 342.5174098543574 281.1666751954052 439.7024125505855 307.0000092454393 448.22741278709674C332.83334329547336 456.75241302360797 343.16667691548696 389.4436611562442 369.00001096552097 384.9874110326134C394.83334501555504 380.5311609089825 405.1666786355687 424.3186621237902 431.0000126856027 426.8374121936685C456.8333467356368 429.3561622635469 467.16668035565044 397.4649113787798 493.0000144056845 397.0774113680293C518.8333484557185 396.6899113572788 529.1666820757321 425.17116214744135 555.0000161257661 424.9774121420661C580.8333501758003 424.78366213669085 591.1666837958139 394.59741129922605 617.000017845848 396.1474113422281C642.8333518958821 397.6974113852301 653.1666855158957 432.2236623431006 679.0000195659296 432.41741234847586C704.8333536159636 432.61116235385117 728.0833542609943 404.439911572289 741.0000212860114 397.0774113680293 " transform="rotate(93, 400, 400)"></path><path d="M70.00000228881842 434.97169512988705C82.50000263560909 422.03419477095866 105.00000325983231 368.9341932977919 130.00000395341365 372.871693407031C155.00000464699497 376.80919351627006 165.00000492442751 459.49669581029036 190.00000561800886 453.87169565423454C215.0000063115902 448.2466954981787 225.00000658902275 347.37169269957803 250.00000728260406 345.87169265796314C275.00000797618543 344.37169261634824 285.000008253618 438.42169522560124 310.0000089471993 446.6716954544831C335.00000964078066 454.92169568336493 345.00000991821315 389.78419387623876 370.0000106117945 385.471693756596C395.00001130537584 381.1591936369532 405.0000115828084 423.53419481257356 430.0000122763897 425.9716948801978C455.000012969971 428.40919494782196 465.0000132474036 397.5466940915958 490.00001394098496 397.1716940811921C515.0000146345662 396.79669407078836 525.0000149119987 424.3591948354618 550.0000156055801 424.17169483025987C575.0000162991615 423.984194825058 585.000016576594 394.7716940146082 610.0000172701755 396.2716940562231C635.0000179637568 397.771694097838 645.0000182411893 431.18419502480947 670.0000189347705 431.3716950300113C695.0000196283519 431.5591950352132 717.5000202525752 404.29669427886273 730.0000205993658 397.1716940811921 " transform="rotate(90, 400, 400)"></path><path d="M81.00000221252448 433.8059892521851C93.08333588108879 421.29973890522103 114.83333648450457 369.9697374811598 139.0000038216332 373.77598758675754C163.1666711587618 377.5822376923553 172.83333809361326 457.51348990990823 197.0000054307419 452.0759897590543C221.16667276787052 446.63848960820036 230.833339702722 349.1259869028863 255.00000703985063 347.67598686265865C279.16667437697924 346.2259868224309 288.83334131183074 437.1409893447088 313.00000864895935 445.1159895659613C337.16667598608797 453.09098978721374 346.8333429209394 390.12473804032504 371.000010258068 385.9559879246704C395.16667759519663 381.78723780901566 404.8333445300481 422.7497389454487 429.00001186717674 425.1059890108188C453.16667920430535 427.4622390761888 462.8333461391569 397.6284882485035 487.00001347628546 397.2659882384466C511.1666808134141 396.9034882283897 520.8333477482655 423.547238967574 545.0000150853941 423.3659889625455C569.1666824225229 423.184738957517 578.8333493573742 394.94598817408223 603.000016694503 396.39598821430997C627.1666840316316 397.8459882545377 636.8333509664831 430.14473915061006 661.0000183036116 430.3259891556386C685.1666856407402 430.50723916066704 706.9166862441559 404.15348842952824 719.0000199127203 397.2659882384466 " transform="rotate(87, 400, 400)"></path><path d="M92.00000213623053 432.64024141281317C103.6666691265685 420.5652410778134 124.66666970917683 371.00523970285775 148.00000368985275 374.6802398048142C171.33333767052864 378.3552399067707 180.666671262799 455.5302420478563 204.00000524347493 450.2802419022042C227.33333922415085 445.0302417565521 236.66667281642125 350.88023914452475 260.00000679709717 349.48023910568423C283.33334077777306 348.08023906684366 292.66667437004344 435.8602415021465 316.0000083507193 443.5602417157695C339.3333423313953 451.2602419293926 348.66667592366565 390.46524024274146 372.00000990434154 386.44024013107486C395.3333438850174 382.41524001940826 404.6666774772878 421.96524111665394 428.00001145796375 424.24024117976984C451.3333454386397 426.51524124288574 460.6666790309101 397.7102404437413 484.000013011586 397.3602404340312C507.33334699226185 397.01024042432107 516.6666805845323 422.73524113801625 540.0000145652082 422.5602411331612C563.3333485458841 422.3852411283061 572.6666821381544 395.1202403718863 596.0000161188304 396.52024041072684C619.3333500995063 397.9202404495674 628.6666836917767 429.1052413147408 652.0000176724526 429.28024131959586C675.3333516531285 429.4552413244509 696.3333522357368 404.0102406185238 708.0000192260748 397.3602404340312 " transform="rotate(84, 400, 400)"></path><path d="M103.00000205993659 431.4745164616249C114.25000237204819 419.8307661385894 134.5000029338491 372.0407648127393 157.00000355807228 375.58451491105444C179.50000418229547 379.1282650093696 188.5000044319848 453.54701707398783 211.00000505620795 448.48451693353763C233.50000568043117 443.42201679308744 242.50000593012047 352.63451427434677 265.0000065543437 351.2845142368934C287.5000071785669 349.93451419944 296.5000074282562 434.5795165477677 319.0000080524794 442.0045167537613C341.5000086767026 449.429516959755 350.50000892639184 390.80576533334147 373.00000955061506 386.92451522566296C395.5000101748383 383.04326511798445 404.5000104245276 421.18076617604277 427.00001104875076 423.3745162369045C449.500011672974 425.5682662977663 458.5000119226633 397.79201552716273 481.00001254688647 397.4545155177994C503.50001317110963 397.11701550843605 512.5000134207988 421.92326619664215 535.0000140450221 421.7545161919605C557.5000146692455 421.5857661872788 566.5000149189347 395.29451545787396 589.0000155431579 396.64451549532737C611.5000161673811 397.9945155327808 620.5000164170704 428.06576636705506 643.0000170412935 428.23451637173673C665.5000176655168 428.4032663764184 685.7500182273176 403.867015695703 697.0000185394292 397.4545155177994 " transform="rotate(81, 400, 400)"></path><path d="M114.00000198364263 430.30880676922567C124.83333561752788 419.09630645815446 144.33333615852135 373.0763051814099 166.0000034262918 376.4888052760838C187.6666706940623 379.9013053707576 196.3333376011705 451.56380735890855 218.000004868941 446.68880722366015C239.6666721367115 441.8138070884118 248.3333390438197 354.38880466295785 270.0000063115902 353.0888046268916C291.6666735793607 351.7888045908254 300.33334048646896 433.298806852178 322.0000077542394 440.44880705054226C343.6666750220099 447.5988072489065 352.3333419291181 391.1463056827305 374.0000091968886 387.40880557904006C395.6666764646591 383.67130547534964 404.3333433717673 420.39630649422065 426.0000106395378 422.5088065528283C447.66667790730827 424.6213066114359 456.3333448144165 397.8738058693732 478.00001208218697 397.54880586035665C499.66667934995746 397.2238058513401 508.33334625706556 421.1113065140571 530.0000135248362 420.94880650954883C551.6666807926067 420.78630650504056 560.3333476997147 395.4688058026507 582.0000149674854 396.76880583871696C603.6666822352558 398.06880587478315 612.3333491423641 427.02630667815845 634.0000164101345 427.1888066826667C655.666683677905 427.351306687175 675.1666842188985 403.72380603167124 686.0000178527837 397.54880586035665 " transform="rotate(78, 400, 400)"></path><path d="M125.00000190734869 429.1430780033401C135.41666886300757 418.3618277042332 154.1666693831936 374.11182647659416 175.00000329451137 377.39307656762674C195.83333720582914 380.6743266586593 204.16667077035626 449.5805785703428 225.00000468167406 444.89307844029634C245.83333859299182 440.20557831024985 254.16667215751897 356.1430759780826 275.00000606883674 354.8930759434035C295.8333399801545 353.6430759087245 304.16667354468166 432.01807808310195 325.0000074559994 438.8930782738368C345.8333413673172 445.7680784645717 354.16667493184434 391.48682695863323 375.00000884316205 387.8930768589309C395.8333427544799 384.29932675922856 404.166676319007 419.6118277389122 425.0000102303248 421.6430777952657C445.83334414164256 423.6743278516192 454.1666777061697 397.9555771380974 475.0000116174875 397.64307712942764C495.83334552880524 397.3305771207579 504.1666790933323 420.29932775798574 525.0000130046501 420.1430777536508C545.8333469159679 419.9868277493159 554.166680480495 395.64307707394113 575.0000143918128 396.89307710862016C595.8333483031306 398.14307714329925 604.1666818676579 425.98682791577545 625.0000157789755 426.14307792011033C645.8333496902933 426.2993279244452 664.5833502104794 403.58057729415316 675.0000171661382 397.64307712942764 " transform="rotate(75, 400, 400)"></path><path d="M136.00000183105476 427.9773530521518C146.00000210848728 417.62735276500916 164.00000260786584 375.14735158647574 184.00000316273093 378.29735167386696C204.00000371759597 381.44735176125823 212.000003939542 447.5973535964745 232.00000449440708 443.0973534716298C252.00000504927215 438.59735334678516 260.0000052712182 357.8973511079046 280.0000058260833 356.6973510746127C300.0000063809483 355.4973510413208 308.00000660289436 430.7373531287232 328.00000715775946 437.3373533118287C348.00000771262455 443.93735349493414 356.00000793457053 391.8273520492332 376.0000084894356 388.377351953519C396.00000904430067 384.92735185780475 404.0000092662467 418.82735279830104 424.0000098211118 420.7773528524004C444.0000103759769 422.72735290649973 452.0000105979229 398.0373522215188 472.000011152788 397.73735221319583C492.000011707653 397.43735220487287 500.00001192959905 419.4873528166116 520.0000124844642 419.3373528124501C540.0000130393292 419.1873528082886 548.0000132612753 395.81735215992876 568.0000138161404 397.0173521932207C588.0000143710055 398.2173522265126 596.0000145929514 424.9473529680897 616.0000151478165 425.09735297225126C636.0000157026815 425.24735297641274 654.00001620206 403.4373523713324 664.0000164794926 397.73735221319583 " transform="rotate(72, 400, 400)"></path><path d="M146.9999864959717 426.8116395450553C156.5833200951779 416.89288926987695 173.83332057374906 376.18288814044905 192.9999877721614 379.20163822419903C212.16665497057375 382.22038830794895 219.8333218499387 445.6141400666978 238.99998904835104 441.30163994705504C258.1666562467634 436.98913982741226 265.8333231261284 359.6516376818184 284.9999903245407 358.5016376499137C304.1666575229531 357.3516376180089 311.83332440231806 429.4566396184362 330.9999916007304 435.7816397939123C350.1666587991428 442.10663996938837 357.83332567850766 392.167888583925 376.99999287692003 388.86163849219884C396.1666600753324 385.55538840047274 403.8333269546974 418.04288930178166 422.99999415310975 419.91163935362687C442.1666613515221 421.7803894054721 449.83332823088705 398.119138749032 468.9999954292994 397.8316387410558C488.16666262771173 397.54413873307965 495.83332950707666 418.67538931932927 514.9999967054891 418.5316393153412C534.1666639039015 418.3878893113531 541.8333307832664 395.99163869000824 560.9999979816788 397.14163872191295C580.1666651800912 398.2916387538177 587.8333320594561 423.90788946449584 606.9999992578685 424.0516394684839C626.1666664562807 424.195389472472 643.4166669348518 403.29413889260337 653.000000534058 397.8316387410558 " transform="rotate(69, 400, 400)"></path><path d="M157.99998641967778 425.64591077916975C167.1666533406576 416.15841051595567 183.6666537984213 377.21840943563336 201.99998764038094 380.105909515742C220.33332148234058 382.99340959585066 227.66665501912445 443.6309112781322 245.9999888610841 439.5059111636913C264.33332270304373 435.38091104925036 271.6666562398276 361.40590899694314 289.99999008178725 360.3059089664256C308.3333239237469 359.205908935908 315.6666574605308 428.1759108493602 333.99999130249046 434.2259110172069C352.3333251444501 440.2759111850536 359.6666586812339 392.5084098598277 377.99999252319355 389.34590977208967C396.3333263651532 386.1834096843516 403.6666599019371 417.2584105464732 421.99999374389677 419.0459105960643C440.3333275858564 420.83341064565536 447.6666611226403 398.2009100177562 465.9999949645999 397.92591001012676C484.3333288065595 397.65091000249737 491.6666623433434 417.8634105632579 509.9999961853031 417.7259105594432C528.3333300272627 417.5884105556285 535.6666635640465 396.16590996129867 553.9999974060063 397.2659099918162C572.3333312479659 398.3659100223338 579.6666647847499 422.8684107021129 597.9999986267094 423.0059107059276C616.3333324686689 423.1434107097423 632.8333329264326 403.1509101550853 641.9999998474125 397.92591001012676 " transform="rotate(66, 400, 400)"></path><path d="M168.99998634338385 424.4801820132842C177.7499865861373 415.4239317620344 193.49998702309355 378.2539307308176 210.9999875086005 381.010180807285C228.4999879941074 383.7664308837523 235.49998818831023 441.64768248956653 252.99998867381714 437.71018238032747C270.49998915932406 433.7726822710884 277.49998935352687 363.1601803120679 294.9999898390338 362.11018028293745C312.4999903245407 361.06018025380706 319.4999905187435 426.89518208028414 336.99999100425043 432.67018224050145C354.49999148975735 438.44518240071875 361.49999168396016 392.8489311357304 378.9999921694671 389.83018105198045C396.49999265497405 386.8114309682305 403.4999928491768 416.4739317911648 420.9999933346837 418.1801818385017C438.4999938201907 419.88643188583865 445.4999940143935 398.28268128648034 462.9999944999004 398.02018127919774C480.4999949854073 397.7576812719151 487.4999951796101 417.05143180718653 504.99999566511707 416.92018180354523C522.4999961506239 416.7889317999039 529.4999963448267 396.34018123258903 546.9999968303338 397.3901812617195C564.4999973158407 398.44018129084986 571.4999975100434 421.8289319397299 588.9999979955503 421.9601819433712C606.4999984810572 422.0914319470125 622.2499989180135 403.0076814175672 630.999999160767 398.02018127919774 " transform="rotate(63, 400, 400)"></path><path d="M179.9999862670899 423.31446469149046C188.33331983161702 414.6894644522049 203.3333202477658 379.2894634700937 219.99998737682003 381.91446354291975C236.66665450587425 384.5394636157458 243.33332135749595 439.66446514509266 259.9999884865502 435.91446504105545C276.6666556156044 432.16446493701824 283.33332246722614 364.91446307128444 299.99998959628033 363.91446304354116C316.6666567253345 362.91446301579793 323.3333235769563 425.61446475529993 339.9999907060105 431.11446490788785C356.6666578350647 436.6144650604757 363.3333246866864 393.1894638557249 379.9999918157406 390.3144637759631C396.6666589447948 387.4394636962012 403.33332579641655 415.68946447994813 419.9999929254708 417.3144645250309C436.666660054525 418.9394645701137 443.3333269061467 398.3644639992963 459.9999940352009 398.11446399236047C476.6666611642551 397.86446398542466 483.33332801587676 416.2394644952069 499.99999514493106 416.114464491739C516.6666622739854 415.9894644882711 523.333329125607 396.51446394797125 539.9999962546613 397.5144639757145C556.6666633837156 398.51446400345776 563.3333302353371 420.7894646214387 579.9999973643913 420.9144646249066C596.6666644934455 421.03946462837456 611.6666649095944 402.8644641241409 619.9999984741214 398.11446399236047 " transform="rotate(60, 400, 400)"></path><path d="M190.99998619079594 422.1487473696967C198.9166530770967 413.9549971423754 213.16665347243807 380.3249962093698 228.99998724503956 382.8187462785545C244.83332101764108 385.3124963477393 251.1666545266817 437.68124780061873 266.99998829928325 434.11874770178343C282.8333220718847 430.5562476029481 289.16665558092535 366.668745830501 304.99998935352687 365.7187458041449C320.83332312612833 364.7687457777888 327.166656635169 424.33374743031567 342.9999904077705 429.5587475752742C358.833324180372 434.78374772023267 365.1666576894126 393.52999657571945 380.9999914620141 390.7987464999457C396.8333252346156 388.0674964241719 403.1666587436563 414.9049971687315 418.99999251625775 416.44874721156015C434.83332628885927 417.9924972543888 441.1666597978999 398.4462467121122 456.99999357050143 398.2087467055232C472.8333273431029 397.9712466989342 479.1666608521435 415.42749718322733 494.99999462474506 415.3087471799328C510.8333283973466 415.1899971766383 517.1666619063872 396.68874666335347 532.9999956789886 397.63874668970954C548.8333294515903 398.58874671606566 555.1666629606309 419.74999730314755 570.9999967332324 419.86874730644206C586.8333305058338 419.98749730973657 601.0833309011753 402.7212468307146 608.9999977874759 398.2087467055232 " transform="rotate(57, 400, 400)"></path><path d="M201.999986114502 420.9830186038111C209.49998632257638 413.22051838845414 222.99998669711033 381.3605175045541 237.99998711325912 383.7230175700975C252.99998752940792 386.08551763564094 258.99998769586745 435.6980190120531 273.99998811201624 432.3230189184196C288.9999885281651 428.9480188247861 294.99998869462456 368.4230171456257 309.9999891107734 367.5230171206568C324.9999895269222 366.6230170956879 330.99998969338174 423.05301866123966 345.99999010953053 428.00301879856875C360.9999905256793 432.9530189358979 366.9999906921388 393.87051785162214 381.99999110828765 391.2830177798365C396.99999152443644 388.69551770805083 402.99999169089597 414.12051841342304 417.99999210704476 415.58301845399757C432.99999252319355 417.0455184945721 438.99999268965314 398.52801798083635 453.99999310580193 398.3030179745941C468.9999935219507 398.0780179683519 474.9999936884102 414.61551842715596 489.99999410455905 414.50301842403485C504.9999945207079 414.39051842091374 510.9999946871674 396.86301793464384 525.9999951033162 397.7630179596128C540.9999955194651 398.6630179845817 546.9999956859245 418.71051854076455 561.9999961020733 418.8230185438857C576.9999965182221 418.93551854700684 590.499996892756 402.57801809319653 597.9999971008303 398.3030179745941 " transform="rotate(54, 400, 400)"></path><path d="M212.99998603820805 419.8172936526228C220.08331956805608 412.4860434492301 232.8333199217826 382.3960426144356 246.99998698147868 384.62729267633773C261.16665404117475 386.85854273823986 266.8333208650532 433.71479403818466 280.9999879247493 430.5272939497531C295.16665498444536 427.3397938613215 300.83332180832383 370.1772922754477 314.99998886801995 369.32729225186597C329.166655927716 368.4772922282842 334.83332275159444 421.7722937068609 348.99998981129056 426.4472938365606C363.1666568709866 431.1222939662603 368.83332369486504 394.21104294222215 382.99999075456117 391.7672928744246C397.16665781425723 389.32354280662696 402.8333246381357 413.33604347281187 416.9999916978318 414.71729351113225C431.1666587575279 416.09854354945264 436.8333255814063 398.60979306425776 450.99999264110244 398.3972930583623C465.1666597007985 398.1847930524669 470.8333265246769 413.80354348578186 484.99999358437304 413.69729348283414C499.16666064406917 413.59104347988637 504.8333274679476 397.0372930206315 518.9999945276437 397.88729304421327C533.1666615873398 398.73729306779506 538.8333284112182 417.6710435930789 552.9999954709143 417.7772935960266C567.1666625306103 417.8835435989743 579.9166628843368 402.4347931703757 586.9999964141849 398.3972930583623 " transform="rotate(51, 400, 400)"></path><path d="M223.9999859619141 418.65156297938864C230.6666528135358 411.7515627879602 242.66665314645485 383.4315620022712 255.99998684969822 385.5315620605321C269.3333205529416 387.6315621187929 274.66665403423895 431.7315633422704 287.99998773748234 428.7315632590406C301.3333214407257 425.7315631758109 306.6666549220231 371.93156168322383 319.99998862526644 371.13156166102925C333.33332232850984 370.3315616388346 338.6666558098072 420.4915630304362 351.99998951305054 424.89156315250654C365.33332321629393 429.29156327457684 370.6666566975913 394.55156231077626 383.9999904008347 392.2515622469667C397.3333241040781 389.95156218315725 402.66665758537545 412.5515628101548 415.99999128861884 413.85156284622104C429.3333249918621 415.15156288228724 434.66665847315954 398.6915624256333 447.9999921764029 398.4915624200847C461.3333258796463 398.291562414536 466.6666593609436 412.99156282236186 479.99999306418704 412.89156281958753C493.33332676743044 412.79156281681315 498.6666602487278 397.2115623845733 511.99999395197113 398.0115624067679C525.3333276552146 398.8115624289625 530.666661136512 416.63156292334725 543.9999948397553 416.73156292612157C557.3333285429986 416.83156292889595 569.3333288759177 402.291562525509 575.9999957275394 398.4915624200847 " transform="rotate(48, 400, 400)"></path><path d="M234.99998588562016 417.4858532869894C241.2499860590155 411.01710310752526 252.49998637112708 384.46710237094186 264.99998671791775 386.4358524255614C277.4999870647084 388.4046024801809 282.49998720342467 429.7483536271911 294.99998755021534 426.93585354916314C307.499987897006 424.12335347113526 312.4999880357223 373.6858520718349 324.999988382513 372.9358520510275C337.49998872930365 372.18585203022 342.49998886801995 419.21085333484655 354.9999892148106 423.33585344928747C367.4999895616013 427.4608535637284 372.49998970031754 394.8921026601653 384.9999900471082 392.7358526003439C397.4999903938989 390.5796025405225 402.49999053261513 411.7671031283327 414.9999908794058 412.9858531621448C427.49999122619647 414.20460319595685 432.4999913649127 398.7733527678438 444.9999917117034 398.58585276264193C457.49999205849406 398.3983527574401 462.4999921972103 412.17960313977676 474.999992544001 412.08585313717583C487.4999928907917 411.9921031345749 492.49999302950795 397.38585272935 504.9999933762987 398.1358527501575C517.4999937230893 398.8858527709649 522.4999938618056 415.59210323445063 534.9999942085963 415.68585323705156C547.4999945553868 415.7796032396525 558.7499948674986 402.1483528614773 564.9999950408939 398.58585276264193 " transform="rotate(45, 400, 400)"></path><path d="M245.9999858093262 416.320118799058C251.83331930449518 410.2826186315581 262.33331959579937 385.50261794408027 273.9999865861373 387.34011799505845C285.66665357647526 389.1776180460367 290.33332037261044 427.7651191165795 301.9999873629484 425.14011904375343C313.6666543532864 422.5151189709274 318.3333211494216 375.44011766491377 329.9999881397595 374.74011764549346C341.66665513009747 374.0401176260732 346.33332192623266 417.9301188437246 357.9999889165706 421.7801189505361C369.66665590690855 425.63011905734766 374.3333227030438 395.23261821402207 385.99998969338174 393.2201181581888C397.6666566837197 391.2076181023555 402.3333234798548 410.98261865097834 413.9999904701928 412.1201186825363C425.6666574605308 413.25761871409424 430.33332425666595 398.85511831452203 441.99999124700395 398.68011830966697C453.66665823734184 398.5051183048119 458.3333250334771 411.3676186616595 469.999992023815 411.28011865923196C481.66665901415297 411.1926186568044 486.33332581028816 397.56011827859453 497.99999280062616 398.2601182980148C509.6666597909641 398.9601183174351 514.3333265870992 414.55261875002174 525.9999935774372 414.6401187524493C537.6666605677751 414.72761875487686 548.1666608590793 402.0051184019133 553.9999943542483 398.68011830966697 " transform="rotate(42, 400, 400)"></path><path d="M256.99998573303225 415.1543957552183C262.41665254997486 409.5481455996827 272.1666528204716 386.5381449613104 282.9999864543569 388.24439500864736C293.8333200882421 389.9506450559843 298.1666535417962 425.78189605005974 308.99998717568144 423.34439598243557C319.83332080956666 420.90689591481134 324.1666542631208 377.1943947020844 334.999987897006 376.54439468405127C345.8333215308913 375.8943946660182 350.1666549844454 416.6493957966945 360.99998861833063 420.22439589587657C371.8333222522159 423.7993959950587 376.16665570577 395.5731452119707 386.99998933965526 393.7043951601255C397.8333229735405 391.8356451082803 402.1666564270946 410.1981456177158 412.9999900609798 411.2543956470196C423.83332369486504 412.3106456763234 428.1666571484192 398.93689530529207 438.9999907823044 398.7743953007838C449.83332441618967 398.6118952962755 454.16665786974374 410.555645627634 464.999991503629 410.4743956253799C475.8333251375143 410.39314562312575 480.1666585910683 397.7343952719308 490.99999222495364 398.38439528996395C501.83332585883886 399.03439530799704 506.166659312393 413.5131457096847 516.9999929462782 413.59439571193883C527.8333265801634 413.67564571419297 537.5833268506601 401.8618953864411 542.9999936676028 398.7743953007838 " transform="rotate(39, 400, 400)"></path><path d="M267.9999856567383 413.98868034077316C272.99998579545456 408.81368019720185 281.9999860451438 387.5736796079351 291.99998632257643 389.14867965163074C301.9999866000089 390.7236796953264 305.99998671098194 423.7986806129345 315.9999869884145 421.5486805505122C325.99998726584704 419.2986804880899 329.99998737682006 378.94867936864955 339.99998765425255 378.3486793520036C349.9999879316851 377.7486793353577 353.9999880426581 415.36868037905884 363.99998832009067 418.6686804706116C373.9999885975232 421.96868056216437 377.9999887084962 395.9136798393139 387.9999889859287 394.18867979145676C397.9999892633613 392.46367974359964 401.9999893743343 409.4136802138478 411.99998965176684 410.38868024089743C421.9999899291994 411.36368026794713 425.9999900401724 399.0186799254567 435.9999903176049 398.8686799212952C445.99999059503745 398.71867991713367 449.99999070601046 409.7436802230031 459.999990983443 409.66868022092234C469.99999126087556 409.59368021884154 473.9999913718486 397.90867989466165 483.9999916492811 398.5086799113076C493.9999919267137 399.1086799279536 497.99999203768664 412.4736802987421 507.9999923151192 412.54868030082287C517.9999925925517 412.6236803029036 526.999992842241 401.71868000036346 531.9999929809572 398.8686799212952 " transform="rotate(36, 400, 400)"></path><path d="M279.0000008392334 412.82295920428214C283.58333429972333 408.0792090726751 291.8333345286052 388.60920853251395 301.000001449585 390.0529585725683C310.1666683705648 391.49670861262257 313.8333351389567 421.81545945376337 323.0000020599366 419.7529593965429C332.16666898091637 417.69045933932244 335.83333574930833 380.70295831316884 345.00000267028815 380.15295829791006C354.166669591268 379.6029582826513 357.83333635965994 414.08795923937737 367.00000328063976 417.1129593233007C376.1666702016196 420.13795940722406 379.8333369700115 396.2542087446111 389.0000038909913 394.6729587007421C398.16667081197113 393.0917086568731 401.8333375803631 408.6292090879339 411.0000045013429 409.5229591127294C420.16667142232274 410.41670913752495 423.8333381907147 399.10045882357537 433.00000511169446 398.9629588197607C442.1666720326743 398.825458815946 445.83333880106625 408.93170909632624 455.00000572204607 408.86295909441884C464.1666726430259 408.7942090925115 467.8333394114178 398.0829587953466 477.0000063323977 398.6329588106054C486.1666732533775 399.18295882586415 489.83334002176946 411.4342091657537 499.0000069427492 411.50295916766106C508.166673863729 411.5717091695684 516.4166740926108 401.5754588922399 521.0000075531008 398.9629588197607 " transform="rotate(33, 400, 400)"></path><path d="M290.00000076293946 411.65722662369933C294.16666754520304 407.34472650405655 301.66666775327747 389.64472601300093 310.00000131780456 390.957226049414C318.33333488233166 392.269726085827 321.6666683081425 419.83222685050043 330.0000018726696 417.9572267984818C338.33333543719675 416.0822267464632 341.6666688630076 382.4572258135963 350.0000024275347 381.9572257997247C358.3333359920618 381.4572257858531 361.66666941787264 412.80722665560404 370.0000029823998 415.557226731898C378.3333365469269 418.30722680819196 381.66666997273774 396.5947262058166 390.00000353726483 395.15722616593564C398.3333371017919 393.7197261260547 401.66667052760283 407.84472651792817 410.0000040921299 408.65722654046954C418.333337656657 409.46972656301097 421.6666710824679 399.18222627760224 430.00000464699497 399.05722627413434C438.3333382115221 398.93222627066643 441.6666716373329 408.11972652555755 450.00000520186006 408.0572265238236C458.3333387663872 407.99472652208965 461.666672192198 398.25722625193976 470.00000575672516 398.75722626581137C478.3333393212523 399.257226279683 481.6666727470631 410.39472658867345 490.0000063115902 410.4572265904074C498.3333398761173 410.51972659214135 505.8333400841917 401.43222634002456 510.00000686645524 399.05722627413434 " transform="rotate(30, 400, 400)"></path><path d="M301.00000068664554 410.49150167251105C304.75000079068275 406.61025156483254 311.5000009779497 390.6802511228825 319.00000118602406 391.8615011556542C326.5000013940985 393.04275118842594 329.5000014773283 417.84900187663203 337.00000168540265 416.1615018298153C344.5000018934771 414.4740017829985 347.5000019767068 384.21150094341834 355.00000218478124 383.76150093093383C362.50000239285566 383.3115009184494 365.5000024760854 411.5265017012253 373.00000268415977 414.00150176988984C380.5000028922342 416.4765018385544 383.50000297546393 396.93525129641654 391.00000318353835 395.6415012605237C398.5000033916127 394.3477512246309 401.5000034748425 407.060251577317 409.00000368291694 407.7915015976042C416.5000038909913 408.5227516178915 419.5000039742211 399.26400136102365 427.00000418229547 399.15150135790253C434.5000043903699 399.0390013547814 437.50000447359963 407.30775158418345 445.00000468167406 407.2515015826229C452.5000048897485 407.19525158106234 455.5000049729782 398.4315013379274 463.00000518105264 398.88150135041184C470.50000538912707 399.33150136289635 473.5000054723568 409.3552516409878 481.0000056804312 409.41150164254833C488.5000058885056 409.4677516441089 495.25000607577255 401.28900141720374 499.0000061798097 399.15150135790253 " transform="rotate(27, 400, 400)"></path><path d="M312.00000061035155 409.325783397043C315.33333403616246 405.87578330132874 321.3333342026219 391.71578290848424 328.0000010542436 392.7657829376147C334.6666679058653 393.8157829667451 337.333334646514 415.86578357848384 344.0000014981357 414.36578353686895C350.6666683497574 412.86578349525405 353.3333350904061 385.9657827489606 360.0000019420278 385.56578273786323C366.6666687936495 385.16578272676594 369.33333553429816 410.2457834225668 376.0000023859198 412.44578348360193C382.6666692375415 414.6457835446371 385.3333359781902 397.27578306273676 392.0000028298119 396.125783030832C398.6666696814336 394.9757829989273 401.33333642208225 406.27578331242603 408.00000327370395 406.9257833304591C414.6666701253256 407.5757833484923 417.3333368659743 399.34578312016527 424.000003717596 399.24578311739094C430.6666705692177 399.1457831146166 433.33333730986635 406.49578331852956 440.00000416148805 406.4457833171424C446.66667101310975 406.39578331575524 449.3333377537584 398.6057830996353 456.0000046053801 399.0057831107326C462.6666714570018 399.40578312182987 465.3333381976505 408.31578336902226 472.0000050492722 408.3657833704094C478.66667190089385 408.4157833717966 484.6666720673534 401.14578317010313 488.0000054931642 399.24578311739094 " transform="rotate(24, 400, 400)"></path><path d="M323.0000005340576 408.1600670289235C325.9166672816421 405.14131694517357 331.1666674272942 392.75131660143467 337.0000009224632 393.67006662692376C342.83333441763216 394.5888166524129 345.1666678156997 413.8825671876843 351.0000013108687 412.57006715127125C356.8333348060377 411.25756711485826 359.16666820410535 387.7200664618514 365.0000016992743 387.37006645214126C370.8333351944433 387.02006644243113 373.16666859251086 408.9650670512568 379.00000208767983 410.8900671046626C384.8333355828488 412.81506715806836 387.1666689809164 397.61631673640557 393.0000024760854 396.61006670848894C398.83333597125437 395.60381668057227 401.16666936932194 405.4913169548837 407.00000286449097 406.06006697066266C412.83333635965994 406.6288169864417 415.1666697577275 399.4275667866556 421.0000032528965 399.34006678422804C426.83333674806545 399.2525667818005 429.1666701461331 405.68381696022425 435.00000364130204 405.6400669590105C440.833337136471 405.5963169577967 443.16667053453864 398.78006676869177 449.0000040297076 399.13006677840195C454.8333375248766 399.4800667881121 457.16667092294415 407.2763170044054 463.0000044181131 407.3200670056192C468.8333379132821 407.36381700683296 474.0833380589342 401.00256683035116 477.0000048065187 399.34006678422804 " transform="rotate(21, 400, 400)"></path><path d="M334.0000004577637 406.9943458924325C336.5000005271218 404.4068458206468 341.00000065196645 393.78684552601345 346.00000079068275 394.5743455478613C351.000000929399 395.3618455697091 353.0000009848855 411.89934602851315 358.0000011236018 410.77434599730196C363.00000126231805 409.64934596609083 365.00000131780456 389.4743454063707 370.0000014565208 389.1743453980477C375.0000015952371 388.87434538972474 377.00000165072356 407.68434591157535 382.00000178943986 409.33434595735173C387.00000192815617 410.98434600312805 389.0000019836426 397.95684564170284 394.00000212235886 397.09434561777425C399.00000226107517 396.2318455938457 401.0000023165617 404.7068458289698 406.0000024552779 405.1943458424946C411.0000025939942 405.68184585601944 413.00000264948073 399.50934568477425 418.000002788197 399.4343456826935C423.0000029269132 399.35934568061276 425.0000029823998 404.8718458335474 430.00000312111604 404.83434583250704C435.0000032598323 404.79684583146667 437.00000331531885 398.9543456693767 442.0000034540351 399.2543456776997C447.00000359275134 399.55434568602266 449.00000364823785 406.23684587141696 454.00000378695415 406.27434587245733C459.0000039256704 406.3118458734977 463.50000405051503 400.8593457222276 466.00000411987315 399.4343456826935 " transform="rotate(18, 400, 400)"></path><path d="M344.99999656677244 405.8286152191983C347.08332995790425 403.6723651593769 350.83333006194147 394.8223649138491 354.99999684420504 395.4786149320556C359.16666362646856 396.1348649502621 360.833330339374 409.91611533259885 364.99999712163753 408.9786153065895C369.1666639039011 408.04111528058024 370.8333306168065 391.2286148141468 374.9999973990701 390.978614807211C379.16666418133366 390.7286148002752 380.83333089423905 406.40361523515065 384.99999767650263 407.77861527329765C389.16666445876615 409.1536153114446 390.8333311716716 398.2973650102569 394.9999979539351 397.57861499031645C399.1666647361987 396.859864970376 400.83333144910415 403.9223651663127 404.9999982313677 404.3286151775834C409.16666501363125 404.7348651888541 410.8333317265367 399.59111504614975 414.9999985088002 399.5286150444158C419.1666652910638 399.46611504268185 420.8333320039692 404.0598651701274 424.99999878623277 404.02861516926043C429.16666556849634 403.99736516839346 430.83333228140174 399.1286150333185 434.9999990636653 399.3786150402543C439.1666658459289 399.6286150471901 440.8333325588343 405.19736520168533 444.9999993410978 405.22861520255236C449.1666661233614 405.25986520341934 452.9166662273986 400.7161150773609 454.99999961853035 399.5286150444158 " transform="rotate(15, 400, 400)"></path><path d="M355.9999964904785 404.66289217535865C357.66666320338396 402.9378921275015 360.6666632866137 395.8578919310793 363.99999671242455 396.3828919456445C367.3333301382354 396.9078919602097 368.66666350855974 407.9328922660791 371.9999969343706 407.18289224527166C375.33333036018144 406.4328922244642 376.6666637305058 392.98289185131745 379.9999971563166 392.7828918457688C383.3333305821275 392.58289184022016 384.6666639524518 405.12289218812055 387.9999973782626 406.2228922186381C391.3333308040735 407.3228922491557 392.66666417439785 398.63789200820554 395.99999760020864 398.0628919922532C399.33333102601955 397.4878919763008 400.6666643963439 403.1378921330502 403.9999978221547 403.4628921420667C407.33333124796553 403.78789215108327 408.6666646182899 399.6728920369198 411.9999980441007 399.62289203553263C415.33333146991157 399.57289203414547 416.6666648402359 403.24789213610194 419.99999826604676 403.22289213540836C423.3333316918576 403.1978921347148 424.66666506218195 399.3028920266548 427.9999984879928 399.5028920322035C431.33333191380365 399.7028920377521 432.666665284128 404.1578921613483 435.99999870993884 404.18289216204187C439.33333213574963 404.20789216273545 442.3333322189794 400.57289206188875 443.9999989318849 399.62289203553263 " transform="rotate(12, 400, 400)"></path><path d="M366.9999964141846 403.4971672241703C368.2499964488636 402.2034171882775 370.499996511286 396.89341704096086 372.9999965806441 397.28716705188475C375.49999665000223 397.68091706280865 376.49999667774546 405.9496672922107 378.99999674710364 405.3871672766051C381.49999681646176 404.8246672609995 382.49999684420504 394.73716698113947 384.9999969135631 394.587166976978C387.4999969829213 394.43716697281644 388.4999970106645 403.84216723374175 390.9999970800227 404.66716725662997C393.4999971493808 405.4921672795181 394.49999717712404 398.9784170988055 396.99999724648217 398.5471670868412C399.49999731584035 398.11591707487696 400.4999973435836 402.353417192439 402.9999974129417 402.5971671992014C405.4999974822998 402.8409172059638 406.4999975100431 399.7546671203412 408.9999975794012 399.7171671193008C411.49999764875935 399.67966711826045 412.49999767650263 402.43591719472784 414.99999774586075 402.41716719420765C417.4999978152189 402.39841719368746 418.49999784296216 399.47716711264246 420.9999979123203 399.62716711680395C423.4999979816784 399.77716712096543 424.4999980094217 403.1184172136626 426.9999980787798 403.1371672141828C429.49999814813793 403.155917214703 431.74999821056025 400.42966713906793 432.99999824523934 399.7171671193008 " transform="rotate(9, 400, 400)"></path><path d="M378.0000001525879 402.3314460876793C378.8333335090406 401.46894606375076 380.3333335506555 397.92894596553964 382.0000002635609 398.19144597282224C383.66666697646633 398.45394598010483 384.3333336616285 403.96644613303954 386.0000003745339 403.59144612263583C387.66666708743935 403.2164461122321 388.3333337726015 396.4914459256587 390.0000004855069 396.3914459228844C391.66666719841237 396.29144592011005 392.33333388357454 402.5614460940603 394.00000059647994 403.11144610931905C395.6666673093854 403.6614461245778 396.33333399454756 399.31894600410277 398.00000070745295 399.0314459961266C399.6666674203584 398.7439459881504 400.3333341055206 401.5689460665251 402.000000818426 401.73144607103336C403.6666675313314 401.89394607554163 404.33333421649354 399.8364460184599 406.000000929399 399.81144601776634C407.66666764230445 399.78644601707276 408.33333432746656 401.62394606805094 410.000001040372 401.61144606770415C411.66666775327747 401.59894606735736 412.3333344384396 399.6514460133274 414.00000115134503 399.75144601610174C415.6666678642505 399.85144601887606 416.3333345494126 402.07894608067414 418.00000126231805 402.09144608102093C419.66666797522345 402.1039460813677 421.16666801683834 400.2864460309444 422.00000137329107 399.81144601776634 " transform="rotate(6, 400, 400)"></path><path d="M389.00000007629393 401.16572304383965C389.4166667545203 400.7344730318754 390.1666667753277 398.96447298276985 391.00000013178044 399.09572298641115C391.83333348823317 399.22697299005245 392.1666668308143 401.98322306651977 393.00000018726695 401.7957230613179C393.8333335437197 401.60822305611606 394.16666688630073 398.24572296282935 395.00000024275346 398.1957229614422C395.8333335992062 398.145722960055 396.1666669417873 401.28072304703016 397.00000029823997 401.55572305465955C397.8333336546927 401.83072306228894 398.16666699727375 399.6594730020514 399.0000003537265 399.51572299806327C399.8333337101792 399.3719729940752 400.16666705276026 400.78447303326254 401.000000409213 400.8657230355167C401.8333337656657 400.9469730377708 402.16666710824677 399.91822300922996 403.0000004646995 399.9057230088832C403.8333338211522 399.8932230085364 404.1666671637333 400.81197303402547 405.000000520186 400.8057230338521C405.83333387663873 400.7994730336787 406.1666672192198 399.8257230066637 407.0000005756725 399.87572300805084C407.83333393212524 399.925723009438 408.1666672747063 401.03947304033704 409.000000631159 401.04572304051044C409.8333339876117 401.05197304068383 410.5833340084192 400.1432230154722 411.00000068664554 399.9057230088832 " transform="rotate(3, 400, 400)"></path></g></svg>