<svg xmlns="http://www.w3.org/2000/svg" version="1.1" xmlns:xlink="http://www.w3.org/1999/xlink" xmlns:svgjs="http://svgjs.dev/svgjs" viewBox="0 0 800 800"><defs><linearGradient x1="50%" y1="0%" x2="50%" y2="100%" id="uundulate-grad"><stop stop-color="hsl(206, 75%, 49%)" stop-opacity="1" offset="45%"></stop><stop stop-color="hsl(331, 90%, 56%)" stop-opacity="1" offset="100%"></stop></linearGradient></defs><g stroke-width="2" stroke="url(#uundulate-grad)" fill="none"><path d="M657.8631067240597 207.53128189793085C687.0275766431542 290.157598773804 677.844978231672 440.48447140733515 638.8405389039268 518.9467442450641C599.8360995761817 597.409017082793 575.4497734126678 553.7618395568389 470.6417979508833 584.1501915190294C365.8338224890989 614.5385434812197 182.41922906362078 715.9455161578483 135.76225668736066 664.810833663578C89.1052843111006 613.6761511693078 206.8492644221692 440.2960994434069 246.6883305448339 338.7037155465323C286.5273966674986 237.1113316496576 274.4558672537686 222.24307685559177 326.9897740761518 177.16739095857974C379.5236808985351 132.09170506156767 429.9191389906259 116.01461262850876 498.8510832922733 122.34042324087358C567.7830275939207 128.66623385323845 628.6986368049652 124.90496502205775 657.8631067240597 207.53128189793085C687.0275766431542 290.157598773804 677.844978231672 440.48447140733515 638.8405389039268 518.9467442450641 "></path><path d="M646.1420564184207 216.27986692929267C673.9808686139199 295.15044212898965 665.2156610393233 438.6442750973604 627.9841507719302 513.5400809879197C590.7526405045371 588.4358868784793 567.474783712092 546.7726719673412 467.4308071349342 575.7797352039776C367.3868305577762 604.7867984406139 192.3092641061835 701.5843632683046 147.77306320157157 652.773984523774C103.23686229695966 603.9636057792434 215.62884331207061 438.46446549542884 253.657042792796 341.4899172302303C291.68524227352134 244.51536896503183 280.1624187422336 230.3229439343326 330.30842070905396 187.29615285082116C380.4544226758744 144.26936176730965 428.55917812741563 128.9230462630261 494.35785223353355 134.96132002937435C560.1565263396516 140.9995937957226 618.3032442229214 137.40929172959562 646.1420564184207 216.27986692929267C673.9808686139199 295.15044212898965 665.2156610393233 438.6442750973604 627.9841507719302 513.5400809879197 "></path><path d="M634.4210061127816 225.0284061842873C660.9341605846856 300.14323970780833 652.5863438469746 436.8040330110184 617.1277626399335 508.1333719544084C581.6691814328924 579.4627108977983 559.4997940115162 539.7834586014764 464.21981631898484 567.4092331125586C368.9398386264536 595.0350076236408 202.19929914874615 687.2231646023939 159.78386971578243 640.7370896076029C117.36844028281871 594.2510146128118 224.40842220197203 436.6327857710837 260.6257550407581 344.2760731375613C296.8430878795442 251.91936050403882 285.86897023069866 238.40276523670627 333.62706734195615 197.42486896669533C381.38516445321375 156.44697269668438 427.19921726420546 141.8314341211763 489.8646211747939 147.58217104150793C552.5300250853825 153.33290796183962 607.9078516408774 149.9135726607663 634.4210061127816 225.0284061842873C660.9341605846856 300.14323970780833 652.5863438469746 436.8040330110184 617.1277626399335 508.1333719544084 "></path><path d="M622.6999558071425 233.7769912156491C647.8874525554513 305.1360830629941 639.9570266546259 434.96383670104365 606.2713745079368 502.72670869726403C572.5857223612478 570.4895806934846 551.5248043109403 532.7942910119787 461.0088255030356 559.0387767975069C370.4928466951309 585.2832625830349 212.08933419130886 672.8620117128503 171.79467622999334 628.7002404677988C131.50001826867776 584.5384692227474 233.1880010918734 434.80115182310567 267.5944672887202 347.0622748212594C302.000933485567 259.32339781941306 291.57552171916376 246.48263231544718 336.94571397485834 207.55363085893674C382.3159062305531 168.62462940242636 425.83925640099517 154.73986775569364 485.3713901160543 160.2030678300087C544.9035238311133 165.66626790432383 597.5124590588337 162.41789936830418 622.6999558071425 233.7769912156491C647.8874525554513 305.1360830629941 639.9570266546259 434.96383670104365 606.2713745079368 502.72670869726403 "></path><path d="M610.9789055015034 242.52559150579998C634.8407445262171 310.1289416769689 627.3277094622772 433.12365564985794 595.4149863759401 497.32006069890895C563.5022632896032 561.5164657479598 543.5498146103646 525.8051386812701 457.7978346870864 550.6683357412442C372.04585476380817 575.5315328012182 221.97936923387158 658.5008740820961 183.8054827442042 616.663406586784C145.63159625453682 574.825939091472 241.9675799817748 432.9695331339167 274.5631795366823 349.84849176374655C307.15877909158974 266.72745039357636 297.28207320762886 254.5625146529771 340.26436060776064 217.68240800996722C383.2466480078923 180.80230136695735 424.4792955377849 167.6483166490001 480.8781590573145 172.8239798772986C537.2770225768443 177.9996431055971 587.1170664767897 174.92224133463105 610.9789055015034 242.52559150579998C634.8407445262171 310.1289416769689 627.3277094622772 433.12365564985794 595.4149863759401 497.32006069890895 "></path><path d="M599.2578551958643 251.27416127837273C621.7940364969828 315.1217697733656 614.6983922699284 431.2834440810941 584.5585982439435 491.9133821829755C554.4188042179586 552.543320284857 535.5748249097887 518.8159558329835 454.58684387113703 542.2978641674033C373.59886283248545 565.7797725018231 231.86940427643424 644.1397059337633 195.81628925841505 604.6265421881909C159.76317424039593 565.1133784426185 250.74715887167622 431.1378839271496 281.53189178464436 352.6346781886556C312.31662469761255 274.13147245016154 302.9886246960939 262.64236647292887 343.58300724066277 227.81115464341957C384.17738978523164 192.97994281391027 423.1193346745747 180.55673502472837 476.38492799857477 185.4448614070103C529.6505213225751 190.3329877892922 576.7216738947459 187.42655278337986 599.2578551958643 251.27416127837273C621.7940364969828 315.1217697733656 614.6983922699284 431.2834440810941 584.5585982439435 491.9133821829755 "></path><path d="M587.5368048902253 260.02274630973454C608.7473284677485 320.11461312855135 602.0690750775797 429.44324777111945 573.7022101119469 486.50671892583136C545.335345146314 543.5701900805434 527.5998352092129 511.8267882434858 451.3758530551879 533.9274078523515C375.15187090116274 556.0280274612173 241.75943931899695 629.7785530442197 207.82709577262597 592.589693048387C173.89475222625498 555.4008330525542 259.52673776157764 429.30624997917164 288.5006040326065 355.4208798723537C317.47447030363537 281.5355097655358 308.69517618455893 270.7222335516697 346.90165387356495 237.93991653566098C385.108131562571 205.1575995196522 421.7593738113644 193.4651686592457 471.89169693983513 198.06575819551108C522.0240200683058 202.6663477317764 566.326281312702 199.93087949091773 587.5368048902253 260.02274630973454C608.7473284677485 320.11461312855135 602.0690750775797 429.44324777111945 573.7022101119469 486.50671892583136 "></path><path d="M575.8157545845861 268.77130082351823C595.7006204385142 325.107425966159 589.4397578852308 427.60302094356655 562.8458219799502 481.100025151109C536.2518860746693 534.5970293586515 519.6248455086371 504.83759013641 448.1648622392386 525.5569210197216C376.70487896984014 546.2762519030334 251.6494743615596 615.4173696370981 219.83790228683682 580.5528133910049C188.02633021211403 545.6882571449116 268.306316651479 427.47458551361547 295.4693162805686 358.20705103847365C322.63231590965813 288.93951656333184 314.401727673024 278.80207011283244 350.22030050646714 248.06864791032422C386.0388733399103 217.33522570781605 420.3994129481541 206.37357177618497 467.3984658810955 210.68662446643373C514.3975188140369 214.99967715668248 555.9308887306581 212.43517568087748 575.8157545845861 268.77130082351823C595.7006204385142 325.107425966159 589.4397578852308 427.60302094356655 562.8458219799502 481.100025151109 "></path><path d="M564.0947195377362 277.51988585488C582.653927668069 330.1002693213447 576.8104559516712 425.7628246335918 551.9894491067425 475.6933618939647C527.1684422618138 525.6238991543377 511.64987106685044 497.8484225469124 444.9538866820785 517.1864647046699C378.2579022973065 536.5245068624274 261.5395246629114 601.0562167475546 231.8487240598368 568.5159642512009C202.15792345676215 535.9757117548471 277.0859108001695 425.64295156563753 302.4380437873197 360.99325272217175C327.79017677447 296.3435538787061 320.1082944202781 286.88193719157334 353.5389623981584 258.19740980256563C386.9696303760386 229.51288241355797 419.0394673437329 219.2820054107023 462.9052500811448 223.3075212549345C506.7710328185567 227.33303709916663 545.5355114074033 224.9395023884153 564.0947195377362 277.51988585488C582.653927668069 330.1002693213447 576.8104559516712 425.7628246335918 551.9894491067425 475.6933618939647 "></path><path d="M552.373653973308 286.2684708862418C569.6072043800457 335.0931126765305 564.1811235005334 423.922628323617 541.1330457159568 470.28669863682046C518.0849679313801 516.650768950024 503.6748661074855 490.8592549574147 441.7428806073401 508.8160083896182C379.8108951071948 526.7727618218216 271.429544446685 586.695063858011 243.8595153152586 556.4791151113968C216.2894861838322 526.2631663647827 285.8654744312818 423.8113176176595 309.40674077649277 363.77945440586984C332.9480071217037 303.7475911940803 325.81483064995416 294.9618042703142 356.8575937722715 268.32617169480704C387.90035689458887 241.69053911929996 417.67949122173354 232.19043904521965 458.412003763616 235.92841804343527C499.14451630549854 239.66639704165084 535.1401035665704 237.44382909595316 552.373653973308 286.2684708862418C569.6072043800457 335.0931126765305 564.1811235005334 423.922628323617 541.1330457159568 470.28669863682046 "></path><path d="M540.6526036676689 295.0170559176036C556.5604963508114 340.08595603171625 551.5518063081847 422.08243201364235 530.2766575839601 464.8800353796762C509.0015088597354 507.6776387457103 495.69987640690965 483.8700873679171 438.5318897913909 500.4455520745664C381.3639031758721 517.0210167812157 281.3195794892477 572.3339109684675 255.87032182946945 544.442265971593C230.42106416969125 516.5506209747183 294.64505332118324 421.97968366968144 316.3754530244548 366.565656089568C338.10585272772653 311.15162850945455 331.5213821384192 303.04167134905504 360.17624040517376 278.45493358704846C388.8310986719282 253.86819582504188 416.31953035852325 245.09887267973704 453.91877270487635 248.54931483193604C491.51801505122944 251.99975698413505 524.7447109845266 249.94815580349103 540.6526036676689 295.0170559176036C556.5604963508114 340.08595603171625 551.5518063081847 422.08243201364235 530.2766575839601 464.8800353796762 "></path><path d="M528.9315533620298 303.7656409489654C543.5137883215771 345.078799386902 538.922489115836 420.2422357036676 519.4202694519633 459.47337212253206C499.9180497880909 498.70450854139654 487.7248867063339 476.8809197784194 435.32089897544165 492.0750957595146C382.91691124454945 507.26927174060984 291.2096145318104 557.9727580789241 267.88112834368036 532.405416831789C244.5526421555503 506.8380755846539 303.4246322110846 420.1480497217035 323.34416527241694 369.35185777326615C343.2636983337493 318.5556658248288 337.2279336268843 311.1215384277959 363.4948870380759 288.5836954792899C389.76184044926754 266.04585253078386 414.95956949531296 258.0073063142544 449.4255416461367 261.1702116204368C483.89151379696034 264.3331169266192 514.3493184024826 262.4524825110289 528.9315533620298 303.7656409489654C543.5137883215771 345.078799386902 538.922489115836 420.2422357036676 519.4202694519633 459.47337212253206 "></path><path d="M517.2105030563907 312.51422598032724C530.4670802923429 350.07164274208776 526.2931719234873 418.4020393936928 508.56388131996675 454.0667088653878C490.8345907164462 489.7313783370828 479.74989700575816 469.8917521889218 432.1099081594924 483.7046394444628C384.4699193132268 497.51752670000405 301.0996495743731 543.6116051893805 279.8919348578912 520.368567691985C258.68422014140936 497.1255301945895 312.204211100986 418.31641577372545 330.31287752037906 372.13805945696424C348.4215439397721 325.95970314020303 342.93448511534933 319.20140550653673 366.8135336709781 298.7124573715313C390.6925822266069 278.2235092365258 413.59960863210273 270.9157399487717 444.93231058739696 273.7911084089376C476.26501254269124 276.6664768691034 503.9539258204387 274.9568092185667 517.2105030563907 312.51422598032724C530.4670802923429 350.07164274208776 526.2931719234873 418.4020393936928 508.56388131996675 454.0667088653878 "></path><path d="M505.48945275075175 321.2627804941109C517.4203722631086 355.0644555796954 513.6638547311386 416.5618125661399 497.70749318797004 448.6600150906654C481.7511316448016 480.7582176151909 471.7749073051823 462.902554081846 428.8989173435432 475.334152611833C386.0229273819041 487.76575114182003 310.9896846169358 529.250421782259 291.9027413721021 508.33168803460296C272.8157981272684 487.41295428694696 320.98378999088743 416.4847513081693 337.2815897683412 374.9242306230842C353.57938954579487 333.36370993799915 348.6410366038144 327.28124206769945 370.1321803038803 308.8411887461946C391.62332400394615 290.40113542468964 412.23964776889244 283.824143065711 440.43907952865726 286.41197467986024C468.63851128842214 288.9998062940095 493.55853323839483 287.46110540852646 505.48945275075175 321.2627804941109C517.4203722631086 355.0644555796954 513.6638547311386 416.5618125661399 497.70749318797004 448.6600150906654 "></path><path d="M493.76840244511266 330.0113502666837C504.37366423387425 360.0572836760921 501.0345375387899 414.72160099737613 486.85110505597345 443.2533365747321C472.667672573157 471.7850721520881 463.79991760460643 455.91337123355925 425.68792652759396 466.96368103799216C387.57593545058137 478.0139908424251 320.87971965949845 514.8892536339263 303.913547886313 496.2948236360098C286.94737611312746 477.7003936380935 329.7633688807888 414.6531021014022 344.25030201630324 377.71041704799325C358.7372351518177 340.76773199458427 354.34758809227947 335.3610938876513 373.4508269367825 318.96993537964687C392.5540657812855 302.5787768716425 410.8796869056822 296.73256144143926 435.94584846991756 299.03285620957195C461.0120100341529 301.3331509777046 483.16314065635106 299.9654168572753 493.76840244511266 330.0113502666837C504.37366423387425 360.0572836760921 501.0345375387899 414.72160099737613 486.85110505597345 443.2533365747321 "></path><path d="M482.0473673982626 338.75995055683455C491.326971463429 365.0501422900669 488.40523560523013 412.8814199461904 475.9947321827658 437.8466885763769C463.5842287603014 462.8119572065634 455.82494316281975 448.9242189028507 422.4769509704338 458.59323998172954C389.1289587780478 468.26226106060824 330.7697699608502 500.5281160031718 315.9243696593129 484.2579897549949C301.07896935777563 467.98786350681803 338.54296302947927 412.8214834122133 351.2190295230544 380.4966339904804C363.8950960166295 348.17178456874757 360.0541548395336 343.4409762251812 376.76948882847375 329.09871253067735C393.48482281741383 314.75644883617355 409.519741301261 309.64101033474566 431.45263266996693 311.6537682568618C453.3855240386729 313.66652617897785 472.7677633330961 312.4697588236022 482.0473673982626 338.75995055683455C491.326971463429 365.0501422900669 488.40523560523013 412.8814199461904 475.9947321827658 437.8466885763769 "></path><path d="M470.32630183383446 347.5085203294073C478.2802481754057 370.0429703864636 475.77590315409236 411.04120837742664 465.13832879198003 432.44001006044357C454.5007544298677 453.8388117434606 447.8499382034548 441.935036054564 419.26594489569544 450.2227684078887C390.68195158793606 458.51050076121334 340.6597897446238 486.16694785483924 327.93516091473475 472.2211253564019C315.2105320848456 458.2753028579646 347.3225266605916 410.9898342054462 358.1877265122274 383.2828204153895C369.05292636386326 355.57580662533275 365.7606910692096 351.520828045133 380.0881202025869 339.2274591641297C394.4155493359641 326.9340902831264 408.1597651792616 322.549428710474 426.9593863524382 324.2746497865735C445.7590075256147 325.999870862673 462.3723554922633 324.97407027235096 470.32630183383446 347.5085203294073C478.2802481754057 370.0429703864636 475.77590315409236 411.04120837742664 465.13832879198003 432.44001006044357 "></path><path d="M458.60525152819537 356.2571206195581C465.23354014617144 375.0358290004384 463.14658596174365 409.20102732624093 454.2819406599834 427.03336206208843C445.4172953582231 444.8656967979359 439.8749485028791 434.94588372385545 416.0549540797462 441.85232735162595C392.2349596566134 448.75877097939656 350.54982478718654 471.8058102240848 339.9459674289456 460.18429147538706C329.3421100707047 448.5627727266893 356.102105550493 409.15821551625726 365.15643876018953 386.06903735787665C374.210771969886 362.97985919949605 371.4672425576747 359.6007103826629 383.40676683548907 349.3562363151602C395.34629111330344 339.11176224765745 406.79980431605134 335.4578776037804 422.4661552936985 336.8955618338633C438.1325062713456 338.33324606394626 451.97696291021936 337.4784122386779 458.60525152819537 356.2571206195581C465.23354014617144 375.0358290004384 463.14658596174365 409.20102732624093 454.2819406599834 427.03336206208843 "></path><path d="M446.88418596376727 365.0056751333418C452.18681685814806 380.02864183804604 450.5172535106059 407.36080049868804 443.42553726919766 421.62666828736604C436.33382102778944 435.89253607604405 431.89994354351415 427.9566856167796 412.8439480050079 433.4818405189961C393.7879524665016 439.00699542121254 360.4398445709602 457.44462681696314 351.9567586843674 448.1474118180049C343.47367279777467 438.85019681904674 364.88166918160533 407.32655105070114 372.1251357493626 388.8552085239966C379.3686023171198 370.38386599729216 377.17377878735067 367.6805469438256 386.7253982096022 359.48496768982346C396.2770176318537 351.28938843582125 405.43982819405204 348.36628072071966 417.9729089761697 349.516428104786C430.5059897582874 350.6665754888523 441.58155506938647 349.98270842863764 446.88418596376727 365.0056751333418C452.18681685814806 380.02864183804604 450.5172535106059 407.36080049868804 443.42553726919766 421.62666828736604 "></path><path d="M435.16315091691723 373.7542601647036C439.1401240877028 385.0214851932318 437.8879515770462 405.5206041887133 432.56916439599 416.2200050302218C427.25037721493385 426.9194058717303 423.9249691017274 420.967518027282 409.63297244784775 425.11138420394434C395.340975793968 429.25525038060664 370.3298948723119 443.0834739274196 363.9675804573674 436.11056267820095C357.6052660424228 429.1376514289823 373.6612633302958 405.4949171027231 379.0938632561137 391.6414102076947C384.5264631819316 377.7879033126664 382.8803455346048 375.76041402256647 390.04406010129344 369.6137295820649C397.20777466798205 363.46704514156323 404.0798825896308 361.274714355237 413.4796931762191 362.13732489328675C422.87950376280736 362.9999354313365 431.18617774613165 362.4870351361755 435.16315091691723 373.7542601647036C439.1401240877028 385.0214851932318 437.8879515770462 405.5206041887133 432.56916439599 416.2200050302218 "></path><path d="M423.44210061127814 382.5028299372764C426.09341605846856 390.0143132896285 425.2586343846975 403.6803926199495 421.71277626399336 410.8133265142885C418.16691814328925 417.9462604086275 415.9499794011516 413.9783351789953 406.42198163189846 416.74091263010354C396.89398386264537 419.50349008121174 380.2199299148746 428.72230577908704 375.97838697157823 424.0736982796079C371.7368440282819 419.4250907801288 382.4408422201972 403.66326789595604 386.0625755040758 394.4275966326038C389.6843087879544 385.1919253692515 388.58689702306987 383.8402658425183 393.3627067341956 379.7424762155172C398.1385164453214 375.6446865885161 402.7199217264205 374.18313273096527 408.9864621174794 374.75820642299846C415.25300250853826 375.33328011503164 420.79078516408777 374.99134658492426 423.44210061127814 382.5028299372764C426.09341605846856 390.0143132896285 425.2586343846975 403.6803926199495 421.71277626399336 410.8133265142885 "></path><path d="M411.7210503056391 391.25143022742725C413.0467080292343 395.0071719036033 412.6293171923487 401.84021156876383 410.85638813199665 405.4066785159333C409.0834590716446 408.9731454631028 407.9749897005758 406.9891828482867 403.21099081594923 408.3704715738408C398.44699193132266 409.75176029939496 390.1099649574373 414.3611681483326 387.98919348578914 412.036864398593C385.86842201414095 409.71256064885347 391.2204211100986 401.83164920676705 393.0312877520379 397.21381357509097C394.8421543939772 392.5959779434148 394.29344851153496 391.9201481800482 396.6813533670978 389.87125336654765C399.06925822266066 387.82235855304714 401.3599608632103 387.0915816242717 404.4932310587397 387.3791184702883C407.6265012542691 387.66665531630485 410.3953925820439 387.4956885512512 411.7210503056391 391.25143022742725C413.0467080292343 395.0071719036033 412.6293171923487 401.84021156876383 410.85638813199665 405.4066785159333 "></path></g></svg>