<svg xmlns="http://www.w3.org/2000/svg" version="1.1" xmlns:xlink="http://www.w3.org/1999/xlink" xmlns:svgjs="http://svgjs.dev/svgjs" viewBox="0 0 800 800"><g fill="none" stroke-width="3" stroke="hsl(335, 77%, 50%)" stroke-linecap="round"><line x1="552.5" y1="400" x2="247.5" y2="400" transform="rotate(0, 400, 400)" opacity="0.91"></line><line x1="689.5" y1="400" x2="110.5" y2="400" transform="rotate(4, 400, 400)" opacity="0.34"></line><line x1="343.5" y1="400" x2="456.5" y2="400" transform="rotate(8, 400, 400)" opacity="0.40"></line><line x1="574.5" y1="400" x2="225.5" y2="400" transform="rotate(12, 400, 400)" opacity="0.09"></line><line x1="433.5" y1="400" x2="366.5" y2="400" transform="rotate(16, 400, 400)" opacity="0.20"></line><line x1="443.5" y1="400" x2="356.5" y2="400" transform="rotate(20, 400, 400)" opacity="0.80"></line><line x1="68.5" y1="400" x2="731.5" y2="400" transform="rotate(24, 400, 400)" opacity="0.77"></line><line x1="522.5" y1="400" x2="277.5" y2="400" transform="rotate(28, 400, 400)" opacity="0.14"></line><line x1="552.5" y1="400" x2="247.5" y2="400" transform="rotate(32, 400, 400)" opacity="0.45"></line><line x1="651.5" y1="400" x2="148.5" y2="400" transform="rotate(36, 400, 400)" opacity="0.97"></line><line x1="574.5" y1="400" x2="225.5" y2="400" transform="rotate(40, 400, 400)" opacity="0.36"></line><line x1="75" y1="400" x2="725" y2="400" transform="rotate(44, 400, 400)" opacity="0.24"></line><line x1="478" y1="400" x2="322" y2="400" transform="rotate(48, 400, 400)" opacity="0.20"></line><line x1="103.5" y1="400" x2="696.5" y2="400" transform="rotate(52, 400, 400)" opacity="0.45"></line><line x1="568.5" y1="400" x2="231.5" y2="400" transform="rotate(56, 400, 400)" opacity="0.74"></line><line x1="232" y1="400" x2="568" y2="400" transform="rotate(60, 400, 400)" opacity="0.12"></line><line x1="591.5" y1="400" x2="208.5" y2="400" transform="rotate(64, 400, 400)" opacity="0.81"></line><line x1="94" y1="400" x2="706" y2="400" transform="rotate(68, 400, 400)" opacity="0.69"></line><line x1="367.5" y1="400" x2="432.5" y2="400" transform="rotate(72, 400, 400)" opacity="0.52"></line><line x1="306.5" y1="400" x2="493.5" y2="400" transform="rotate(76, 400, 400)" opacity="0.55"></line><line x1="355" y1="400" x2="445" y2="400" transform="rotate(80, 400, 400)" opacity="0.33"></line><line x1="307" y1="400" x2="493" y2="400" transform="rotate(84, 400, 400)" opacity="0.76"></line><line x1="540.5" y1="400" x2="259.5" y2="400" transform="rotate(88, 400, 400)" opacity="0.11"></line><line x1="65.5" y1="400" x2="734.5" y2="400" transform="rotate(92, 400, 400)" opacity="0.51"></line><line x1="162" y1="400" x2="638" y2="400" transform="rotate(96, 400, 400)" opacity="0.99"></line><line x1="103.5" y1="400" x2="696.5" y2="400" transform="rotate(100, 400, 400)" opacity="0.36"></line><line x1="170.5" y1="400" x2="629.5" y2="400" transform="rotate(104, 400, 400)" opacity="0.20"></line><line x1="336" y1="400" x2="464" y2="400" transform="rotate(108, 400, 400)" opacity="0.30"></line><line x1="739" y1="400" x2="61" y2="400" transform="rotate(112, 400, 400)" opacity="0.35"></line><line x1="60.5" y1="400" x2="739.5" y2="400" transform="rotate(116, 400, 400)" opacity="0.38"></line><line x1="548.5" y1="400" x2="251.5" y2="400" transform="rotate(120, 400, 400)" opacity="0.86"></line><line x1="624" y1="400" x2="176" y2="400" transform="rotate(124, 400, 400)" opacity="0.89"></line><line x1="125" y1="400" x2="675" y2="400" transform="rotate(128, 400, 400)" opacity="0.43"></line><line x1="305.5" y1="400" x2="494.5" y2="400" transform="rotate(132, 400, 400)" opacity="0.60"></line><line x1="549" y1="400" x2="251" y2="400" transform="rotate(136, 400, 400)" opacity="0.08"></line><line x1="221" y1="400" x2="579" y2="400" transform="rotate(140, 400, 400)" opacity="0.47"></line><line x1="60" y1="400" x2="740" y2="400" transform="rotate(144, 400, 400)" opacity="0.33"></line><line x1="418" y1="400" x2="382" y2="400" transform="rotate(148, 400, 400)" opacity="0.54"></line><line x1="128.5" y1="400" x2="671.5" y2="400" transform="rotate(152, 400, 400)" opacity="0.54"></line><line x1="514.5" y1="400" x2="285.5" y2="400" transform="rotate(156, 400, 400)" opacity="0.46"></line><line x1="435.5" y1="400" x2="364.5" y2="400" transform="rotate(160, 400, 400)" opacity="0.71"></line><line x1="318.5" y1="400" x2="481.5" y2="400" transform="rotate(164, 400, 400)" opacity="0.17"></line><line x1="698.5" y1="400" x2="101.5" y2="400" transform="rotate(168, 400, 400)" opacity="0.88"></line><line x1="740" y1="400" x2="60" y2="400" transform="rotate(172, 400, 400)" opacity="0.20"></line><line x1="263" y1="400" x2="537" y2="400" transform="rotate(176, 400, 400)" opacity="0.99"></line><line x1="193.5" y1="400" x2="606.5" y2="400" transform="rotate(180, 400, 400)" opacity="0.10"></line><line x1="717" y1="400" x2="83" y2="400" transform="rotate(184, 400, 400)" opacity="0.16"></line><line x1="361" y1="400" x2="439" y2="400" transform="rotate(188, 400, 400)" opacity="0.15"></line><line x1="690.5" y1="400" x2="109.5" y2="400" transform="rotate(192, 400, 400)" opacity="0.84"></line><line x1="312.5" y1="400" x2="487.5" y2="400" transform="rotate(196, 400, 400)" opacity="0.85"></line><line x1="445.5" y1="400" x2="354.5" y2="400" transform="rotate(200, 400, 400)" opacity="0.77"></line><line x1="264.5" y1="400" x2="535.5" y2="400" transform="rotate(204, 400, 400)" opacity="0.49"></line><line x1="459" y1="400" x2="341" y2="400" transform="rotate(208, 400, 400)" opacity="0.99"></line><line x1="226" y1="400" x2="574" y2="400" transform="rotate(212, 400, 400)" opacity="0.58"></line><line x1="85" y1="400" x2="715" y2="400" transform="rotate(216, 400, 400)" opacity="0.95"></line><line x1="173.5" y1="400" x2="626.5" y2="400" transform="rotate(220, 400, 400)" opacity="0.47"></line><line x1="389.5" y1="400" x2="410.5" y2="400" transform="rotate(224, 400, 400)" opacity="0.94"></line><line x1="717.5" y1="400" x2="82.5" y2="400" transform="rotate(228, 400, 400)" opacity="0.62"></line><line x1="368.5" y1="400" x2="431.5" y2="400" transform="rotate(232, 400, 400)" opacity="0.28"></line><line x1="727.5" y1="400" x2="72.5" y2="400" transform="rotate(236, 400, 400)" opacity="0.12"></line><line x1="431" y1="400" x2="369" y2="400" transform="rotate(240, 400, 400)" opacity="0.74"></line><line x1="626" y1="400" x2="174" y2="400" transform="rotate(244, 400, 400)" opacity="0.51"></line><line x1="306" y1="400" x2="494" y2="400" transform="rotate(248, 400, 400)" opacity="0.37"></line><line x1="433.5" y1="400" x2="366.5" y2="400" transform="rotate(252, 400, 400)" opacity="0.14"></line><line x1="162" y1="400" x2="638" y2="400" transform="rotate(256, 400, 400)" opacity="0.86"></line><line x1="98" y1="400" x2="702" y2="400" transform="rotate(260, 400, 400)" opacity="0.94"></line><line x1="668" y1="400" x2="132" y2="400" transform="rotate(264, 400, 400)" opacity="0.09"></line><line x1="657.5" y1="400" x2="142.5" y2="400" transform="rotate(268, 400, 400)" opacity="0.66"></line><line x1="298" y1="400" x2="502" y2="400" transform="rotate(272, 400, 400)" opacity="0.61"></line><line x1="59" y1="400" x2="741" y2="400" transform="rotate(276, 400, 400)" opacity="0.95"></line><line x1="135" y1="400" x2="665" y2="400" transform="rotate(280, 400, 400)" opacity="0.25"></line><line x1="501" y1="400" x2="299" y2="400" transform="rotate(284, 400, 400)" opacity="0.97"></line><line x1="158.5" y1="400" x2="641.5" y2="400" transform="rotate(288, 400, 400)" opacity="0.39"></line><line x1="562" y1="400" x2="238" y2="400" transform="rotate(292, 400, 400)" opacity="0.24"></line><line x1="719.5" y1="400" x2="80.5" y2="400" transform="rotate(296, 400, 400)" opacity="0.42"></line><line x1="351.5" y1="400" x2="448.5" y2="400" transform="rotate(300, 400, 400)" opacity="0.75"></line><line x1="511.5" y1="400" x2="288.5" y2="400" transform="rotate(304, 400, 400)" opacity="0.08"></line><line x1="500" y1="400" x2="300" y2="400" transform="rotate(308, 400, 400)" opacity="0.77"></line><line x1="131" y1="400" x2="669" y2="400" transform="rotate(312, 400, 400)" opacity="0.61"></line><line x1="706" y1="400" x2="94" y2="400" transform="rotate(316, 400, 400)" opacity="0.42"></line><line x1="624" y1="400" x2="176" y2="400" transform="rotate(320, 400, 400)" opacity="0.95"></line><line x1="338" y1="400" x2="462" y2="400" transform="rotate(324, 400, 400)" opacity="0.45"></line><line x1="715" y1="400" x2="85" y2="400" transform="rotate(328, 400, 400)" opacity="0.78"></line><line x1="658" y1="400" x2="142" y2="400" transform="rotate(332, 400, 400)" opacity="0.35"></line><line x1="593" y1="400" x2="207" y2="400" transform="rotate(336, 400, 400)" opacity="0.85"></line><line x1="728.5" y1="400" x2="71.5" y2="400" transform="rotate(340, 400, 400)" opacity="0.60"></line><line x1="516" y1="400" x2="284" y2="400" transform="rotate(344, 400, 400)" opacity="0.95"></line><line x1="277.5" y1="400" x2="522.5" y2="400" transform="rotate(348, 400, 400)" opacity="0.95"></line></g></svg>