<svg xmlns="http://www.w3.org/2000/svg" version="1.1" xmlns:xlink="http://www.w3.org/1999/xlink" xmlns:svgjs="http://svgjs.dev/svgjs" viewBox="0 0 800 800"><g fill="none" stroke-width="3" stroke="hsl(158, 100%, 67%)" stroke-linecap="round"><line x1="464.5" y1="400" x2="335.5" y2="400" transform="rotate(0, 400, 400)" opacity="0.71"></line><line x1="593.5" y1="400" x2="206.5" y2="400" transform="rotate(4, 400, 400)" opacity="0.58"></line><line x1="702.5" y1="400" x2="97.5" y2="400" transform="rotate(8, 400, 400)" opacity="0.11"></line><line x1="505.5" y1="400" x2="294.5" y2="400" transform="rotate(12, 400, 400)" opacity="0.60"></line><line x1="157" y1="400" x2="643" y2="400" transform="rotate(16, 400, 400)" opacity="0.54"></line><line x1="328.5" y1="400" x2="471.5" y2="400" transform="rotate(20, 400, 400)" opacity="0.50"></line><line x1="257" y1="400" x2="543" y2="400" transform="rotate(24, 400, 400)" opacity="0.34"></line><line x1="548" y1="400" x2="252" y2="400" transform="rotate(28, 400, 400)" opacity="0.68"></line><line x1="621.5" y1="400" x2="178.5" y2="400" transform="rotate(32, 400, 400)" opacity="0.56"></line><line x1="267" y1="400" x2="533" y2="400" transform="rotate(36, 400, 400)" opacity="0.82"></line><line x1="526" y1="400" x2="274" y2="400" transform="rotate(40, 400, 400)" opacity="0.24"></line><line x1="105" y1="400" x2="695" y2="400" transform="rotate(44, 400, 400)" opacity="0.30"></line><line x1="319" y1="400" x2="481" y2="400" transform="rotate(48, 400, 400)" opacity="0.27"></line><line x1="597.5" y1="400" x2="202.5" y2="400" transform="rotate(52, 400, 400)" opacity="0.64"></line><line x1="681.5" y1="400" x2="118.5" y2="400" transform="rotate(56, 400, 400)" opacity="0.18"></line><line x1="529.5" y1="400" x2="270.5" y2="400" transform="rotate(60, 400, 400)" opacity="0.83"></line><line x1="65.5" y1="400" x2="734.5" y2="400" transform="rotate(64, 400, 400)" opacity="0.87"></line><line x1="150" y1="400" x2="650" y2="400" transform="rotate(68, 400, 400)" opacity="0.65"></line><line x1="645" y1="400" x2="155" y2="400" transform="rotate(72, 400, 400)" opacity="0.21"></line><line x1="271" y1="400" x2="529" y2="400" transform="rotate(76, 400, 400)" opacity="0.70"></line><line x1="602.5" y1="400" x2="197.5" y2="400" transform="rotate(80, 400, 400)" opacity="0.69"></line><line x1="192" y1="400" x2="608" y2="400" transform="rotate(84, 400, 400)" opacity="0.90"></line><line x1="739.5" y1="400" x2="60.5" y2="400" transform="rotate(88, 400, 400)" opacity="0.47"></line><line x1="388.5" y1="400" x2="411.5" y2="400" transform="rotate(92, 400, 400)" opacity="0.49"></line><line x1="113" y1="400" x2="687" y2="400" transform="rotate(96, 400, 400)" opacity="0.90"></line><line x1="726" y1="400" x2="74" y2="400" transform="rotate(100, 400, 400)" opacity="0.44"></line><line x1="620" y1="400" x2="180" y2="400" transform="rotate(104, 400, 400)" opacity="0.13"></line><line x1="441" y1="400" x2="359" y2="400" transform="rotate(108, 400, 400)" opacity="0.66"></line><line x1="620" y1="400" x2="180" y2="400" transform="rotate(112, 400, 400)" opacity="0.42"></line><line x1="135" y1="400" x2="665" y2="400" transform="rotate(116, 400, 400)" opacity="0.22"></line><line x1="53.5" y1="400" x2="746.5" y2="400" transform="rotate(120, 400, 400)" opacity="0.68"></line><line x1="145.5" y1="400" x2="654.5" y2="400" transform="rotate(124, 400, 400)" opacity="0.30"></line><line x1="121.5" y1="400" x2="678.5" y2="400" transform="rotate(128, 400, 400)" opacity="0.14"></line><line x1="52" y1="400" x2="748" y2="400" transform="rotate(132, 400, 400)" opacity="0.82"></line><line x1="658.5" y1="400" x2="141.5" y2="400" transform="rotate(136, 400, 400)" opacity="0.97"></line><line x1="498" y1="400" x2="302" y2="400" transform="rotate(140, 400, 400)" opacity="0.47"></line><line x1="697.5" y1="400" x2="102.5" y2="400" transform="rotate(144, 400, 400)" opacity="0.93"></line><line x1="355" y1="400" x2="445" y2="400" transform="rotate(148, 400, 400)" opacity="0.88"></line><line x1="634" y1="400" x2="166" y2="400" transform="rotate(152, 400, 400)" opacity="0.31"></line><line x1="420.5" y1="400" x2="379.5" y2="400" transform="rotate(156, 400, 400)" opacity="0.10"></line><line x1="569" y1="400" x2="231" y2="400" transform="rotate(160, 400, 400)" opacity="0.59"></line><line x1="73.5" y1="400" x2="726.5" y2="400" transform="rotate(164, 400, 400)" opacity="0.81"></line><line x1="481" y1="400" x2="319" y2="400" transform="rotate(168, 400, 400)" opacity="0.61"></line><line x1="741" y1="400" x2="59" y2="400" transform="rotate(172, 400, 400)" opacity="0.60"></line><line x1="243" y1="400" x2="557" y2="400" transform="rotate(176, 400, 400)" opacity="0.16"></line><line x1="155.5" y1="400" x2="644.5" y2="400" transform="rotate(180, 400, 400)" opacity="0.55"></line><line x1="119" y1="400" x2="681" y2="400" transform="rotate(184, 400, 400)" opacity="0.11"></line><line x1="392.5" y1="400" x2="407.5" y2="400" transform="rotate(188, 400, 400)" opacity="0.85"></line><line x1="481.5" y1="400" x2="318.5" y2="400" transform="rotate(192, 400, 400)" opacity="0.69"></line><line x1="465.5" y1="400" x2="334.5" y2="400" transform="rotate(196, 400, 400)" opacity="0.14"></line><line x1="92.5" y1="400" x2="707.5" y2="400" transform="rotate(200, 400, 400)" opacity="0.61"></line><line x1="272.5" y1="400" x2="527.5" y2="400" transform="rotate(204, 400, 400)" opacity="0.92"></line><line x1="542.5" y1="400" x2="257.5" y2="400" transform="rotate(208, 400, 400)" opacity="0.95"></line><line x1="422.5" y1="400" x2="377.5" y2="400" transform="rotate(212, 400, 400)" opacity="0.41"></line><line x1="569.5" y1="400" x2="230.5" y2="400" transform="rotate(216, 400, 400)" opacity="0.88"></line><line x1="588" y1="400" x2="212" y2="400" transform="rotate(220, 400, 400)" opacity="0.93"></line><line x1="669.5" y1="400" x2="130.5" y2="400" transform="rotate(224, 400, 400)" opacity="0.63"></line><line x1="512" y1="400" x2="288" y2="400" transform="rotate(228, 400, 400)" opacity="0.57"></line><line x1="44" y1="400" x2="756" y2="400" transform="rotate(232, 400, 400)" opacity="0.51"></line><line x1="541.5" y1="400" x2="258.5" y2="400" transform="rotate(236, 400, 400)" opacity="0.74"></line><line x1="224.5" y1="400" x2="575.5" y2="400" transform="rotate(240, 400, 400)" opacity="0.55"></line><line x1="47" y1="400" x2="753" y2="400" transform="rotate(244, 400, 400)" opacity="0.61"></line><line x1="187.5" y1="400" x2="612.5" y2="400" transform="rotate(248, 400, 400)" opacity="0.11"></line><line x1="60" y1="400" x2="740" y2="400" transform="rotate(252, 400, 400)" opacity="0.89"></line><line x1="283.5" y1="400" x2="516.5" y2="400" transform="rotate(256, 400, 400)" opacity="0.62"></line><line x1="374" y1="400" x2="426" y2="400" transform="rotate(260, 400, 400)" opacity="0.81"></line><line x1="701" y1="400" x2="99" y2="400" transform="rotate(264, 400, 400)" opacity="0.12"></line><line x1="672.5" y1="400" x2="127.5" y2="400" transform="rotate(268, 400, 400)" opacity="0.98"></line><line x1="744.5" y1="400" x2="55.5" y2="400" transform="rotate(272, 400, 400)" opacity="0.64"></line><line x1="472" y1="400" x2="328" y2="400" transform="rotate(276, 400, 400)" opacity="0.94"></line><line x1="57" y1="400" x2="743" y2="400" transform="rotate(280, 400, 400)" opacity="0.13"></line><line x1="427.5" y1="400" x2="372.5" y2="400" transform="rotate(284, 400, 400)" opacity="0.60"></line><line x1="268" y1="400" x2="532" y2="400" transform="rotate(288, 400, 400)" opacity="0.17"></line><line x1="359" y1="400" x2="441" y2="400" transform="rotate(292, 400, 400)" opacity="0.97"></line><line x1="651.5" y1="400" x2="148.5" y2="400" transform="rotate(296, 400, 400)" opacity="0.65"></line><line x1="434.5" y1="400" x2="365.5" y2="400" transform="rotate(300, 400, 400)" opacity="0.41"></line><line x1="152.5" y1="400" x2="647.5" y2="400" transform="rotate(304, 400, 400)" opacity="0.56"></line><line x1="711.5" y1="400" x2="88.5" y2="400" transform="rotate(308, 400, 400)" opacity="0.87"></line><line x1="237" y1="400" x2="563" y2="400" transform="rotate(312, 400, 400)" opacity="0.20"></line><line x1="113.5" y1="400" x2="686.5" y2="400" transform="rotate(316, 400, 400)" opacity="0.78"></line><line x1="719" y1="400" x2="81" y2="400" transform="rotate(320, 400, 400)" opacity="0.62"></line><line x1="318.5" y1="400" x2="481.5" y2="400" transform="rotate(324, 400, 400)" opacity="0.84"></line><line x1="633.5" y1="400" x2="166.5" y2="400" transform="rotate(328, 400, 400)" opacity="0.49"></line><line x1="36.5" y1="400" x2="763.5" y2="400" transform="rotate(332, 400, 400)" opacity="0.96"></line><line x1="495" y1="400" x2="305" y2="400" transform="rotate(336, 400, 400)" opacity="0.22"></line><line x1="198" y1="400" x2="602" y2="400" transform="rotate(340, 400, 400)" opacity="0.35"></line><line x1="567.5" y1="400" x2="232.5" y2="400" transform="rotate(344, 400, 400)" opacity="0.92"></line><line x1="646" y1="400" x2="154" y2="400" transform="rotate(348, 400, 400)" opacity="0.46"></line></g></svg>