<svg xmlns="http://www.w3.org/2000/svg" version="1.1" xmlns:xlink="http://www.w3.org/1999/xlink" xmlns:svgjs="http://svgjs.dev/svgjs" viewBox="0 0 800 800"><defs><linearGradient x1="50%" y1="0%" x2="50%" y2="100%" id="uundulate-grad"><stop stop-color="hsl(305, 77%, 50%)" stop-opacity="1" offset="45%"></stop><stop stop-color="hsl(305, 77%, 80%)" stop-opacity="1" offset="100%"></stop></linearGradient></defs><g stroke-width="2" stroke="url(#uundulate-grad)" fill="none"><path d="M669.966033873756 299.6727175597834C692.911554792534 408.3256005846554 633.6964048668808 602.4156269813805 567.6601168855054 654.4000400959286C501.62382890412994 706.3844532104766 445.0831130714721 586.4991748036593 352.99185156315434 549.1979005096146C260.90059005483647 511.89662621556954 135.88705740023943 523.9612916471185 125.62206164558 475.3539234845132C115.35706589092064 426.7465553219081 234.57413135124995 387.23414205993595 303.7198719407895 315.8825333291088C372.8656125303289 244.53092459828167 381.2203327393355 136.24324652848628 457.52161647537014 132.8662015765434C533.8229002114047 129.48915662460053 647.0205129549779 191.0198345349114 669.966033873756 299.6727175597834C692.911554792534 408.3256005846554 633.6964048668808 602.4156269813805 567.6601168855054 654.4000400959286 "></path><path d="M657.6948491286954 304.2330652257449C679.5973918238926 407.9471808403955 623.0738396221327 593.2149333099967 560.0392010944561 642.8364185557017C497.00456256677967 692.4579038014068 443.0338792719699 578.021956231263 355.12858419584836 542.4161944051291C267.2232891197267 506.81043257899546 147.89218976761134 518.326704127292 138.0937847290728 471.92876179025984C128.29537969053433 425.53081945322754 242.09348762993955 387.81442497589046 308.09624001086365 319.7060711873737C374.09899239178776 251.59771739885696 382.07395259129396 148.23220651405222 454.90699615750873 145.00866360537952C527.7400397237236 141.78512069670677 635.7923064334982 200.5189496110944 657.6948491286954 304.2330652257449C679.5973918238926 407.9471808403955 623.0738396221327 593.2149333099967 560.0392010944561 642.8364185557017 "></path><path d="M645.4236491248457 308.7933823741284C666.2832135964621 407.5687305785575 612.4512591185955 584.0142091210348 552.4182700446179 631.2727664978968C492.3852809706402 678.5313238747586 440.98463021367854 569.5447071412884 357.2653015697532 535.6344577830657C273.54597292582787 501.72420842484314 159.8973068761942 512.6920860898875 150.5654925537766 468.50356957842826C141.2336782313589 424.31505306696886 249.61282864984014 388.39467737426696 312.47259282214884 323.52957852806054C375.3323569944574 258.6644796818541 382.92755718446335 160.2211359820401 452.2923605808585 157.15109511663746C521.6571639772535 154.0810542512349 624.5640846532292 210.01803416969926 645.4236491248457 308.7933823741284C666.2832135964621 407.5687305785575 612.4512591185955 584.0142091210348 552.4182700446179 631.2727664978968 "></path><path d="M633.152479638574 313.3537300400899C652.9690658866098 407.19031083429763 601.8287091326365 574.813515449651 544.7973695123576 619.7091449576699C487.7660298920789 664.6047744656887 438.9354116729653 561.0674885688919 359.4020494612363 528.8527516785804C279.86868724950716 496.63801478826895 171.90245450235523 507.05749857006117 163.03723089605847 465.0784078841748C154.17200728976167 423.0993171982884 257.13220018731886 388.9749602902216 316.84897615101204 327.3531163863255C376.5657521147052 265.73127248242935 383.7811922952109 172.21009596760604 449.67775552178614 169.29355714547359C515.5743187483615 166.37701832334108 613.3358933905386 219.5171492458823 633.152479638574 313.3537300400899C652.9690658866098 407.19031083429763 601.8287091326365 574.813515449651 544.7973695123576 619.7091449576699 "></path><path d="M620.8812948935135 317.9140471884734C639.6549029179682 406.8118605724595 591.2061438878883 565.6127912606892 537.1764537213085 608.1454928998648C483.1467635547285 650.6781945390406 436.886177873463 552.5902394789174 361.5387820939302 522.071015056517C286.1913863143974 491.5517906341165 183.90758686972714 501.42288053265656 175.50895397955128 461.6532156723433C167.11032108937536 421.88355081202985 264.6515564660085 389.5552126885982 321.2253442210863 331.17662372701227C377.79913197616406 272.7980347654265 384.6348121471693 184.1990254355939 447.06313520392496 181.43598865673152C509.4914582606805 178.6729518778692 602.1076868690586 229.01623380448717 620.8812948935135 317.9140471884734C639.6549029179682 406.8118605724595 591.2061438878883 565.6127912606892 537.1764537213085 608.1454928998648 "></path><path d="M608.6101101484528 322.4743948544349C626.3407399493268 406.43344082819965 580.5835786431401 556.4120975893054 529.5555379302591 596.581871359638C478.52749721737814 636.7516451299707 434.8369440739607 544.1130209065209 363.6755147266242 515.2893089520317C292.5140853792877 486.46559699754243 195.91271923709905 495.7882930128302 187.98067706304408 458.22805397808975C180.04863488898906 420.6678149433494 272.1709127446981 390.1354956045527 325.6017122911605 335.0001615852772C379.0325118376229 279.86482756600174 385.4884319991279 196.18798542115985 444.44851488606366 193.57845068556765C503.4085977729994 190.96891594997544 590.8794803475789 238.51534888067016 608.6101101484528 322.4743948544349C626.3407399493268 406.43344082819965 580.5835786431401 556.4120975893054 529.5555379302591 596.581871359638 "></path><path d="M596.3389559209703 327.0347120028183C613.0266074982635 406.05499056636154 569.9610439159701 547.2113734003435 521.934652656788 585.018219301833C473.9082613976059 622.8250652033225 432.78774079203663 535.6357718165464 365.8122778768963 508.5075723299683C298.83681496175603 481.3793728433901 207.91788212204915 490.1536749754257 200.452430664115 454.8028617662583C192.98697920618088 419.45204855709073 279.6902995409659 390.7157480029292 329.9781108788128 338.82366892596406C380.26592221665965 286.9315898489989 386.3420823686645 208.17691488914767 441.8339250857805 205.72088219682558C497.3257678028965 203.2648495045035 579.6513043436771 248.01443343927508 596.3389559209703 327.0347120028183C613.0266074982635 406.05499056636154 569.9610439159701 547.2113734003435 521.934652656788 585.018219301833 "></path><path d="M584.0677406583316 331.59502915120174C599.7124140120438 405.67654030452354 559.3384481536439 538.0106492113816 514.3137063481606 573.4545672440281C469.2889645426774 608.8984852766746 430.7384764749561 527.1585227265718 367.94897999201214 501.7258357079048C305.1594835090682 476.2931486892378 219.92298397184294 484.5190569380211 212.9241232300297 451.3776695544267C205.92526248821645 418.23628217083217 287.20962530207737 391.2960004013057 334.35444843130887 342.6471762666509C381.49927156054036 293.99835213199606 387.1956717030448 220.16584435713554 439.2192742503411 217.86331370808358C491.24287679763734 215.56078305903162 568.4230673046192 257.51351799787994 584.0677406583316 331.59502915120174C599.7124140120438 405.67654030452354 559.3384481536439 538.0106492113816 514.3137063481606 573.4545672440281 "></path><path d="M571.796586430849 336.1553462995852C586.3982815609805 405.29809004268554 548.7159134264739 528.8099250224197 506.6928210746895 561.8909151862231C464.6697287229051 594.9719053500264 428.689273193032 518.6812736365971 370.0857431422843 494.94409908584134C311.48221309153655 471.2069245350855 231.92814685679298 478.8844389006166 225.39587683110062 447.9524773425951C218.86360680540827 417.0205157845736 294.72901209834515 391.8762527996822 338.7308470189612 346.4706836073377C382.7326819395773 301.06511441499316 388.0493220725814 232.15477382512336 436.6046844500579 230.00574521934152C485.1600468275344 227.85671661355974 557.1948913007175 267.0126025564848 571.796586430849 336.1553462995852C586.3982815609805 405.29809004268554 548.7159134264739 528.8099250224197 506.6928210746895 561.8909151862231 "></path><path d="M559.5253711682103 340.7157092243358C573.084088074761 404.91968555721473 538.0933176641477 519.609246609825 499.07187476606214 550.3273089047852C460.0504318679766 581.0453711997454 426.6400088759516 510.20407032298976 372.2224452574001 488.16240824014506C317.80488163884866 466.12074615730035 243.93324870658677 473.2498666395793 237.8675693970153 444.5273309071307C231.80189008744384 415.8047951746821 302.2483378594566 392.4565509744259 343.10718457145725 350.2942367243917C383.96603128345794 308.1319224743575 388.9029114069617 244.14374906947842 433.9900336146186 242.1482225069667C479.07715582227536 240.152695944455 545.9666542616596 276.51173289145686 559.5253711682103 340.7157092243358C573.084088074761 404.91968555721473 538.0933176641477 519.609246609825 499.07187476606214 550.3273089047852 "></path><path d="M547.2541864231496 345.27601111393017C559.7699251061194 404.5412200365876 527.4707524193996 510.4085071620741 491.4509589750129 538.7636415881911C455.43116553062623 567.1187760143083 424.5907750764493 501.7268059742262 374.3591778900941 481.38065635929263C324.1275807037389 461.03450674435896 255.93838107395874 467.6152333433856 250.3392924805081 441.10212343651006C244.74020388705753 414.5890135296345 309.7676941381463 393.03678811401335 347.48355264153145 354.11772880628945C385.19941114491667 315.1986694985656 389.7565312589202 256.13266327867717 431.3754132967573 254.29063875943558C472.9942953345943 252.44861424019405 534.7384477401797 286.0108021912727 547.2541864231496 345.27601111393017C559.7699251061194 404.5412200365876 527.4707524193996 510.4085071620741 491.4509589750129 538.7636415881911 "></path><path d="M534.983016936878 349.8363587798917C546.455777396267 404.1628002923277 516.8482024334404 501.2078134906902 483.8300584427527 527.2000200479642C450.8119144520649 553.1922266052384 422.54155653573605 493.2495874018297 376.49592578157717 474.5989502548073C330.45029502741824 455.94831310778477 267.9435287001197 461.98064582355926 262.81103082279003 437.6769617422566C257.6785329454603 413.37327766095405 317.28706567562494 393.617071029968 351.85993597039476 357.9412666645544C386.43280626516446 322.26546229914084 390.61016636966775 268.1216232642431 428.76080823768507 266.4331007882717C466.91145010570233 264.7445783123003 523.510256477489 295.5099172674557 534.983016936878 349.8363587798917C546.455777396267 404.1628002923277 516.8482024334404 501.2078134906902 483.8300584427527 527.2000200479642 "></path><path d="M522.7118321918174 354.3967064458533C533.1416144276257 403.7843805480678 506.2256371886923 492.00711981930647 476.2091426517035 515.6363985077375C446.19264811471464 539.2656771961683 420.4923227362338 484.7723688294333 378.63265841427113 467.8172441503219C336.77299409230847 450.8621194712107 279.9486610674916 456.3460583037329 275.28275390628284 434.2518000480032C270.616846745074 412.1575417922735 324.8064219543146 394.19735394592254 356.23630404046895 361.7648045228193C387.66618612662324 329.3322550997161 391.4637862216262 280.1105832498091 426.1461879198238 278.5755628171078C460.8285896180213 277.0405423844065 512.2820499560091 305.0090323436387 522.7118321918174 354.3967064458533C533.1416144276257 403.7843805480678 506.2256371886923 492.00711981930647 476.2091426517035 515.6363985077375 "></path><path d="M510.44064744675677 358.9570388530258C519.8274514589841 403.4059455450188 495.6030719439441 482.80641088913364 468.58822686065423 504.0727617087215C441.57338177736426 525.3391125283094 418.4430889367315 476.2951349982477 380.7693910469651 461.03552278704757C343.0956931571987 445.7759105758473 291.9537934348636 450.71145552511734 287.75447698977564 430.8266230949607C283.5551605446877 410.941790664804 332.32577823300426 394.77762160308816 360.61267211054314 365.5883271222952C388.89956598808203 336.39903264150234 392.31740607358466 292.099527976586 423.5315676019625 290.7180095871548C454.74572913034024 289.33649119772366 501.0538434345293 314.5081321610327 510.44064744675677 358.9570388530258C519.8274514589841 403.4059455450188 495.6030719439441 482.80641088913364 468.58822686065423 504.0727617087215 "></path><path d="M498.16946270169615 363.51735600140915C506.5132884903427 403.02749528318077 484.980506699196 473.60568670017176 460.96731106960493 492.50910965091657C436.9541154400139 511.41253260166127 416.39385513722925 467.8178859082732 382.9061236796591 454.25378616498415C349.418392222089 440.68968642169506 303.9589258022355 445.07683748771285 300.22620007326844 427.40143088312914C296.4934743443014 409.72602427854537 339.84513451169386 395.3578740014646 364.98904018061734 369.41183446298203C390.13294584954076 343.46579492449945 393.1710259255432 304.08845744457386 420.9169472841012 302.8604410984128C448.6628686426592 301.6324247522518 489.8256369130495 324.00721671963754 498.16946270169615 363.51735600140915C506.5132884903427 403.02749528318077 484.980506699196 473.60568670017176 460.96731106960493 492.50910965091657 "></path><path d="M485.8982779566354 368.0776731497926C493.19912552170126 402.6490450213428 474.3579414544479 464.4049625112099 453.3463952785557 480.94545759311154C432.3348491026635 497.4859526750132 414.34462133772695 459.34063681829855 385.0428563123531 447.4720495429207C355.7410912869792 435.60346226754274 315.9640581696074 439.4422194503083 312.69792315676125 423.97623867129755C309.43178814391507 408.5102578922868 347.3644907903835 395.9381263998411 369.36540825069153 373.23534180366886C391.3663257109996 350.5325572074966 394.02464577750163 316.0773869125617 418.3023269662399 315.00287260967076C442.58000815497815 313.92835830677984 478.5974303915697 333.5063012782424 485.8982779566354 368.0776731497926C493.19912552170126 402.6490450213428 474.3579414544479 464.4049625112099 453.3463952785557 480.94545759311154 "></path><path d="M473.62710847036385 372.6380055569651C479.8849778118488 402.27061001829384 463.73539146848884 455.20425358103705 445.7254947462955 469.3818207940956C427.7155980241022 483.55938800715415 412.2954027970137 450.8634029871131 387.1796042038361 440.6903281796463C362.0638056106585 430.5172533721795 327.9692057957684 433.8076166716928 325.1696614990431 420.551061718255C322.37011720231783 407.29450676481724 354.8838623278622 396.5183940570067 373.7417915795548 377.05886440314475C392.5997208312474 357.5993347492828 394.87828088824915 328.0663316393386 415.6877219071677 327.1453193797178C436.4971629260862 326.224307120097 467.3692391288789 343.00540109563633 473.62710847036385 372.6380055569651C479.8849778118488 402.27061001829384 463.73539146848884 455.20425358103705 445.7254947462955 469.3818207940956 "></path><path d="M461.35590846651417 377.19835322292664C466.5707995844183 401.8921902740339 453.1128109649516 446.00355990965323 438.1045636964572 457.8181992538687C423.0963164279628 469.63283859808416 410.24615373872234 442.38618441471664 389.31632157774106 433.90862207516096C368.3864894167597 425.43105973560534 339.9743229043513 428.17302915186644 337.64136932374686 417.12590002400157C335.30841574314246 406.07877089613675 362.40320334776277 397.0986769729613 378.1181443908399 380.88240226140965C393.8330854339171 364.66612754985806 395.73188548141854 340.05529162490456 413.07308633051736 339.2877814085539C430.4142871796161 338.52027119220327 456.14101734861003 352.5045161718194 461.35590846651417 377.19835322292664C466.5707995844183 401.8921902740339 453.1128109649516 446.00355990965323 438.1045636964572 457.8181992538687 "></path><path d="M449.0847389802426 381.75868563009914C453.2566518745659 401.5137552709849 442.4902609789925 436.8028509794804 430.48366316419697 446.2545624548528C418.47706534940147 455.70627393022517 408.19693519800916 433.9089505835311 391.4530694692241 427.1269007118866C374.709203740439 420.3448508402421 351.9794705305123 422.53842637325096 350.1131076660287 413.7007230709591C348.2467448015452 404.86301976866724 369.9225748852415 397.6789446301268 382.4945277197032 384.70592486088555C395.0664805541649 371.7329050916443 396.5855205921661 352.04423635168143 410.4584812714451 351.43022817860094C424.3314419507241 350.8162200055204 444.9128260859193 362.0036159892133 449.0847389802426 381.75868563009914C453.2566518745659 401.5137552709849 442.4902609789925 436.8028509794804 430.48366316419697 446.2545624548528 "></path><path d="M436.81353897639286 386.3190180372716C439.94247364713533 401.135320267936 431.86768047545536 427.6021420493076 422.86273211435866 434.69092565583685C413.857783753262 441.77970926236617 406.1476861397178 425.4317167523456 393.589786843129 420.3451793486122C381.0318875465402 415.25864194487883 363.98458763909514 416.90382359463547 362.5848154907325 410.2755461179166C361.18504334236985 403.6472686411977 377.441915905142 398.25921228729237 386.87088053098836 388.52944746036144C396.29984515683464 378.79968263343045 397.4391251853355 364.03318107845837 407.84384569479477 363.57267494864794C418.2485662042541 363.1121688188376 433.6846043056504 371.5027158066072 436.81353897639286 386.3190180372716C439.94247364713533 401.135320267936 431.86768047545536 427.6021420493076 422.86273211435866 434.69092565583685 "></path><path d="M424.5423694901213 390.87931992686595C426.6283259372829 400.75685474730886 421.24513048949626 418.4014026015566 415.2418315820985 423.1272583392428C409.23853267470076 427.853114076929 404.09846759900455 416.95445240358197 395.726534734612 413.5634274677597C387.3546018702195 410.17240253193745 375.9897352652561 411.26919029844186 375.0565538330144 406.8503386472959C374.1233724007726 402.43148699615 384.96128744262074 398.8394494268798 391.2472638598516 392.35293954225915C397.5332402770825 385.86642965763855 398.29276029608303 376.0220952876571 405.2292406357226 375.7150912011169C412.1657209753621 375.40808711457663 422.45641304295964 381.00178510642303 424.5423694901213 390.87931992686595C426.6283259372829 400.75685474730886 421.24513048949626 418.4014026015566 415.2418315820985 423.1272583392428 "></path><path d="M412.2711847450606 395.4396675928275C413.3141629686415 400.378435003049 410.62256524474816 409.2007089301728 407.62091579104924 411.5636367990159C404.6192663373504 413.926564667859 402.0492337995023 408.4772338311855 397.86326736730604 406.78172136327436C393.67730093510977 405.08620889536326 387.9948676326281 405.6346027786155 387.5282769165072 403.4251769530425C387.0616862003863 401.21575112746956 392.48064372131034 399.41973234283444 395.6236319299258 396.1764774005241C398.7666201385412 392.9332224582138 399.14638014804154 388.0110552732231 402.6146203178613 387.85755322995294C406.08286048768105 387.7040511866828 411.2282065214798 390.5009001826061 412.2711847450606 395.4396675928275C413.3141629686415 400.378435003049 410.62256524474816 409.2007089301728 407.62091579104924 411.5636367990159 "></path></g></svg>