<svg xmlns="http://www.w3.org/2000/svg" version="1.1" xmlns:xlink="http://www.w3.org/1999/xlink" xmlns:svgjs="http://svgjs.dev/svgjs" viewBox="0 0 800 800"><g fill="none" stroke-width="3" stroke="hsl(30, 100%, 40%)" stroke-linecap="round"><line x1="496" y1="400" x2="304" y2="400" transform="rotate(0, 400, 400)" opacity="0.88"></line><line x1="468.5" y1="400" x2="331.5" y2="400" transform="rotate(4, 400, 400)" opacity="0.91"></line><line x1="196" y1="400" x2="604" y2="400" transform="rotate(8, 400, 400)" opacity="0.94"></line><line x1="288" y1="400" x2="512" y2="400" transform="rotate(12, 400, 400)" opacity="0.16"></line><line x1="305" y1="400" x2="495" y2="400" transform="rotate(16, 400, 400)" opacity="0.93"></line><line x1="165" y1="400" x2="635" y2="400" transform="rotate(20, 400, 400)" opacity="0.22"></line><line x1="699.5" y1="400" x2="100.5" y2="400" transform="rotate(24, 400, 400)" opacity="0.78"></line><line x1="422" y1="400" x2="378" y2="400" transform="rotate(28, 400, 400)" opacity="0.75"></line><line x1="287.5" y1="400" x2="512.5" y2="400" transform="rotate(32, 400, 400)" opacity="0.27"></line><line x1="576" y1="400" x2="224" y2="400" transform="rotate(36, 400, 400)" opacity="0.80"></line><line x1="58.5" y1="400" x2="741.5" y2="400" transform="rotate(40, 400, 400)" opacity="0.43"></line><line x1="313.5" y1="400" x2="486.5" y2="400" transform="rotate(44, 400, 400)" opacity="0.09"></line><line x1="376" y1="400" x2="424" y2="400" transform="rotate(48, 400, 400)" opacity="0.28"></line><line x1="85" y1="400" x2="715" y2="400" transform="rotate(52, 400, 400)" opacity="0.87"></line><line x1="322" y1="400" x2="478" y2="400" transform="rotate(56, 400, 400)" opacity="0.27"></line><line x1="169" y1="400" x2="631" y2="400" transform="rotate(60, 400, 400)" opacity="0.36"></line><line x1="250" y1="400" x2="550" y2="400" transform="rotate(64, 400, 400)" opacity="0.98"></line><line x1="367" y1="400" x2="433" y2="400" transform="rotate(68, 400, 400)" opacity="0.26"></line><line x1="702.5" y1="400" x2="97.5" y2="400" transform="rotate(72, 400, 400)" opacity="0.59"></line><line x1="530" y1="400" x2="270" y2="400" transform="rotate(76, 400, 400)" opacity="0.45"></line><line x1="598.5" y1="400" x2="201.5" y2="400" transform="rotate(80, 400, 400)" opacity="0.90"></line><line x1="218.5" y1="400" x2="581.5" y2="400" transform="rotate(84, 400, 400)" opacity="0.47"></line><line x1="616.5" y1="400" x2="183.5" y2="400" transform="rotate(88, 400, 400)" opacity="0.58"></line><line x1="417.5" y1="400" x2="382.5" y2="400" transform="rotate(92, 400, 400)" opacity="0.90"></line><line x1="346.5" y1="400" x2="453.5" y2="400" transform="rotate(96, 400, 400)" opacity="0.84"></line><line x1="411" y1="400" x2="389" y2="400" transform="rotate(100, 400, 400)" opacity="0.82"></line><line x1="504.5" y1="400" x2="295.5" y2="400" transform="rotate(104, 400, 400)" opacity="0.40"></line><line x1="620.5" y1="400" x2="179.5" y2="400" transform="rotate(108, 400, 400)" opacity="0.97"></line><line x1="453.5" y1="400" x2="346.5" y2="400" transform="rotate(112, 400, 400)" opacity="0.44"></line><line x1="439" y1="400" x2="361" y2="400" transform="rotate(116, 400, 400)" opacity="0.49"></line><line x1="565.5" y1="400" x2="234.5" y2="400" transform="rotate(120, 400, 400)" opacity="0.25"></line><line x1="115" y1="400" x2="685" y2="400" transform="rotate(124, 400, 400)" opacity="0.92"></line><line x1="677" y1="400" x2="123" y2="400" transform="rotate(128, 400, 400)" opacity="0.26"></line><line x1="491" y1="400" x2="309" y2="400" transform="rotate(132, 400, 400)" opacity="0.70"></line><line x1="80" y1="400" x2="720" y2="400" transform="rotate(136, 400, 400)" opacity="0.92"></line><line x1="739.5" y1="400" x2="60.5" y2="400" transform="rotate(140, 400, 400)" opacity="0.25"></line><line x1="673" y1="400" x2="127" y2="400" transform="rotate(144, 400, 400)" opacity="0.44"></line><line x1="739.5" y1="400" x2="60.5" y2="400" transform="rotate(148, 400, 400)" opacity="0.93"></line><line x1="488.5" y1="400" x2="311.5" y2="400" transform="rotate(152, 400, 400)" opacity="0.42"></line><line x1="481.5" y1="400" x2="318.5" y2="400" transform="rotate(156, 400, 400)" opacity="0.88"></line><line x1="712" y1="400" x2="88" y2="400" transform="rotate(160, 400, 400)" opacity="0.54"></line><line x1="218" y1="400" x2="582" y2="400" transform="rotate(164, 400, 400)" opacity="0.64"></line><line x1="482" y1="400" x2="318" y2="400" transform="rotate(168, 400, 400)" opacity="0.54"></line><line x1="174.5" y1="400" x2="625.5" y2="400" transform="rotate(172, 400, 400)" opacity="0.78"></line><line x1="114" y1="400" x2="686" y2="400" transform="rotate(176, 400, 400)" opacity="0.30"></line><line x1="510.5" y1="400" x2="289.5" y2="400" transform="rotate(180, 400, 400)" opacity="0.98"></line><line x1="602.5" y1="400" x2="197.5" y2="400" transform="rotate(184, 400, 400)" opacity="0.33"></line><line x1="268.5" y1="400" x2="531.5" y2="400" transform="rotate(188, 400, 400)" opacity="0.96"></line><line x1="414.5" y1="400" x2="385.5" y2="400" transform="rotate(192, 400, 400)" opacity="0.13"></line><line x1="319" y1="400" x2="481" y2="400" transform="rotate(196, 400, 400)" opacity="0.94"></line><line x1="364" y1="400" x2="436" y2="400" transform="rotate(200, 400, 400)" opacity="0.27"></line><line x1="530.5" y1="400" x2="269.5" y2="400" transform="rotate(204, 400, 400)" opacity="0.64"></line><line x1="378.5" y1="400" x2="421.5" y2="400" transform="rotate(208, 400, 400)" opacity="0.69"></line><line x1="720" y1="400" x2="80" y2="400" transform="rotate(212, 400, 400)" opacity="0.15"></line><line x1="433.5" y1="400" x2="366.5" y2="400" transform="rotate(216, 400, 400)" opacity="0.88"></line><line x1="152.5" y1="400" x2="647.5" y2="400" transform="rotate(220, 400, 400)" opacity="0.36"></line><line x1="733.5" y1="400" x2="66.5" y2="400" transform="rotate(224, 400, 400)" opacity="0.83"></line><line x1="45.5" y1="400" x2="754.5" y2="400" transform="rotate(228, 400, 400)" opacity="0.91"></line><line x1="97.5" y1="400" x2="702.5" y2="400" transform="rotate(232, 400, 400)" opacity="0.25"></line><line x1="430" y1="400" x2="370" y2="400" transform="rotate(236, 400, 400)" opacity="0.98"></line><line x1="87" y1="400" x2="713" y2="400" transform="rotate(240, 400, 400)" opacity="0.80"></line><line x1="133.5" y1="400" x2="666.5" y2="400" transform="rotate(244, 400, 400)" opacity="0.23"></line><line x1="206.5" y1="400" x2="593.5" y2="400" transform="rotate(248, 400, 400)" opacity="0.52"></line><line x1="319" y1="400" x2="481" y2="400" transform="rotate(252, 400, 400)" opacity="0.25"></line><line x1="143.5" y1="400" x2="656.5" y2="400" transform="rotate(256, 400, 400)" opacity="0.54"></line><line x1="190" y1="400" x2="610" y2="400" transform="rotate(260, 400, 400)" opacity="0.72"></line><line x1="588.5" y1="400" x2="211.5" y2="400" transform="rotate(264, 400, 400)" opacity="0.48"></line><line x1="639" y1="400" x2="161" y2="400" transform="rotate(268, 400, 400)" opacity="0.98"></line><line x1="601.5" y1="400" x2="198.5" y2="400" transform="rotate(272, 400, 400)" opacity="0.32"></line><line x1="426.5" y1="400" x2="373.5" y2="400" transform="rotate(276, 400, 400)" opacity="0.48"></line><line x1="429.5" y1="400" x2="370.5" y2="400" transform="rotate(280, 400, 400)" opacity="0.49"></line><line x1="489" y1="400" x2="311" y2="400" transform="rotate(284, 400, 400)" opacity="0.83"></line><line x1="579.5" y1="400" x2="220.5" y2="400" transform="rotate(288, 400, 400)" opacity="0.73"></line><line x1="36" y1="400" x2="764" y2="400" transform="rotate(292, 400, 400)" opacity="0.85"></line><line x1="359" y1="400" x2="441" y2="400" transform="rotate(296, 400, 400)" opacity="0.39"></line><line x1="222.5" y1="400" x2="577.5" y2="400" transform="rotate(300, 400, 400)" opacity="0.24"></line><line x1="114.5" y1="400" x2="685.5" y2="400" transform="rotate(304, 400, 400)" opacity="0.08"></line><line x1="111" y1="400" x2="689" y2="400" transform="rotate(308, 400, 400)" opacity="0.87"></line><line x1="596" y1="400" x2="204" y2="400" transform="rotate(312, 400, 400)" opacity="0.72"></line><line x1="157" y1="400" x2="643" y2="400" transform="rotate(316, 400, 400)" opacity="0.41"></line><line x1="346.5" y1="400" x2="453.5" y2="400" transform="rotate(320, 400, 400)" opacity="0.72"></line><line x1="264.5" y1="400" x2="535.5" y2="400" transform="rotate(324, 400, 400)" opacity="0.71"></line><line x1="544" y1="400" x2="256" y2="400" transform="rotate(328, 400, 400)" opacity="0.84"></line><line x1="297" y1="400" x2="503" y2="400" transform="rotate(332, 400, 400)" opacity="0.46"></line><line x1="372.5" y1="400" x2="427.5" y2="400" transform="rotate(336, 400, 400)" opacity="0.20"></line><line x1="507" y1="400" x2="293" y2="400" transform="rotate(340, 400, 400)" opacity="0.71"></line><line x1="170" y1="400" x2="630" y2="400" transform="rotate(344, 400, 400)" opacity="0.65"></line><line x1="621.5" y1="400" x2="178.5" y2="400" transform="rotate(348, 400, 400)" opacity="0.19"></line></g></svg>