<svg xmlns="http://www.w3.org/2000/svg" version="1.1" xmlns:xlink="http://www.w3.org/1999/xlink" xmlns:svgjs="http://svgjs.dev/svgjs" viewBox="0 0 800 800"><g fill="none" stroke-width="3" stroke="hsl(352, 100%, 76%)" stroke-linecap="round"><line x1="525.5" y1="400" x2="274.5" y2="400" transform="rotate(0, 400, 400)" opacity="0.72"></line><line x1="382" y1="400" x2="418" y2="400" transform="rotate(4, 400, 400)" opacity="0.59"></line><line x1="399.5" y1="400" x2="400.5" y2="400" transform="rotate(8, 400, 400)" opacity="0.80"></line><line x1="185" y1="400" x2="615" y2="400" transform="rotate(12, 400, 400)" opacity="0.54"></line><line x1="722.5" y1="400" x2="77.5" y2="400" transform="rotate(16, 400, 400)" opacity="0.25"></line><line x1="540" y1="400" x2="260" y2="400" transform="rotate(20, 400, 400)" opacity="0.48"></line><line x1="166.5" y1="400" x2="633.5" y2="400" transform="rotate(24, 400, 400)" opacity="0.67"></line><line x1="114.5" y1="400" x2="685.5" y2="400" transform="rotate(28, 400, 400)" opacity="0.83"></line><line x1="470" y1="400" x2="330" y2="400" transform="rotate(32, 400, 400)" opacity="0.10"></line><line x1="719.5" y1="400" x2="80.5" y2="400" transform="rotate(36, 400, 400)" opacity="0.36"></line><line x1="404.5" y1="400" x2="395.5" y2="400" transform="rotate(40, 400, 400)" opacity="0.26"></line><line x1="395.5" y1="400" x2="404.5" y2="400" transform="rotate(44, 400, 400)" opacity="0.80"></line><line x1="671" y1="400" x2="129" y2="400" transform="rotate(48, 400, 400)" opacity="0.98"></line><line x1="250.5" y1="400" x2="549.5" y2="400" transform="rotate(52, 400, 400)" opacity="0.59"></line><line x1="631.5" y1="400" x2="168.5" y2="400" transform="rotate(56, 400, 400)" opacity="0.71"></line><line x1="310" y1="400" x2="490" y2="400" transform="rotate(60, 400, 400)" opacity="0.47"></line><line x1="51" y1="400" x2="749" y2="400" transform="rotate(64, 400, 400)" opacity="0.30"></line><line x1="254.5" y1="400" x2="545.5" y2="400" transform="rotate(68, 400, 400)" opacity="0.17"></line><line x1="288" y1="400" x2="512" y2="400" transform="rotate(72, 400, 400)" opacity="0.68"></line><line x1="683.5" y1="400" x2="116.5" y2="400" transform="rotate(76, 400, 400)" opacity="0.93"></line><line x1="79" y1="400" x2="721" y2="400" transform="rotate(80, 400, 400)" opacity="0.25"></line><line x1="320" y1="400" x2="480" y2="400" transform="rotate(84, 400, 400)" opacity="0.63"></line><line x1="414.5" y1="400" x2="385.5" y2="400" transform="rotate(88, 400, 400)" opacity="0.81"></line><line x1="643.5" y1="400" x2="156.5" y2="400" transform="rotate(92, 400, 400)" opacity="0.78"></line><line x1="344.5" y1="400" x2="455.5" y2="400" transform="rotate(96, 400, 400)" opacity="0.81"></line><line x1="147" y1="400" x2="653" y2="400" transform="rotate(100, 400, 400)" opacity="0.19"></line><line x1="49" y1="400" x2="751" y2="400" transform="rotate(104, 400, 400)" opacity="0.12"></line><line x1="235" y1="400" x2="565" y2="400" transform="rotate(108, 400, 400)" opacity="0.53"></line><line x1="718.5" y1="400" x2="81.5" y2="400" transform="rotate(112, 400, 400)" opacity="0.57"></line><line x1="575" y1="400" x2="225" y2="400" transform="rotate(116, 400, 400)" opacity="0.81"></line><line x1="419.5" y1="400" x2="380.5" y2="400" transform="rotate(120, 400, 400)" opacity="0.34"></line><line x1="264.5" y1="400" x2="535.5" y2="400" transform="rotate(124, 400, 400)" opacity="0.18"></line><line x1="307.5" y1="400" x2="492.5" y2="400" transform="rotate(128, 400, 400)" opacity="0.67"></line><line x1="538" y1="400" x2="262" y2="400" transform="rotate(132, 400, 400)" opacity="0.65"></line><line x1="164.5" y1="400" x2="635.5" y2="400" transform="rotate(136, 400, 400)" opacity="0.26"></line><line x1="25.5" y1="400" x2="774.5" y2="400" transform="rotate(140, 400, 400)" opacity="0.87"></line><line x1="638.5" y1="400" x2="161.5" y2="400" transform="rotate(144, 400, 400)" opacity="0.20"></line><line x1="322.5" y1="400" x2="477.5" y2="400" transform="rotate(148, 400, 400)" opacity="0.89"></line><line x1="676" y1="400" x2="124" y2="400" transform="rotate(152, 400, 400)" opacity="0.68"></line><line x1="142" y1="400" x2="658" y2="400" transform="rotate(156, 400, 400)" opacity="0.55"></line><line x1="584.5" y1="400" x2="215.5" y2="400" transform="rotate(160, 400, 400)" opacity="0.11"></line><line x1="521.5" y1="400" x2="278.5" y2="400" transform="rotate(164, 400, 400)" opacity="0.54"></line><line x1="262" y1="400" x2="538" y2="400" transform="rotate(168, 400, 400)" opacity="0.73"></line><line x1="512.5" y1="400" x2="287.5" y2="400" transform="rotate(172, 400, 400)" opacity="0.31"></line><line x1="329" y1="400" x2="471" y2="400" transform="rotate(176, 400, 400)" opacity="0.79"></line><line x1="267.5" y1="400" x2="532.5" y2="400" transform="rotate(180, 400, 400)" opacity="0.84"></line><line x1="334" y1="400" x2="466" y2="400" transform="rotate(184, 400, 400)" opacity="0.23"></line><line x1="506.5" y1="400" x2="293.5" y2="400" transform="rotate(188, 400, 400)" opacity="0.23"></line><line x1="101.5" y1="400" x2="698.5" y2="400" transform="rotate(192, 400, 400)" opacity="0.69"></line><line x1="631.5" y1="400" x2="168.5" y2="400" transform="rotate(196, 400, 400)" opacity="0.68"></line><line x1="592" y1="400" x2="208" y2="400" transform="rotate(200, 400, 400)" opacity="0.85"></line><line x1="582.5" y1="400" x2="217.5" y2="400" transform="rotate(204, 400, 400)" opacity="0.97"></line><line x1="529.5" y1="400" x2="270.5" y2="400" transform="rotate(208, 400, 400)" opacity="0.61"></line><line x1="580.5" y1="400" x2="219.5" y2="400" transform="rotate(212, 400, 400)" opacity="0.56"></line><line x1="597.5" y1="400" x2="202.5" y2="400" transform="rotate(216, 400, 400)" opacity="0.36"></line><line x1="79" y1="400" x2="721" y2="400" transform="rotate(220, 400, 400)" opacity="0.78"></line><line x1="201" y1="400" x2="599" y2="400" transform="rotate(224, 400, 400)" opacity="0.44"></line><line x1="480" y1="400" x2="320" y2="400" transform="rotate(228, 400, 400)" opacity="0.32"></line><line x1="212" y1="400" x2="588" y2="400" transform="rotate(232, 400, 400)" opacity="0.48"></line><line x1="441" y1="400" x2="359" y2="400" transform="rotate(236, 400, 400)" opacity="0.38"></line><line x1="324.5" y1="400" x2="475.5" y2="400" transform="rotate(240, 400, 400)" opacity="0.29"></line><line x1="152" y1="400" x2="648" y2="400" transform="rotate(244, 400, 400)" opacity="0.12"></line><line x1="103.5" y1="400" x2="696.5" y2="400" transform="rotate(248, 400, 400)" opacity="0.68"></line><line x1="613" y1="400" x2="187" y2="400" transform="rotate(252, 400, 400)" opacity="0.92"></line><line x1="377" y1="400" x2="423" y2="400" transform="rotate(256, 400, 400)" opacity="0.47"></line><line x1="179.5" y1="400" x2="620.5" y2="400" transform="rotate(260, 400, 400)" opacity="0.22"></line><line x1="76.5" y1="400" x2="723.5" y2="400" transform="rotate(264, 400, 400)" opacity="0.80"></line><line x1="187" y1="400" x2="613" y2="400" transform="rotate(268, 400, 400)" opacity="0.77"></line><line x1="688.5" y1="400" x2="111.5" y2="400" transform="rotate(272, 400, 400)" opacity="0.32"></line><line x1="379" y1="400" x2="421" y2="400" transform="rotate(276, 400, 400)" opacity="0.11"></line><line x1="341" y1="400" x2="459" y2="400" transform="rotate(280, 400, 400)" opacity="0.90"></line><line x1="602.5" y1="400" x2="197.5" y2="400" transform="rotate(284, 400, 400)" opacity="0.26"></line><line x1="545" y1="400" x2="255" y2="400" transform="rotate(288, 400, 400)" opacity="0.89"></line><line x1="592.5" y1="400" x2="207.5" y2="400" transform="rotate(292, 400, 400)" opacity="0.31"></line><line x1="477.5" y1="400" x2="322.5" y2="400" transform="rotate(296, 400, 400)" opacity="0.90"></line><line x1="560" y1="400" x2="240" y2="400" transform="rotate(300, 400, 400)" opacity="0.60"></line><line x1="542" y1="400" x2="258" y2="400" transform="rotate(304, 400, 400)" opacity="0.28"></line><line x1="627" y1="400" x2="173" y2="400" transform="rotate(308, 400, 400)" opacity="0.57"></line><line x1="137" y1="400" x2="663" y2="400" transform="rotate(312, 400, 400)" opacity="0.97"></line><line x1="593.5" y1="400" x2="206.5" y2="400" transform="rotate(316, 400, 400)" opacity="0.80"></line><line x1="496" y1="400" x2="304" y2="400" transform="rotate(320, 400, 400)" opacity="0.52"></line><line x1="140.5" y1="400" x2="659.5" y2="400" transform="rotate(324, 400, 400)" opacity="0.44"></line><line x1="401" y1="400" x2="399" y2="400" transform="rotate(328, 400, 400)" opacity="0.92"></line><line x1="179.5" y1="400" x2="620.5" y2="400" transform="rotate(332, 400, 400)" opacity="0.66"></line><line x1="582.5" y1="400" x2="217.5" y2="400" transform="rotate(336, 400, 400)" opacity="0.29"></line><line x1="552" y1="400" x2="248" y2="400" transform="rotate(340, 400, 400)" opacity="0.53"></line><line x1="59" y1="400" x2="741" y2="400" transform="rotate(344, 400, 400)" opacity="0.27"></line><line x1="40.5" y1="400" x2="759.5" y2="400" transform="rotate(348, 400, 400)" opacity="0.34"></line></g></svg>