<svg xmlns="http://www.w3.org/2000/svg" version="1.1" xmlns:xlink="http://www.w3.org/1999/xlink" xmlns:svgjs="http://svgjs.dev/svgjs" viewBox="0 0 800 800"><defs><linearGradient x1="50%" y1="0%" x2="50%" y2="100%" id="vvvortex-grad"><stop stop-color="hsl(1.4, 100%, 67%)" stop-opacity="1" offset="0%"></stop><stop stop-color="hsl(167, 52%, 78%)" stop-opacity="1" offset="100%"></stop></linearGradient></defs><g stroke="url(#vvvortex-grad)" fill="none" stroke-linecap="round"><circle r="363" cx="400" cy="400" stroke-width="11" stroke-dasharray="52 33" stroke-dashoffset="25" transform="rotate(146, 400, 400)" opacity="0.61"></circle><circle r="346.5" cx="400" cy="400" stroke-width="11" stroke-dasharray="55 46" stroke-dashoffset="25" transform="rotate(24, 400, 400)" opacity="0.50"></circle><circle r="330" cx="400" cy="400" stroke-width="10" stroke-dasharray="34 18" stroke-dashoffset="25" transform="rotate(80, 400, 400)" opacity="0.27"></circle><circle r="313.5" cx="400" cy="400" stroke-width="10" stroke-dasharray="53 37" stroke-dashoffset="25" transform="rotate(126, 400, 400)" opacity="1.00"></circle><circle r="297" cx="400" cy="400" stroke-width="10" stroke-dasharray="20 47" stroke-dashoffset="25" transform="rotate(109, 400, 400)" opacity="0.32"></circle><circle r="280.5" cx="400" cy="400" stroke-width="10" stroke-dasharray="16 41" stroke-dashoffset="25" transform="rotate(335, 400, 400)" opacity="0.64"></circle><circle r="264" cx="400" cy="400" stroke-width="9" stroke-dasharray="28 52" stroke-dashoffset="25" transform="rotate(335, 400, 400)" opacity="1.00"></circle><circle r="247.5" cx="400" cy="400" stroke-width="9" stroke-dasharray="36 13" stroke-dashoffset="25" transform="rotate(201, 400, 400)" opacity="0.43"></circle><circle r="231" cx="400" cy="400" stroke-width="9" stroke-dasharray="45 19" stroke-dashoffset="25" transform="rotate(237, 400, 400)" opacity="0.12"></circle><circle r="214.5" cx="400" cy="400" stroke-width="8" stroke-dasharray="42 26" stroke-dashoffset="25" transform="rotate(159, 400, 400)" opacity="0.23"></circle><circle r="198" cx="400" cy="400" stroke-width="8" stroke-dasharray="30 54" stroke-dashoffset="25" transform="rotate(4, 400, 400)" opacity="0.53"></circle><circle r="181.5" cx="400" cy="400" stroke-width="8" stroke-dasharray="44 39" stroke-dashoffset="25" transform="rotate(199, 400, 400)" opacity="0.92"></circle><circle r="165" cx="400" cy="400" stroke-width="8" stroke-dasharray="22 50" stroke-dashoffset="25" transform="rotate(227, 400, 400)" opacity="0.45"></circle><circle r="148.5" cx="400" cy="400" stroke-width="7" stroke-dasharray="40 25" stroke-dashoffset="25" transform="rotate(131, 400, 400)" opacity="0.73"></circle><circle r="132" cx="400" cy="400" stroke-width="7" stroke-dasharray="42 39" stroke-dashoffset="25" transform="rotate(125, 400, 400)" opacity="0.96"></circle><circle r="115.5" cx="400" cy="400" stroke-width="7" stroke-dasharray="39 37" stroke-dashoffset="25" transform="rotate(164, 400, 400)" opacity="0.34"></circle><circle r="99" cx="400" cy="400" stroke-width="6" stroke-dasharray="33 51" stroke-dashoffset="25" transform="rotate(162, 400, 400)" opacity="0.94"></circle><circle r="82.5" cx="400" cy="400" stroke-width="6" stroke-dasharray="46 54" stroke-dashoffset="25" transform="rotate(249, 400, 400)" opacity="0.90"></circle><circle r="66" cx="400" cy="400" stroke-width="6" stroke-dasharray="16 26" stroke-dashoffset="25" transform="rotate(169, 400, 400)" opacity="0.49"></circle><circle r="49.5" cx="400" cy="400" stroke-width="6" stroke-dasharray="10 15" stroke-dashoffset="25" transform="rotate(334, 400, 400)" opacity="0.82"></circle><circle r="33" cx="400" cy="400" stroke-width="5" stroke-dasharray="40 11" stroke-dashoffset="25" transform="rotate(290, 400, 400)" opacity="0.81"></circle><circle r="16.5" cx="400" cy="400" stroke-width="5" stroke-dasharray="11 32" stroke-dashoffset="25" transform="rotate(33, 400, 400)" opacity="0.16"></circle></g></svg>