<svg xmlns="http://www.w3.org/2000/svg" version="1.1" xmlns:xlink="http://www.w3.org/1999/xlink" xmlns:svgjs="http://svgjs.dev/svgjs" viewBox="0 0 800 800"><defs><linearGradient x1="50%" y1="0%" x2="50%" y2="100%" id="uundulate-grad"><stop stop-color="hsl(37, 99%, 67%)" stop-opacity="1" offset="45%"></stop><stop stop-color="hsl(316, 73%, 52%)" stop-opacity="1" offset="100%"></stop></linearGradient></defs><g stroke-width="2" stroke="url(#uundulate-grad)" fill="none"><path d="M663.0102232330728 161.4188172246839C705.1786796031363 268.66625651531297 629.1279549240367 592.8124499107319 543.6608252148623 670.1142072407324C458.19369550568797 747.415964570733 338.58740312519876 589.1524145220732 252.76800062903612 532.4672524086866C166.94859813287354 475.7820902953001 148.3359189615622 462.7256285491095 131.72769323328254 398.02542909647707C115.11946750500289 333.32522964384464 129.39757100719396 272.4685722132939 173.04851713329305 221.9062950360513C216.69946325939213 171.34401785880868 239.17687920110404 167.92805652308084 341.2522346385581 155.32649864571272C443.32759007601203 142.72494076834454 620.8417668630093 54.17137793405482 663.0102232330728 161.4188172246839C705.1786796031363 268.66625651531297 629.1279549240367 592.8124499107319 543.6608252148623 670.1142072407324 "></path><path d="M651.0551825685369 172.2634469593218C691.3068909217793 274.63600264583147 618.7130173644568 584.0482781596404 537.1307571875177 657.8363192473681C455.54849701057856 731.624360335096 341.37885428374796 580.5546080159206 259.4603337192291 526.4460441804154C177.54181315471027 472.3374803449101 159.77516485482215 459.8744941326372 143.92185847782793 398.11521283694265C128.0685521008337 336.3559315412481 141.69765089837978 278.2654858120859 183.36446310965613 230.00149396108162C225.03127532093254 181.7375021100773 246.4869905380212 178.47681174415533 343.92255709195456 166.44805195212206C441.3581236458879 154.4192921600888 610.8034742152944 69.89089127281227 651.0551825685369 172.2634469593218C691.3068909217793 274.63600264583147 618.7130173644568 584.0482781596404 537.1307571875177 657.8363192473681 "></path><path d="M639.1001876803681 183.10804617638166C677.4351480167894 280.60571825877173 608.2981255812442 575.2840758909706 530.6007349365402 645.5584007364257C452.90334429183645 715.8327255818809 344.17035121866434 571.9567709921901 266.15271258578923 520.424805434566C188.13507395291418 468.89283987694193 171.2144565244493 457.0233291985867 156.1160694987405 398.20496605983C141.01768247303175 339.3866029210733 153.99777656593272 284.06236889329983 193.68045486238645 238.09666236853383C233.36313315884013 192.13095584376782 253.79714765130552 189.02553644765163 346.5929253217182 177.56957474095327C439.3887029921309 166.11361303425497 600.7652273439467 85.6103740939916 639.1001876803681 183.10804617638166C677.4351480167894 280.60571825877173 608.2981255812442 575.2840758909706 530.6007349365402 645.5584007364257 "></path><path d="M627.1451775334101 193.95264539344146C663.5633898530104 286.5754338717121 597.8832185392425 566.519873622301 524.0706974267739 633.2804822254834C450.25817631430505 700.0410908286658 346.96183289479166 563.3589339684595 272.8450761935603 514.4035666887166C198.72831949232904 465.4481994089738 182.6537329352874 454.1721642645364 168.31026526086407 398.29471928271744C153.9667975864407 342.4172743008985 166.29788697469667 289.85925197451377 203.99643135632766 246.1918307759861C241.69497573795866 202.52440957745836 261.1072895058008 199.574261151148 349.2632782926929 188.69109752978454C437.419267079585 177.8079339084211 590.7269652138099 101.32985691517092 627.1451775334101 193.95264539344146C663.5633898530104 286.5754338717121 597.8832185392425 566.519873622301 524.0706974267739 633.2804822254834 "></path><path d="M615.1901673864523 204.79722935171225C649.6916316892316 292.5451342258633 587.4683114972408 557.7556560948424 517.5406599170074 621.0025484557519C447.6130083367739 684.2494408166615 349.753314570919 554.7610816859399 279.5374398013314 508.3823126840781C209.32156503174383 462.00354368221656 194.09300934612548 451.3209840716968 180.50446102298758 398.3844572468158C166.91591269984968 345.44793042193464 178.59799738346055 295.6561197969386 214.31240785026887 254.28698392464918C250.0268183170772 212.91784805235977 268.41743136029606 210.12297059585524 351.9336312636675 199.81260505982675C435.44983116703895 189.5022395237982 580.6887030836731 117.04932447756119 615.1901673864523 204.79722935171225C649.6916316892316 292.5451342258633 587.4683114972408 557.7556560948424 517.5406599170074 621.0025484557519 "></path><path d="M603.2351572394946 215.64182856877204C635.8198735254526 298.5148498388036 577.0534044552392 548.9914538261728 511.0106224072408 608.7246299448095C444.9678403592426 668.4578060634465 352.5447962470463 546.1632446622093 286.2298034091025 502.36107393822874C219.91481057115868 458.5589032142483 205.53228575696357 448.4698191376465 192.6986567851111 398.47421046970317C179.86502781325862 348.47860180175996 190.8981077922245 301.4530028781525 224.62838434421013 262.38215233210144C258.3586608961957 223.3113017860503 275.72757321479133 220.67169529935154 354.6039842346422 210.93412784865797C433.48039525449303 201.1965603979644 570.6504409535363 132.7688072987405 603.2351572394946 215.64182856877204C635.8198735254526 298.5148498388036 577.0534044552392 548.9914538261728 511.0106224072408 608.7246299448095 "></path><path d="M591.2801470925367 226.4864277858319C621.9481153616738 304.48456545174395 566.6384974132376 540.2272515575031 504.4805848974745 596.4467114338672C442.3226723817113 652.6661713102312 355.3362779231736 537.5654076384785 292.9221670168736 496.3398351923794C230.50805611057353 455.11426274628 216.9715621678016 445.61865420359595 204.8928525472346 398.5639636925905C192.81414292666756 351.5092731815852 203.19821820098838 307.24988595936645 234.94436083815134 270.47732073955365C266.6905034753143 233.70475551974084 283.0377150692866 231.2204200028479 357.2743372056168 222.05565063748918C431.510959341947 212.8908812721305 560.6121788233995 148.48829011991984 591.2801470925367 226.4864277858319C621.9481153616738 304.48456545174395 566.6384974132376 540.2272515575031 504.4805848974745 596.4467114338672 "></path><path d="M579.3251369455788 237.3310270028917C608.0763571978948 310.45428106468427 556.223590371236 531.4630492888334 497.95054738770796 584.1687929229248C439.67750440418 636.8745365570161 358.12775959930104 528.967570614748 299.61453062464466 490.3185964465299C241.1013016499884 451.66962227831186 228.4108385786397 442.76748926954554 217.08704830935812 398.65371691547796C205.76325804007655 354.5399445614104 215.49832860975226 313.04676904058033 245.26033733209255 278.57248914700585C275.02234605443283 244.09820925343132 290.3478569237819 241.7691447063442 359.9446901765914 233.17717342632045C429.54152342940097 224.5852021462967 550.5739166932628 164.20777294109917 579.3251369455788 237.3310270028917C608.0763571978948 310.45428106468427 556.223590371236 531.4630492888334 497.95054738770796 584.1687929229248 "></path><path d="M567.370126798621 248.17562621995154C594.204599034116 316.4239966776246 545.8086833292343 522.6988470201638 491.4205098779415 571.8908744119824C437.0323364266487 621.082901803801 360.9192412754283 520.3697335910174 306.30689423241574 484.29735770068055C251.69454718940318 448.2249818103437 239.8501149894778 439.9163243354951 229.28124407148164 398.7434701383654C218.7123731534855 357.5706159412357 227.7984390185162 318.84365212179426 255.5763138260338 286.66765755445806C283.35418863355136 254.49166298712186 297.65799877827715 252.3178694098405 362.6150431475661 244.29869621515167C427.57208751685494 236.27952302046288 540.535654563126 179.9272557622785 567.370126798621 248.17562621995154C594.204599034116 316.4239966776246 545.8086833292343 522.6988470201638 491.4205098779415 571.8908744119824 "></path><path d="M555.4151166516631 259.0202406958004C580.332840870337 322.39372754935397 535.3937762872326 513.9346600102833 484.890472368175 559.6129711598292C434.38716844911744 605.291282309375 363.7107229515556 511.7719118260759 312.99925784018683 478.27613421362025C262.28779272881803 444.7803566011646 251.28939140031588 437.06517466023377 241.47543983360515 398.8332386200418C231.66148826689448 360.60130257984997 240.0985494272801 324.64055046179726 265.892290319975 294.76284122069933C291.6860312126699 264.88513197960145 304.9681406327724 262.86660937212594 365.2853961185407 255.420234262772C425.6026516043089 247.97385915341806 530.4973924329892 195.64675384224688 555.4151166516631 259.0202406958004C580.332840870337 322.39372754935397 535.3937762872326 513.9346600102833 484.890472368175 559.6129711598292 "></path><path d="M543.4601065047052 269.8648246540712C566.461082706558 328.3634279035052 524.978869245231 505.17044248282457 478.36043485840855 547.3350373900977C431.74200047158615 589.4996322973707 366.502204627683 503.17405954355627 319.6916214479579 472.25488020898183C272.8810382682329 441.3357008744074 262.72866781115397 434.2139944673943 253.66963559572866 398.9229765841402C244.61060338030342 363.6319587008862 252.39865983604403 330.4374182842221 276.2082668139162 302.8579943693625C300.0178737917885 275.27857045450287 312.2782824872677 273.4153188168332 367.95574908951534 266.54174179281415C423.633215691763 259.6681647687952 520.4591303028524 211.36622140463714 543.4601065047052 269.8648246540712C566.461082706558 328.3634279035052 524.978869245231 505.17044248282457 478.36043485840855 547.3350373900977 "></path><path d="M531.5050963577473 280.70939335355285C552.5893245427791 334.3331129988674 514.5639622032293 496.40620969657687 471.830397348642 535.0570883615771C429.096832494055 573.7079670265774 369.2936863038103 494.5761920022476 326.383985055729 466.23361094555423C283.47428380764774 437.891029888861 274.16794422199206 431.36279901576563 265.86383135785223 399.0126992894495C257.5597184937124 366.66259956313326 264.6987702448079 336.2342708478579 286.52424330785743 310.95313225923655C308.349716370907 285.6719936706153 319.58842434176296 283.96401300275136 370.62610206049 277.6632340640673C421.66377977921695 271.3624551253832 510.4208681727156 227.08567370823835 531.5050963577473 280.70939335355285C552.5893245427791 334.3331129988674 514.5639622032293 496.40620969657687 471.830397348642 535.0570883615771 "></path><path d="M519.5500862107895 291.55402308819083C538.7175663790001 340.30285912938587 504.1490551612276 487.6420379454853 465.3003598388756 522.7792003682129C426.4516645165237 557.9163627909404 372.08516797993764 485.97838549609503 333.0763486635001 460.212402717283C294.06752934706253 434.44641993847097 285.60722063283015 428.51166459929334 278.05802711997575 399.102483029915C270.50883360712135 369.69330146053665 276.99888065357186 342.03118444664995 296.8402198017987 319.0483311842669C316.68155895002553 296.06547792188394 326.89856619625823 294.51276822382584 373.2964550314646 288.78478737047664C419.6943438666709 283.0568065171275 500.3826060425788 242.8051870469958 519.5500862107895 291.55402308819083C538.7175663790001 340.30285912938587 504.1490551612276 487.6420379454853 465.3003598388756 522.7792003682129 "></path><path d="M507.5950760638316 302.3986223052507C524.8458082152213 346.2725747423262 493.7341481192259 478.8778356768157 458.77032232910915 510.50128185727044C423.8064965389924 542.1247280377253 374.87664965606496 477.38054847236447 339.76871227127117 454.1911639714335C304.6607748864774 431.0017794705028 297.0464970436682 425.6604996652429 290.25222288209926 399.19223625280245C283.4579487205303 372.72397284036185 289.29899106233574 347.8280675278638 307.1561962957399 327.14349959171915C325.01340152914406 306.4589316555744 334.2087080507535 305.06149292732215 375.9668080024392 299.9063101593079C417.72490795412494 294.75112739129366 490.344343912442 258.5246698681751 507.5950760638316 302.3986223052507C524.8458082152213 346.2725747423262 493.7341481192259 478.8778356768157 458.77032232910915 510.50128185727044 "></path><path d="M495.6400659168738 313.24319100473235C510.9740500514424 352.2422598376884 483.3192410772242 470.113602890568 452.2402848193427 498.22333282875C421.1613285614611 526.333062766932 377.6681313321923 468.78268093105567 346.46107587904226 448.16989470800604C315.25402042589224 427.5571084849564 308.4857734545063 422.8093042136144 302.4464186442228 399.28195895811166C296.4070638339393 375.754613702609 301.59910147109963 353.62492009149963 317.4721727896811 335.23863748159323C333.3452441082626 316.8523548716868 341.51884990524877 315.61018711324033 378.63716097341387 311.027802430561C415.75547204157897 306.44541774788166 480.3060817823052 274.2441221717763 495.6400659168738 313.24319100473235C510.9740500514424 352.2422598376884 483.3192410772242 470.113602890568 452.2402848193427 498.22333282875 "></path><path d="M483.685071028705 324.0878207393703C497.1023071464525 358.2120059682068 472.9043492940117 461.34943113947645 445.7102625683653 485.94544483538573C418.5161758427189 510.541458531295 380.45962826710866 460.1848744249032 353.1534547456024 442.1486864797348C325.84728122409615 424.1124985345664 319.9250651241334 419.9581697971421 314.64062966513535 399.37174269857724C309.3561942061373 378.7853156000124 313.89922713865263 359.4218336902917 327.78816454241144 343.33383640662356C341.67710194617024 327.24583912295543 348.8290070185331 326.1589423343148 381.3075292031776 322.1493557369704C413.786051387822 318.13976913962597 470.2678349109575 289.9636355105338 483.685071028705 324.0878207393703C497.1023071464525 358.2120059682068 472.9043492940117 461.34943113947645 445.7102625683653 485.94544483538573 "></path><path d="M471.73006088174714 334.9324199564301C483.23054898267355 364.18172158114714 462.48944225201 452.5852288708068 439.1802250585988 473.6675263244433C415.8710078651876 494.7498237780799 383.25110994323603 451.58703740117267 359.8458183533735 436.12744773388545C336.44052676351095 420.6678580665982 331.3643415349715 417.1070048630917 326.83482542725886 399.46149592146463C322.30530931954627 381.8159869798376 326.1993375474165 365.21871677150557 338.10414103635264 351.42900481407577C350.00894452528877 337.63929285664597 356.1391488730284 336.7076670378111 383.97788217415217 333.2708785258016C411.816615475276 329.8340900137921 460.2295727808207 305.6831183317131 471.73006088174714 334.9324199564301C483.23054898267355 364.18172158114714 462.48944225201 452.5852288708068 439.1802250585988 473.6675263244433 "></path><path d="M459.77505073478926 345.77700391470086C469.3587908188946 370.1514219352984 452.0745352100083 443.8210113433481 432.6501875488323 461.3895925547119C413.2258398876564 478.9581737660757 386.04259161936335 442.989185118653 366.5381819611446 430.10619372924697C347.0337723029258 417.22320233984095 342.8036179458096 414.25582467025214 339.0290211893824 399.55123388556297C335.2544244329552 384.8466431008738 338.49944795618046 371.01558459393044 348.42011753029385 359.5241579627389C358.3407871044073 348.03273133154744 363.44929072752365 347.25637648251836 386.6482351451268 344.3923860558438C409.84717956273 341.5283956291692 450.19131065068393 321.40258589410337 459.77505073478926 345.77700391470086C469.3587908188946 370.1514219352984 452.0745352100083 443.8210113433481 432.6501875488323 461.3895925547119 "></path><path d="M447.82004058783144 356.6216031317607C455.48703265511574 376.1211375482387 441.65962816800663 435.05680907467854 426.1201500390659 449.11167404376954C410.5806719101251 463.16653901286054 388.83407329549067 434.39134809492236 373.23054556891566 424.08495498339755C357.62701784234065 413.77856187187274 354.2428943566477 411.4046597362017 351.2232169515059 399.64098710845036C348.20353954636414 387.87731448069906 350.79955836494435 376.8124676751443 358.7360940242351 367.6193263701911C366.6726296835258 358.4261850652379 370.7594325820189 357.8051011860147 389.31858811610147 355.51390884467503C407.877743650184 353.2227165033354 440.15304852054715 337.1220687152827 447.82004058783144 356.6216031317607C455.48703265511574 376.1211375482387 441.65962816800663 435.05680907467854 426.1201500390659 449.11167404376954 "></path><path d="M435.86503044087357 367.4662023488205C441.6152744913368 382.09085316117904 431.244721126005 426.29260680600885 419.5901125292994 436.8337555328271C407.9355039325938 447.3749042596454 391.625554971618 425.7935110711918 379.92290917668674 418.0637162375482C368.2202633817555 410.3339214039046 365.68217076748573 408.5534948021513 363.41741271362946 399.73074033133776C361.15265465977313 390.90798586052426 363.0996687737083 382.60935075635825 369.0520705181763 375.7144947776434C375.00447226264436 368.81963879892845 378.0695744365142 368.35382588951103 391.9889410870761 366.6354316335063C405.908307737638 364.9170373775015 430.11478639041036 352.841551536462 435.86503044087357 367.4662023488205C441.6152744913368 382.09085316117904 431.244721126005 426.29260680600885 419.5901125292994 436.8337555328271 "></path><path d="M423.9100202939157 378.31080156588035C427.74351632755787 388.06056877411936 420.8298140840033 417.52840453733927 413.0600750195329 424.55583702188477C405.2903359550625 431.58326950643027 394.41703664774536 417.1956740474612 386.61527278445783 412.0424774916988C378.8135089211703 406.88928093593637 377.1214471783238 405.70232986810083 375.611608475753 399.8204935542252C374.10176977318207 393.9386572403495 375.3997791824722 388.4062338375722 379.36804701211753 383.8096631850956C383.33631484176294 379.213092532619 385.37971629100946 378.90255059300733 394.6592940580507 377.7569544223375C403.938871825092 376.6113582516677 420.0765242602736 368.56103435764135 423.9100202939157 378.31080156588035C427.74351632755787 388.06056877411936 420.8298140840033 417.52840453733927 413.0600750195329 424.55583702188477 "></path><path d="M411.9550101469579 389.15540078294015C413.8717581637789 394.0302843870597 410.4149070420017 408.76420226866964 406.5300375097665 412.27791851094236C402.6451679775313 415.79163475321513 397.2085183238727 408.5978370237306 393.3076363922289 406.0212387458494C389.40675446058515 403.4446404679682 388.5607235891619 402.8511649340504 387.8058042378765 399.9102467771126C387.05088488659106 396.96932862017474 387.6998895912361 394.20311691878607 389.6840235060588 391.9048315925478C391.66815742088147 389.60654626630946 392.68985814550473 389.4512752965037 397.32964702902535 388.8784772111688C401.969435912546 388.3056791258338 410.0382621301368 384.2805171788207 411.9550101469579 389.15540078294015C413.8717581637789 394.0302843870597 410.4149070420017 408.76420226866964 406.5300375097665 412.27791851094236 "></path></g></svg>